<svg xmlns="http://www.w3.org/2000/svg" xmlns:xlink="http://www.w3.org/1999/xlink" width="500" zoomAndPan="magnify" viewBox="0 0 375 374.999991" height="500" preserveAspectRatio="xMidYMid meet" version="1.0"><defs><g/><clipPath id="c41d5d4e34"><path d="M 55.339844 46 L 319.339844 46 L 319.339844 278.25 L 55.339844 278.25 Z M 55.339844 46 " clip-rule="nonzero"/></clipPath><clipPath id="877d1ded8b"><path d="M 55.339844 97 L 112 97 L 112 174 L 55.339844 174 Z M 55.339844 97 " clip-rule="nonzero"/></clipPath><clipPath id="5d12d765ec"><path d="M 263 97 L 319.339844 97 L 319.339844 174 L 263 174 Z M 263 97 " clip-rule="nonzero"/></clipPath></defs><rect x="-37.5" width="450" fill="#ffffff" y="-37.499999" height="449.999989" fill-opacity="1"/><rect x="-37.5" width="450" fill="#f3f6f4" y="-37.499999" height="449.999989" fill-opacity="1"/><g clip-path="url(#c41d5d4e34)"><path stroke-linecap="round" transform="matrix(6.930012, 0, 0, 6.938902, 21.018654, -27.755608)" fill="none" stroke-linejoin="miter" d="M 16.999894 43.000001 C 16.999894 43.000001 23.000176 40.999842 23.000176 39.000246 L 14.000034 39.000246 " stroke="#ffc107" stroke-width="2" stroke-opacity="1" stroke-miterlimit="10"/><path stroke-linecap="round" transform="matrix(6.930012, 0, 0, 6.938902, 21.018654, -27.755608)" fill="none" stroke-linejoin="miter" d="M 14.999987 40.999842 C 14.999987 40.999842 21.00027 40.999842 23.000176 39.000246 " stroke="#ffc107" stroke-width="2" stroke-opacity="1" stroke-miterlimit="10"/><path stroke-linecap="round" transform="matrix(6.930012, 0, 0, 6.938902, 21.018654, -27.755608)" fill="none" stroke-linejoin="miter" d="M 29.999848 43.000001 C 29.999848 43.000001 24.000129 40.999842 24.000129 39.000246 L 33.000271 39.000246 " stroke="#ffc107" stroke-width="2" stroke-opacity="1" stroke-miterlimit="10"/><path stroke-linecap="round" transform="matrix(6.930012, 0, 0, 6.938902, 21.018654, -27.755608)" fill="none" stroke-linejoin="miter" d="M 31.999754 40.999842 C 31.999754 40.999842 26.000035 40.999842 24.000129 39.000246 " stroke="#ffc107" stroke-width="2" stroke-opacity="1" stroke-miterlimit="10"/></g><g clip-path="url(#877d1ded8b)"><path fill="#1a237e" d="M 111.109375 97.144531 C 97.25 131.839844 55.667969 159.59375 55.667969 159.59375 C 55.667969 159.59375 62.597656 173.472656 90.320312 173.472656 L 111.109375 173.472656 Z M 111.109375 97.144531 " fill-opacity="1" fill-rule="nonzero"/></g><g clip-path="url(#5d12d765ec)"><path fill="#1a237e" d="M 263.570312 97.144531 C 277.429688 131.839844 319.007812 159.59375 319.007812 159.59375 C 319.007812 159.59375 312.078125 173.472656 284.359375 173.472656 L 263.570312 173.472656 Z M 263.570312 97.144531 " fill-opacity="1" fill-rule="nonzero"/></g><path fill="#303f9f" d="M 256.640625 69.390625 C 256.640625 107.710938 225.613281 138.777344 187.339844 138.777344 C 149.066406 138.777344 118.039062 107.710938 118.039062 69.390625 C 118.039062 20.816406 149.066406 0 187.339844 0 C 225.613281 0 256.640625 20.816406 256.640625 69.390625 Z M 256.640625 69.390625 " fill-opacity="1" fill-rule="nonzero"/><path fill="#303f9f" d="M 284.359375 159.59375 C 284.359375 161.183594 284.320312 162.773438 284.242188 164.363281 C 284.164062 165.949219 284.046875 167.535156 283.890625 169.117188 C 283.734375 170.699219 283.542969 172.277344 283.308594 173.847656 C 283.074219 175.421875 282.804688 176.988281 282.496094 178.546875 C 282.183594 180.105469 281.835938 181.65625 281.453125 183.199219 C 281.066406 184.742188 280.640625 186.273438 280.179688 187.792969 C 279.71875 189.316406 279.222656 190.824219 278.6875 192.320312 C 278.152344 193.820312 277.582031 195.300781 276.972656 196.769531 C 276.367188 198.238281 275.722656 199.691406 275.042969 201.128906 C 274.367188 202.566406 273.652344 203.984375 272.902344 205.386719 C 272.15625 206.789062 271.371094 208.171875 270.554688 209.535156 C 269.738281 210.902344 268.890625 212.242188 268.007812 213.566406 C 267.125 214.886719 266.210938 216.1875 265.265625 217.464844 C 264.320312 218.742188 263.34375 219.992188 262.335938 221.222656 C 261.328125 222.453125 260.292969 223.65625 259.226562 224.832031 C 258.160156 226.011719 257.066406 227.164062 255.941406 228.285156 C 254.820312 229.410156 253.671875 230.507812 252.492188 231.574219 C 251.316406 232.640625 250.117188 233.679688 248.886719 234.6875 C 247.660156 235.695312 246.410156 236.675781 245.132812 237.621094 C 243.859375 238.570312 242.5625 239.484375 241.242188 240.367188 C 239.921875 241.25 238.578125 242.101562 237.21875 242.917969 C 235.855469 243.734375 234.472656 244.519531 233.074219 245.269531 C 231.671875 246.019531 230.253906 246.734375 228.820312 247.414062 C 227.386719 248.09375 225.933594 248.734375 224.46875 249.34375 C 223 249.953125 221.519531 250.523438 220.023438 251.0625 C 218.527344 251.597656 217.023438 252.09375 215.503906 252.554688 C 213.984375 253.019531 212.453125 253.441406 210.914062 253.828125 C 209.371094 254.214844 207.824219 254.5625 206.265625 254.871094 C 204.710938 255.183594 203.144531 255.453125 201.574219 255.6875 C 200.003906 255.921875 198.429688 256.117188 196.847656 256.273438 C 195.269531 256.425781 193.683594 256.542969 192.097656 256.621094 C 190.511719 256.699219 188.925781 256.738281 187.339844 256.738281 C 185.75 256.738281 184.164062 256.699219 182.578125 256.621094 C 180.992188 256.542969 179.410156 256.425781 177.828125 256.273438 C 176.25 256.117188 174.671875 255.921875 173.101562 255.6875 C 171.53125 255.453125 169.96875 255.183594 168.410156 254.871094 C 166.855469 254.5625 165.304688 254.214844 163.765625 253.828125 C 162.226562 253.441406 160.695312 253.019531 159.175781 252.554688 C 157.65625 252.09375 156.148438 251.597656 154.652344 251.0625 C 153.160156 250.523438 151.679688 249.953125 150.210938 249.34375 C 148.742188 248.734375 147.292969 248.09375 145.859375 247.414062 C 144.421875 246.734375 143.003906 246.019531 141.605469 245.269531 C 140.203125 244.519531 138.824219 243.734375 137.460938 242.917969 C 136.097656 242.101562 134.757812 241.25 133.4375 240.367188 C 132.117188 239.484375 130.820312 238.570312 129.542969 237.621094 C 128.269531 236.675781 127.015625 235.695312 125.789062 234.6875 C 124.5625 233.679688 123.359375 232.640625 122.183594 231.574219 C 121.007812 230.507812 119.859375 229.410156 118.734375 228.285156 C 117.613281 227.164062 116.519531 226.011719 115.453125 224.832031 C 114.386719 223.65625 113.347656 222.453125 112.339844 221.222656 C 111.335938 219.992188 110.359375 218.742188 109.410156 217.464844 C 108.464844 216.1875 107.550781 214.886719 106.667969 213.566406 C 105.789062 212.242188 104.9375 210.902344 104.121094 209.535156 C 103.304688 208.171875 102.523438 206.789062 101.773438 205.386719 C 101.027344 203.984375 100.3125 202.566406 99.632812 201.128906 C 98.953125 199.691406 98.3125 198.238281 97.703125 196.769531 C 97.097656 195.300781 96.523438 193.820312 95.988281 192.320312 C 95.457031 190.824219 94.957031 189.316406 94.496094 187.792969 C 94.035156 186.273438 93.613281 184.742188 93.226562 183.199219 C 92.839844 181.65625 92.492188 180.105469 92.183594 178.546875 C 91.875 176.988281 91.601562 175.421875 91.367188 173.847656 C 91.136719 172.277344 90.941406 170.699219 90.785156 169.117188 C 90.628906 167.535156 90.511719 165.949219 90.4375 164.363281 C 90.359375 162.773438 90.320312 161.183594 90.320312 159.59375 C 90.320312 158.003906 90.359375 156.417969 90.4375 154.828125 C 90.511719 153.238281 90.628906 151.65625 90.785156 150.074219 C 90.941406 148.492188 91.136719 146.914062 91.367188 145.339844 C 91.601562 143.769531 91.875 142.203125 92.183594 140.644531 C 92.492188 139.082031 92.839844 137.53125 93.226562 135.992188 C 93.613281 134.449219 94.035156 132.917969 94.496094 131.394531 C 94.957031 129.875 95.457031 128.363281 95.988281 126.867188 C 96.523438 125.371094 97.097656 123.886719 97.703125 122.417969 C 98.3125 120.949219 98.953125 119.496094 99.632812 118.058594 C 100.3125 116.621094 101.027344 115.203125 101.773438 113.800781 C 102.523438 112.398438 103.304688 111.015625 104.121094 109.652344 C 104.9375 108.289062 105.789062 106.945312 106.667969 105.625 C 107.550781 104.300781 108.464844 103.003906 109.410156 101.726562 C 110.359375 100.449219 111.335938 99.195312 112.339844 97.96875 C 113.347656 96.738281 114.386719 95.535156 115.453125 94.355469 C 116.519531 93.179688 117.613281 92.027344 118.734375 90.902344 C 119.859375 89.777344 121.007812 88.683594 122.183594 87.617188 C 123.359375 86.546875 124.5625 85.507812 125.789062 84.5 C 127.015625 83.492188 128.269531 82.515625 129.542969 81.566406 C 130.820312 80.621094 132.117188 79.707031 133.4375 78.820312 C 134.757812 77.9375 136.097656 77.089844 137.460938 76.269531 C 138.824219 75.453125 140.203125 74.671875 141.605469 73.921875 C 143.003906 73.171875 144.421875 72.457031 145.859375 71.777344 C 147.292969 71.097656 148.742188 70.453125 150.210938 69.84375 C 151.679688 69.238281 153.160156 68.664062 154.652344 68.128906 C 156.148438 67.59375 157.65625 67.09375 159.175781 66.632812 C 160.695312 66.171875 162.226562 65.746094 163.765625 65.363281 C 165.304688 64.976562 166.855469 64.625 168.410156 64.316406 C 169.96875 64.007812 171.53125 63.734375 173.101562 63.5 C 174.671875 63.269531 176.25 63.074219 177.828125 62.917969 C 179.410156 62.761719 180.992188 62.644531 182.578125 62.566406 C 184.164062 62.488281 185.75 62.449219 187.339844 62.449219 C 188.925781 62.449219 190.511719 62.488281 192.097656 62.566406 C 193.683594 62.644531 195.269531 62.761719 196.847656 62.917969 C 198.429688 63.074219 200.003906 63.269531 201.574219 63.5 C 203.144531 63.734375 204.710938 64.007812 206.265625 64.316406 C 207.824219 64.625 209.371094 64.976562 210.914062 65.363281 C 212.453125 65.746094 213.984375 66.171875 215.503906 66.632812 C 217.023438 67.09375 218.527344 67.59375 220.023438 68.128906 C 221.519531 68.664062 223 69.238281 224.46875 69.84375 C 225.933594 70.453125 227.386719 71.097656 228.820312 71.777344 C 230.253906 72.457031 231.671875 73.171875 233.074219 73.921875 C 234.472656 74.671875 235.855469 75.453125 237.21875 76.269531 C 238.578125 77.089844 239.921875 77.9375 241.242188 78.820312 C 242.5625 79.707031 243.859375 80.621094 245.132812 81.566406 C 246.410156 82.515625 247.660156 83.492188 248.886719 84.5 C 250.117188 85.507812 251.316406 86.546875 252.492188 87.617188 C 253.671875 88.683594 254.820312 89.777344 255.941406 90.902344 C 257.066406 92.027344 258.160156 93.179688 259.226562 94.355469 C 260.292969 95.535156 261.328125 96.738281 262.335938 97.96875 C 263.34375 99.195312 264.320312 100.449219 265.265625 101.726562 C 266.210938 103.003906 267.125 104.300781 268.007812 105.625 C 268.890625 106.945312 269.738281 108.289062 270.554688 109.652344 C 271.371094 111.015625 272.15625 112.398438 272.902344 113.800781 C 273.652344 115.203125 274.363281 116.621094 275.042969 118.058594 C 275.722656 119.496094 276.367188 120.949219 276.972656 122.417969 C 277.582031 123.886719 278.152344 125.371094 278.6875 126.867188 C 279.222656 128.363281 279.71875 129.875 280.179688 131.394531 C 280.640625 132.917969 281.066406 134.449219 281.453125 135.992188 C 281.835938 137.53125 282.183594 139.082031 282.496094 140.644531 C 282.804688 142.203125 283.074219 143.769531 283.308594 145.339844 C 283.542969 146.914062 283.734375 148.492188 283.890625 150.074219 C 284.046875 151.65625 284.164062 153.238281 284.242188 154.828125 C 284.320312 156.417969 284.359375 158.003906 284.359375 159.59375 Z M 284.359375 159.59375 " fill-opacity="1" fill-rule="nonzero"/><path fill="#303f9f" d="M 90.320312 159.59375 C 90.320312 117.960938 118.039062 90.207031 118.039062 69.390625 C 118.039062 48.574219 256.640625 48.574219 256.640625 69.390625 C 256.640625 90.207031 284.359375 117.960938 284.359375 159.59375 C 284.359375 201.226562 90.320312 201.226562 90.320312 159.59375 Z M 90.320312 159.59375 " fill-opacity="1" fill-rule="nonzero"/><path fill="#ffffff" d="M 256.640625 159.59375 C 256.640625 160.730469 256.609375 161.867188 256.554688 163 C 256.5 164.132812 256.417969 165.265625 256.304688 166.394531 C 256.195312 167.527344 256.054688 168.652344 255.890625 169.777344 C 255.722656 170.898438 255.527344 172.019531 255.308594 173.132812 C 255.085938 174.246094 254.835938 175.351562 254.5625 176.453125 C 254.285156 177.554688 253.984375 178.652344 253.65625 179.738281 C 253.324219 180.824219 252.96875 181.902344 252.589844 182.972656 C 252.207031 184.039062 251.796875 185.097656 251.363281 186.148438 C 250.929688 187.199219 250.46875 188.234375 249.984375 189.261719 C 249.5 190.289062 248.992188 191.304688 248.457031 192.304688 C 247.921875 193.304688 247.363281 194.292969 246.78125 195.269531 C 246.195312 196.242188 245.589844 197.199219 244.960938 198.144531 C 244.328125 199.089844 243.675781 200.019531 243 200.929688 C 242.324219 201.84375 241.628906 202.738281 240.910156 203.613281 C 240.1875 204.492188 239.449219 205.351562 238.6875 206.195312 C 237.925781 207.035156 237.144531 207.855469 236.339844 208.660156 C 235.539062 209.464844 234.71875 210.246094 233.878906 211.007812 C 233.039062 211.769531 232.179688 212.511719 231.300781 213.234375 C 230.425781 213.953125 229.53125 214.652344 228.621094 215.328125 C 227.710938 216.003906 226.78125 216.660156 225.839844 217.289062 C 224.898438 217.921875 223.9375 218.527344 222.964844 219.113281 C 221.992188 219.695312 221.007812 220.253906 220.007812 220.789062 C 219.007812 221.324219 217.992188 221.835938 216.96875 222.320312 C 215.941406 222.808594 214.90625 223.265625 213.859375 223.703125 C 212.8125 224.136719 211.753906 224.546875 210.683594 224.925781 C 209.617188 225.308594 208.542969 225.667969 207.457031 225.996094 C 206.371094 226.324219 205.277344 226.628906 204.175781 226.902344 C 203.078125 227.179688 201.972656 227.429688 200.859375 227.652344 C 199.746094 227.871094 198.628906 228.066406 197.507812 228.234375 C 196.386719 228.398438 195.261719 228.539062 194.132812 228.648438 C 193.003906 228.761719 191.871094 228.84375 190.738281 228.898438 C 189.605469 228.957031 188.472656 228.984375 187.339844 228.984375 C 186.203125 228.984375 185.070312 228.957031 183.9375 228.898438 C 182.804688 228.84375 181.675781 228.761719 180.546875 228.648438 C 179.417969 228.539062 178.292969 228.398438 177.171875 228.234375 C 176.046875 228.066406 174.929688 227.871094 173.820312 227.652344 C 172.707031 227.429688 171.601562 227.179688 170.5 226.902344 C 169.398438 226.628906 168.308594 226.324219 167.222656 225.996094 C 166.136719 225.667969 165.058594 225.308594 163.992188 224.925781 C 162.925781 224.546875 161.867188 224.136719 160.820312 223.703125 C 159.769531 223.265625 158.734375 222.808594 157.710938 222.320312 C 156.683594 221.835938 155.671875 221.324219 154.671875 220.789062 C 153.671875 220.253906 152.683594 219.695312 151.710938 219.113281 C 150.738281 218.527344 149.78125 217.921875 148.835938 217.289062 C 147.894531 216.660156 146.96875 216.003906 146.058594 215.328125 C 145.144531 214.652344 144.253906 213.953125 143.375 213.234375 C 142.5 212.511719 141.640625 211.769531 140.800781 211.007812 C 139.960938 210.246094 139.136719 209.464844 138.335938 208.660156 C 137.535156 207.855469 136.753906 207.035156 135.992188 206.195312 C 135.230469 205.351562 134.488281 204.492188 133.769531 203.613281 C 133.050781 202.738281 132.351562 201.84375 131.675781 200.929688 C 131 200.015625 130.347656 199.089844 129.71875 198.144531 C 129.085938 197.199219 128.480469 196.242188 127.898438 195.269531 C 127.316406 194.292969 126.757812 193.304688 126.222656 192.304688 C 125.6875 191.304688 125.175781 190.289062 124.691406 189.261719 C 124.207031 188.234375 123.746094 187.199219 123.3125 186.148438 C 122.878906 185.097656 122.472656 184.039062 122.089844 182.972656 C 121.707031 181.902344 121.351562 180.824219 121.023438 179.738281 C 120.695312 178.652344 120.390625 177.554688 120.117188 176.453125 C 119.839844 175.351562 119.589844 174.246094 119.371094 173.132812 C 119.148438 172.019531 118.957031 170.898438 118.789062 169.777344 C 118.621094 168.652344 118.484375 167.527344 118.371094 166.394531 C 118.261719 165.265625 118.179688 164.132812 118.121094 163 C 118.066406 161.867188 118.039062 160.730469 118.039062 159.59375 C 118.039062 158.460938 118.066406 157.324219 118.121094 156.191406 C 118.179688 155.054688 118.261719 153.921875 118.371094 152.792969 C 118.484375 151.664062 118.621094 150.535156 118.789062 149.414062 C 118.957031 148.289062 119.148438 147.171875 119.371094 146.058594 C 119.589844 144.945312 119.839844 143.835938 120.117188 142.734375 C 120.390625 141.632812 120.695312 140.539062 121.023438 139.453125 C 121.351562 138.367188 121.707031 137.289062 122.089844 136.21875 C 122.472656 135.148438 122.878906 134.089844 123.3125 133.039062 C 123.746094 131.992188 124.207031 130.953125 124.691406 129.925781 C 125.175781 128.902344 125.6875 127.886719 126.222656 126.886719 C 126.757812 125.882812 127.316406 124.894531 127.898438 123.921875 C 128.480469 122.949219 129.085938 121.988281 129.71875 121.042969 C 130.347656 120.101562 131 119.171875 131.675781 118.257812 C 132.351562 117.347656 133.050781 116.453125 133.769531 115.574219 C 134.488281 114.695312 135.230469 113.835938 135.992188 112.996094 C 136.753906 112.15625 137.535156 111.332031 138.335938 110.527344 C 139.136719 109.726562 139.960938 108.945312 140.800781 108.179688 C 141.640625 107.417969 142.5 106.675781 143.375 105.957031 C 144.253906 105.234375 145.144531 104.539062 146.058594 103.859375 C 146.96875 103.183594 147.894531 102.53125 148.835938 101.898438 C 149.78125 101.269531 150.738281 100.660156 151.710938 100.078125 C 152.683594 99.492188 153.671875 98.933594 154.671875 98.398438 C 155.671875 97.863281 156.683594 97.351562 157.710938 96.867188 C 158.734375 96.382812 159.769531 95.921875 160.820312 95.488281 C 161.867188 95.054688 162.925781 94.644531 163.992188 94.261719 C 165.058594 93.878906 166.136719 93.523438 167.222656 93.195312 C 168.308594 92.863281 169.398438 92.5625 170.5 92.285156 C 171.601562 92.007812 172.707031 91.761719 173.820312 91.539062 C 174.929688 91.316406 176.046875 91.125 177.171875 90.957031 C 178.292969 90.789062 179.417969 90.652344 180.546875 90.539062 C 181.675781 90.429688 182.804688 90.34375 183.9375 90.289062 C 185.070312 90.234375 186.203125 90.207031 187.339844 90.207031 C 188.472656 90.207031 189.605469 90.234375 190.738281 90.289062 C 191.871094 90.34375 193.003906 90.429688 194.132812 90.539062 C 195.261719 90.652344 196.386719 90.789062 197.507812 90.957031 C 198.628906 91.125 199.746094 91.316406 200.859375 91.539062 C 201.972656 91.761719 203.078125 92.007812 204.175781 92.285156 C 205.277344 92.5625 206.371094 92.863281 207.457031 93.195312 C 208.542969 93.523438 209.617188 93.878906 210.683594 94.261719 C 211.753906 94.644531 212.8125 95.054688 213.859375 95.488281 C 214.90625 95.921875 215.941406 96.382812 216.96875 96.867188 C 217.992188 97.351562 219.007812 97.863281 220.007812 98.398438 C 221.007812 98.933594 221.992188 99.492188 222.964844 100.078125 C 223.9375 100.660156 224.898438 101.269531 225.839844 101.898438 C 226.78125 102.53125 227.710938 103.183594 228.621094 103.859375 C 229.53125 104.539062 230.425781 105.234375 231.300781 105.957031 C 232.179688 106.675781 233.039062 107.417969 233.878906 108.179688 C 234.71875 108.945312 235.539062 109.726562 236.339844 110.527344 C 237.144531 111.332031 237.925781 112.15625 238.6875 112.996094 C 239.449219 113.835938 240.1875 114.695312 240.910156 115.574219 C 241.628906 116.453125 242.324219 117.347656 243 118.257812 C 243.675781 119.171875 244.328125 120.101562 244.960938 121.042969 C 245.589844 121.988281 246.195312 122.949219 246.78125 123.921875 C 247.363281 124.894531 247.921875 125.882812 248.457031 126.886719 C 248.992188 127.886719 249.5 128.902344 249.984375 129.925781 C 250.46875 130.953125 250.929688 131.992188 251.363281 133.039062 C 251.796875 134.089844 252.207031 135.148438 252.589844 136.21875 C 252.96875 137.289062 253.324219 138.367188 253.65625 139.453125 C 253.984375 140.539062 254.285156 141.632812 254.5625 142.734375 C 254.835938 143.835938 255.085938 144.945312 255.308594 146.058594 C 255.527344 147.171875 255.722656 148.289062 255.890625 149.414062 C 256.054688 150.535156 256.195312 151.664062 256.304688 152.792969 C 256.417969 153.921875 256.5 155.054688 256.554688 156.191406 C 256.609375 157.324219 256.640625 158.460938 256.640625 159.59375 Z M 256.640625 159.59375 " fill-opacity="1" fill-rule="nonzero"/><path fill="#ffffff" d="M 228.917969 90.183594 C 228.917969 90.183594 235.847656 76.34375 235.847656 62.464844 C 235.847656 13.890625 187.339844 41.648438 187.339844 48.574219 C 187.339844 41.648438 138.828125 13.890625 138.828125 62.464844 C 138.828125 76.34375 145.757812 90.183594 145.757812 90.183594 C 138.828125 104.082031 118.039062 119.453125 118.039062 159.59375 L 256.640625 159.59375 C 256.640625 119.453125 235.847656 104.082031 228.917969 90.183594 Z M 228.917969 90.183594 " fill-opacity="1" fill-rule="nonzero"/><path fill="#263238" d="M 180.410156 72.859375 C 180.410156 73.542969 180.34375 74.21875 180.210938 74.890625 C 180.074219 75.558594 179.878906 76.210938 179.617188 76.839844 C 179.355469 77.472656 179.035156 78.074219 178.65625 78.640625 C 178.277344 79.210938 177.847656 79.734375 177.363281 80.21875 C 176.882812 80.703125 176.355469 81.132812 175.789062 81.511719 C 175.222656 81.890625 174.621094 82.214844 173.992188 82.472656 C 173.359375 82.734375 172.710938 82.933594 172.042969 83.066406 C 171.371094 83.199219 170.695312 83.265625 170.015625 83.265625 C 169.332031 83.265625 168.65625 83.199219 167.984375 83.066406 C 167.316406 82.933594 166.667969 82.734375 166.035156 82.472656 C 165.40625 82.214844 164.804688 81.890625 164.238281 81.511719 C 163.671875 81.132812 163.144531 80.703125 162.664062 80.21875 C 162.179688 79.734375 161.75 79.210938 161.371094 78.640625 C 160.992188 78.074219 160.671875 77.472656 160.410156 76.839844 C 160.148438 76.210938 159.953125 75.558594 159.820312 74.890625 C 159.683594 74.21875 159.617188 73.542969 159.617188 72.859375 C 159.617188 72.175781 159.683594 71.5 159.820312 70.828125 C 159.953125 70.15625 160.148438 69.507812 160.410156 68.875 C 160.671875 68.242188 160.992188 67.644531 161.371094 67.074219 C 161.75 66.507812 162.179688 65.980469 162.664062 65.5 C 163.144531 65.015625 163.671875 64.582031 164.238281 64.203125 C 164.804688 63.824219 165.40625 63.503906 166.035156 63.242188 C 166.667969 62.980469 167.316406 62.785156 167.984375 62.648438 C 168.65625 62.515625 169.332031 62.449219 170.015625 62.449219 C 170.695312 62.449219 171.371094 62.515625 172.042969 62.648438 C 172.710938 62.785156 173.359375 62.980469 173.992188 63.242188 C 174.621094 63.503906 175.222656 63.824219 175.789062 64.203125 C 176.355469 64.582031 176.882812 65.015625 177.363281 65.5 C 177.847656 65.980469 178.277344 66.507812 178.65625 67.074219 C 179.035156 67.644531 179.355469 68.242188 179.617188 68.875 C 179.878906 69.507812 180.074219 70.15625 180.210938 70.828125 C 180.34375 71.5 180.410156 72.175781 180.410156 72.859375 Z M 180.410156 72.859375 " fill-opacity="1" fill-rule="nonzero"/><path fill="#263238" d="M 215.058594 72.859375 C 215.058594 73.542969 214.992188 74.21875 214.859375 74.890625 C 214.726562 75.558594 214.527344 76.210938 214.269531 76.839844 C 214.007812 77.472656 213.6875 78.074219 213.308594 78.640625 C 212.929688 79.210938 212.496094 79.734375 212.015625 80.21875 C 211.53125 80.703125 211.007812 81.132812 210.4375 81.511719 C 209.871094 81.890625 209.273438 82.214844 208.640625 82.472656 C 208.011719 82.734375 207.363281 82.933594 206.691406 83.066406 C 206.023438 83.199219 205.347656 83.265625 204.664062 83.265625 C 203.980469 83.265625 203.304688 83.199219 202.636719 83.066406 C 201.964844 82.933594 201.316406 82.734375 200.6875 82.472656 C 200.054688 82.214844 199.457031 81.890625 198.890625 81.511719 C 198.320312 81.132812 197.796875 80.703125 197.3125 80.21875 C 196.832031 79.734375 196.398438 79.210938 196.019531 78.640625 C 195.640625 78.074219 195.320312 77.472656 195.058594 76.839844 C 194.800781 76.210938 194.601562 75.558594 194.46875 74.890625 C 194.335938 74.21875 194.269531 73.542969 194.269531 72.859375 C 194.269531 72.175781 194.335938 71.5 194.46875 70.828125 C 194.601562 70.15625 194.800781 69.507812 195.058594 68.875 C 195.320312 68.242188 195.640625 67.644531 196.019531 67.074219 C 196.398438 66.507812 196.832031 65.980469 197.3125 65.5 C 197.796875 65.015625 198.320312 64.582031 198.890625 64.203125 C 199.457031 63.824219 200.054688 63.503906 200.6875 63.242188 C 201.316406 62.980469 201.964844 62.785156 202.636719 62.648438 C 203.304688 62.515625 203.980469 62.449219 204.664062 62.449219 C 205.347656 62.449219 206.023438 62.515625 206.691406 62.648438 C 207.363281 62.785156 208.011719 62.980469 208.640625 63.242188 C 209.273438 63.503906 209.871094 63.824219 210.4375 64.203125 C 211.007812 64.582031 211.53125 65.015625 212.015625 65.5 C 212.496094 65.980469 212.929688 66.507812 213.308594 67.074219 C 213.6875 67.644531 214.007812 68.242188 214.269531 68.875 C 214.527344 69.507812 214.726562 70.15625 214.859375 70.828125 C 214.992188 71.5 215.058594 72.175781 215.058594 72.859375 Z M 215.058594 72.859375 " fill-opacity="1" fill-rule="nonzero"/><path fill="#ffc107" d="M 192.285156 85.355469 C 191.019531 84.070312 189.28125 83.265625 187.339844 83.265625 C 185.398438 83.265625 183.660156 84.070312 182.398438 85.355469 L 182.390625 85.355469 C 176.402344 90.207031 167.941406 88.816406 167.941406 88.816406 C 167.941406 88.816406 177.636719 117.960938 187.339844 117.960938 C 197.039062 117.960938 206.734375 88.816406 206.734375 88.816406 C 206.734375 88.816406 198.273438 90.207031 192.285156 85.355469 Z M 192.285156 85.355469 " fill-opacity="1" fill-rule="nonzero"/><g fill="#000000" fill-opacity="1"><g transform="translate(101.406003, 347.332009)"><g><path d="M 15.546875 -8.703125 L 38.5625 -8.703125 L 38.5625 0 L 4.703125 0 L 4.703125 -52.625 L 15.546875 -52.625 Z M 15.546875 -8.703125 "/></g></g></g><g fill="#000000" fill-opacity="1"><g transform="translate(141.48575, 347.332009)"><g><path d="M 15.03125 0 L 4.546875 0 L 4.546875 -39.109375 L 15.03125 -39.109375 Z M 3.9375 -49.21875 C 3.9375 -50.789062 4.457031 -52.082031 5.5 -53.09375 C 6.550781 -54.101562 7.984375 -54.609375 9.796875 -54.609375 C 11.578125 -54.609375 13 -54.101562 14.0625 -53.09375 C 15.125 -52.082031 15.65625 -50.789062 15.65625 -49.21875 C 15.65625 -47.632812 15.117188 -46.332031 14.046875 -45.3125 C 12.972656 -44.300781 11.554688 -43.796875 9.796875 -43.796875 C 8.035156 -43.796875 6.617188 -44.300781 5.546875 -45.3125 C 4.472656 -46.332031 3.9375 -47.632812 3.9375 -49.21875 Z M 3.9375 -49.21875 "/></g></g></g><g fill="#000000" fill-opacity="1"><g transform="translate(161.110009, 347.332009)"><g><path d="M 13.625 -39.109375 L 13.953125 -34.59375 C 16.742188 -38.082031 20.488281 -39.828125 25.1875 -39.828125 C 29.332031 -39.828125 32.414062 -38.609375 34.4375 -36.171875 C 36.46875 -33.742188 37.503906 -30.109375 37.546875 -25.265625 L 37.546875 0 L 27.109375 0 L 27.109375 -25.015625 C 27.109375 -27.222656 26.625 -28.828125 25.65625 -29.828125 C 24.695312 -30.828125 23.097656 -31.328125 20.859375 -31.328125 C 17.910156 -31.328125 15.703125 -30.078125 14.234375 -27.578125 L 14.234375 0 L 3.796875 0 L 3.796875 -39.109375 Z M 13.625 -39.109375 "/></g></g></g><g fill="#000000" fill-opacity="1"><g transform="translate(202.563093, 347.332009)"><g><path d="M 27.4375 -3.96875 C 24.851562 -0.84375 21.285156 0.71875 16.734375 0.71875 C 12.535156 0.71875 9.332031 -0.484375 7.125 -2.890625 C 4.925781 -5.296875 3.804688 -8.828125 3.765625 -13.484375 L 3.765625 -39.109375 L 14.203125 -39.109375 L 14.203125 -13.84375 C 14.203125 -9.769531 16.054688 -7.734375 19.765625 -7.734375 C 23.304688 -7.734375 25.738281 -8.960938 27.0625 -11.421875 L 27.0625 -39.109375 L 37.546875 -39.109375 L 37.546875 0 L 27.71875 0 Z M 27.4375 -3.96875 "/></g></g></g><g fill="#000000" fill-opacity="1"><g transform="translate(243.980036, 347.332009)"><g><path d="M 18.90625 -27.4375 L 25.484375 -39.109375 L 36.640625 -39.109375 L 25.515625 -19.953125 L 37.109375 0 L 25.90625 0 L 18.9375 -12.28125 L 12 0 L 0.765625 0 L 12.359375 -19.953125 L 1.265625 -39.109375 L 12.46875 -39.109375 Z M 18.90625 -27.4375 "/></g></g></g></svg>