<svg xmlns="http://www.w3.org/2000/svg" xmlns:xlink="http://www.w3.org/1999/xlink" width="500" zoomAndPan="magnify" viewBox="0 0 375 374.999991" height="500" preserveAspectRatio="xMidYMid meet" version="1.0"><defs><g/><clipPath id="28607a269c"><path d="M 52.011719 0 L 328.011719 0 L 328.011719 276 L 52.011719 276 Z M 52.011719 0 " clip-rule="nonzero"/></clipPath></defs><rect x="-37.5" width="450" fill="#ffffff" y="-37.499999" height="449.999989" fill-opacity="1"/><rect x="-37.5" width="450" fill="#ffffff" y="-37.499999" height="449.999989" fill-opacity="1"/><rect x="-37.5" width="450" fill="#f3f6f4" y="-37.499999" height="449.999989" fill-opacity="1"/><g clip-path="url(#28607a269c)"><path fill="#f7df1e" d="M 52.011719 0 L 328.011719 0 L 328.011719 276 L 52.011719 276 Z M 52.011719 0 " fill-opacity="1" fill-rule="nonzero"/></g><path fill="#000000" d="M 124.582031 230.644531 L 145.703125 217.867188 C 149.777344 225.089844 153.484375 231.203125 162.378906 231.203125 C 170.898438 231.203125 176.277344 227.863281 176.277344 214.902344 L 176.277344 126.710938 L 202.207031 126.710938 L 202.207031 215.269531 C 202.207031 242.125 186.464844 254.363281 163.492188 254.363281 C 142.738281 254.363281 130.695312 243.613281 124.582031 230.644531 " fill-opacity="1" fill-rule="nonzero"/><path fill="#000000" d="M 216.296875 227.863281 L 237.417969 215.636719 C 242.980469 224.714844 250.203125 231.386719 262.980469 231.386719 C 273.730469 231.386719 280.585938 226.019531 280.585938 218.601562 C 280.585938 209.707031 273.546875 206.558594 261.6875 201.371094 L 255.207031 198.589844 C 236.492188 190.625 224.082031 180.628906 224.082031 159.496094 C 224.082031 140.046875 238.894531 125.222656 262.0625 125.222656 C 278.546875 125.222656 290.40625 130.96875 298.925781 145.976562 L 278.730469 158.949219 C 274.289062 150.980469 269.46875 147.832031 262.0625 147.832031 C 254.460938 147.832031 249.644531 152.652344 249.644531 158.949219 C 249.644531 166.730469 254.460938 169.878906 265.578125 174.699219 L 272.058594 177.46875 C 294.105469 186.925781 306.523438 196.554688 306.523438 218.234375 C 306.523438 241.574219 288.1875 254.363281 263.539062 254.363281 C 239.457031 254.363281 223.898438 242.871094 216.296875 227.863281 " fill-opacity="1" fill-rule="nonzero"/><g fill="#000000" fill-opacity="1"><g transform="translate(13.77107, 347.331949)"><g><path d="M 25.90625 -52.625 L 36.75 -52.625 L 36.75 -16.1875 C 36.75 -12.84375 36.007812 -9.882812 34.53125 -7.3125 C 33.050781 -4.75 30.960938 -2.769531 28.265625 -1.375 C 25.566406 0.0195312 22.519531 0.71875 19.125 0.71875 C 13.550781 0.71875 9.210938 -0.691406 6.109375 -3.515625 C 3.003906 -6.347656 1.453125 -10.359375 1.453125 -15.546875 L 12.359375 -15.546875 C 12.359375 -12.960938 12.898438 -11.054688 13.984375 -9.828125 C 15.066406 -8.597656 16.78125 -7.984375 19.125 -7.984375 C 21.1875 -7.984375 22.832031 -8.691406 24.0625 -10.109375 C 25.289062 -11.535156 25.90625 -13.5625 25.90625 -16.1875 Z M 25.90625 -52.625 "/></g></g></g><g fill="#000000" fill-opacity="1"><g transform="translate(55.115733, 347.331949)"><g><path d="M 26.671875 0 C 26.191406 -0.9375 25.84375 -2.101562 25.625 -3.5 C 23.09375 -0.6875 19.800781 0.71875 15.75 0.71875 C 11.925781 0.71875 8.753906 -0.382812 6.234375 -2.59375 C 3.710938 -4.8125 2.453125 -7.609375 2.453125 -10.984375 C 2.453125 -15.128906 3.988281 -18.3125 7.0625 -20.53125 C 10.132812 -22.75 14.578125 -23.867188 20.390625 -23.890625 L 25.1875 -23.890625 L 25.1875 -26.125 C 25.1875 -27.9375 24.722656 -29.382812 23.796875 -30.46875 C 22.867188 -31.550781 21.40625 -32.09375 19.40625 -32.09375 C 17.644531 -32.09375 16.265625 -31.671875 15.265625 -30.828125 C 14.265625 -29.984375 13.765625 -28.828125 13.765625 -27.359375 L 3.328125 -27.359375 C 3.328125 -29.617188 4.023438 -31.710938 5.421875 -33.640625 C 6.816406 -35.566406 8.789062 -37.078125 11.34375 -38.171875 C 13.894531 -39.273438 16.765625 -39.828125 19.953125 -39.828125 C 24.765625 -39.828125 28.585938 -38.613281 31.421875 -36.1875 C 34.253906 -33.769531 35.671875 -30.367188 35.671875 -25.984375 L 35.671875 -9.03125 C 35.691406 -5.320312 36.207031 -2.515625 37.21875 -0.609375 L 37.21875 0 Z M 18.03125 -7.265625 C 19.570312 -7.265625 20.992188 -7.609375 22.296875 -8.296875 C 23.597656 -8.984375 24.5625 -9.90625 25.1875 -11.0625 L 25.1875 -17.78125 L 21.28125 -17.78125 C 16.050781 -17.78125 13.269531 -15.972656 12.9375 -12.359375 L 12.90625 -11.75 C 12.90625 -10.445312 13.363281 -9.375 14.28125 -8.53125 C 15.195312 -7.6875 16.445312 -7.265625 18.03125 -7.265625 Z M 18.03125 -7.265625 "/></g></g></g><g fill="#000000" fill-opacity="1"><g transform="translate(94.797936, 347.331949)"><g><path d="M 18.65625 -12.75 L 25.90625 -39.109375 L 36.828125 -39.109375 L 23.640625 0 L 13.65625 0 L 0.46875 -39.109375 L 11.390625 -39.109375 Z M 18.65625 -12.75 "/></g></g></g><g fill="#000000" fill-opacity="1"><g transform="translate(132.203291, 347.331949)"><g><path d="M 26.671875 0 C 26.191406 -0.9375 25.84375 -2.101562 25.625 -3.5 C 23.09375 -0.6875 19.800781 0.71875 15.75 0.71875 C 11.925781 0.71875 8.753906 -0.382812 6.234375 -2.59375 C 3.710938 -4.8125 2.453125 -7.609375 2.453125 -10.984375 C 2.453125 -15.128906 3.988281 -18.3125 7.0625 -20.53125 C 10.132812 -22.75 14.578125 -23.867188 20.390625 -23.890625 L 25.1875 -23.890625 L 25.1875 -26.125 C 25.1875 -27.9375 24.722656 -29.382812 23.796875 -30.46875 C 22.867188 -31.550781 21.40625 -32.09375 19.40625 -32.09375 C 17.644531 -32.09375 16.265625 -31.671875 15.265625 -30.828125 C 14.265625 -29.984375 13.765625 -28.828125 13.765625 -27.359375 L 3.328125 -27.359375 C 3.328125 -29.617188 4.023438 -31.710938 5.421875 -33.640625 C 6.816406 -35.566406 8.789062 -37.078125 11.34375 -38.171875 C 13.894531 -39.273438 16.765625 -39.828125 19.953125 -39.828125 C 24.765625 -39.828125 28.585938 -38.613281 31.421875 -36.1875 C 34.253906 -33.769531 35.671875 -30.367188 35.671875 -25.984375 L 35.671875 -9.03125 C 35.691406 -5.320312 36.207031 -2.515625 37.21875 -0.609375 L 37.21875 0 Z M 18.03125 -7.265625 C 19.570312 -7.265625 20.992188 -7.609375 22.296875 -8.296875 C 23.597656 -8.984375 24.5625 -9.90625 25.1875 -11.0625 L 25.1875 -17.78125 L 21.28125 -17.78125 C 16.050781 -17.78125 13.269531 -15.972656 12.9375 -12.359375 L 12.90625 -11.75 C 12.90625 -10.445312 13.363281 -9.375 14.28125 -8.53125 C 15.195312 -7.6875 16.445312 -7.265625 18.03125 -7.265625 Z M 18.03125 -7.265625 "/></g></g></g><g fill="#000000" fill-opacity="1"><g transform="translate(171.885494, 347.331949)"><g><path d="M 31.984375 -13.8125 C 31.984375 -15.851562 31.257812 -17.421875 29.8125 -18.515625 C 28.363281 -19.617188 25.757812 -20.773438 22 -21.984375 C 18.25 -23.203125 15.273438 -24.40625 13.078125 -25.59375 C 7.109375 -28.820312 4.125 -33.171875 4.125 -38.640625 C 4.125 -41.484375 4.921875 -44.015625 6.515625 -46.234375 C 8.117188 -48.460938 10.421875 -50.203125 13.421875 -51.453125 C 16.421875 -52.710938 19.789062 -53.34375 23.53125 -53.34375 C 27.289062 -53.34375 30.640625 -52.660156 33.578125 -51.296875 C 36.515625 -49.941406 38.796875 -48.019531 40.421875 -45.53125 C 42.046875 -43.050781 42.859375 -40.234375 42.859375 -37.078125 L 32.015625 -37.078125 C 32.015625 -39.484375 31.253906 -41.351562 29.734375 -42.6875 C 28.222656 -44.03125 26.09375 -44.703125 23.34375 -44.703125 C 20.695312 -44.703125 18.640625 -44.140625 17.171875 -43.015625 C 15.703125 -41.898438 14.96875 -40.425781 14.96875 -38.59375 C 14.96875 -36.882812 15.828125 -35.453125 17.546875 -34.296875 C 19.265625 -33.140625 21.800781 -32.054688 25.15625 -31.046875 C 31.320312 -29.191406 35.8125 -26.890625 38.625 -24.140625 C 41.445312 -21.390625 42.859375 -17.96875 42.859375 -13.875 C 42.859375 -9.320312 41.132812 -5.75 37.6875 -3.15625 C 34.25 -0.570312 29.613281 0.71875 23.78125 0.71875 C 19.726562 0.71875 16.039062 -0.0195312 12.71875 -1.5 C 9.394531 -2.976562 6.859375 -5.003906 5.109375 -7.578125 C 3.367188 -10.160156 2.5 -13.148438 2.5 -16.546875 L 13.375 -16.546875 C 13.375 -10.742188 16.84375 -7.84375 23.78125 -7.84375 C 26.351562 -7.84375 28.363281 -8.363281 29.8125 -9.40625 C 31.257812 -10.457031 31.984375 -11.925781 31.984375 -13.8125 Z M 31.984375 -13.8125 "/></g></g></g><g fill="#000000" fill-opacity="1"><g transform="translate(217.386307, 347.331949)"><g><path d="M 20.28125 -7.703125 C 22.207031 -7.703125 23.769531 -8.226562 24.96875 -9.28125 C 26.175781 -10.34375 26.804688 -11.753906 26.859375 -13.515625 L 36.640625 -13.515625 C 36.617188 -10.867188 35.894531 -8.441406 34.46875 -6.234375 C 33.050781 -4.023438 31.109375 -2.3125 28.640625 -1.09375 C 26.171875 0.113281 23.441406 0.71875 20.453125 0.71875 C 14.867188 0.71875 10.460938 -1.054688 7.234375 -4.609375 C 4.003906 -8.160156 2.390625 -13.066406 2.390625 -19.328125 L 2.390625 -20.015625 C 2.390625 -26.046875 3.988281 -30.851562 7.1875 -34.4375 C 10.394531 -38.03125 14.796875 -39.828125 20.390625 -39.828125 C 25.273438 -39.828125 29.191406 -38.4375 32.140625 -35.65625 C 35.097656 -32.875 36.597656 -29.171875 36.640625 -24.546875 L 26.859375 -24.546875 C 26.804688 -26.566406 26.175781 -28.207031 24.96875 -29.46875 C 23.769531 -30.738281 22.179688 -31.375 20.203125 -31.375 C 17.765625 -31.375 15.925781 -30.488281 14.6875 -28.71875 C 13.445312 -26.945312 12.828125 -24.070312 12.828125 -20.09375 L 12.828125 -19.015625 C 12.828125 -14.984375 13.441406 -12.085938 14.671875 -10.328125 C 15.898438 -8.578125 17.769531 -7.703125 20.28125 -7.703125 Z M 20.28125 -7.703125 "/></g></g></g><g fill="#000000" fill-opacity="1"><g transform="translate(255.984296, 347.331949)"><g><path d="M 25.984375 -29.3125 C 24.566406 -29.5 23.3125 -29.59375 22.21875 -29.59375 C 18.269531 -29.59375 15.679688 -28.257812 14.453125 -25.59375 L 14.453125 0 L 4.015625 0 L 4.015625 -39.109375 L 13.875 -39.109375 L 14.171875 -34.4375 C 16.265625 -38.03125 19.164062 -39.828125 22.875 -39.828125 C 24.03125 -39.828125 25.113281 -39.671875 26.125 -39.359375 Z M 25.984375 -29.3125 "/></g></g></g><g fill="#000000" fill-opacity="1"><g transform="translate(282.981204, 347.331949)"><g><path d="M 15.03125 0 L 4.546875 0 L 4.546875 -39.109375 L 15.03125 -39.109375 Z M 3.9375 -49.21875 C 3.9375 -50.789062 4.457031 -52.082031 5.5 -53.09375 C 6.550781 -54.101562 7.984375 -54.609375 9.796875 -54.609375 C 11.578125 -54.609375 13 -54.101562 14.0625 -53.09375 C 15.125 -52.082031 15.65625 -50.789062 15.65625 -49.21875 C 15.65625 -47.632812 15.117188 -46.332031 14.046875 -45.3125 C 12.972656 -44.300781 11.554688 -43.796875 9.796875 -43.796875 C 8.035156 -43.796875 6.617188 -44.300781 5.546875 -45.3125 C 4.472656 -46.332031 3.9375 -47.632812 3.9375 -49.21875 Z M 3.9375 -49.21875 "/></g></g></g><g fill="#000000" fill-opacity="1"><g transform="translate(302.605463, 347.331949)"><g><path d="M 39.21875 -19.1875 C 39.21875 -13.164062 37.847656 -8.34375 35.109375 -4.71875 C 32.378906 -1.09375 28.6875 0.71875 24.03125 0.71875 C 20.082031 0.71875 16.890625 -0.648438 14.453125 -3.390625 L 14.453125 15.03125 L 4.015625 15.03125 L 4.015625 -39.109375 L 13.703125 -39.109375 L 14.0625 -35.265625 C 16.59375 -38.304688 19.894531 -39.828125 23.96875 -39.828125 C 28.78125 -39.828125 32.523438 -38.039062 35.203125 -34.46875 C 37.878906 -30.90625 39.21875 -25.992188 39.21875 -19.734375 Z M 28.765625 -19.953125 C 28.765625 -23.585938 28.117188 -26.390625 26.828125 -28.359375 C 25.546875 -30.335938 23.675781 -31.328125 21.21875 -31.328125 C 17.9375 -31.328125 15.679688 -30.078125 14.453125 -27.578125 L 14.453125 -11.5625 C 15.734375 -8.988281 18.007812 -7.703125 21.28125 -7.703125 C 26.269531 -7.703125 28.765625 -11.785156 28.765625 -19.953125 Z M 28.765625 -19.953125 "/></g></g></g><g fill="#000000" fill-opacity="1"><g transform="translate(344.27539, 347.331949)"><g><path d="M 16.515625 -48.71875 L 16.515625 -39.109375 L 23.203125 -39.109375 L 23.203125 -31.4375 L 16.515625 -31.4375 L 16.515625 -11.921875 C 16.515625 -10.484375 16.789062 -9.445312 17.34375 -8.8125 C 17.894531 -8.1875 18.957031 -7.875 20.53125 -7.875 C 21.6875 -7.875 22.707031 -7.957031 23.59375 -8.125 L 23.59375 -0.21875 C 21.550781 0.40625 19.445312 0.71875 17.28125 0.71875 C 9.945312 0.71875 6.210938 -2.976562 6.078125 -10.375 L 6.078125 -31.4375 L 0.359375 -31.4375 L 0.359375 -39.109375 L 6.078125 -39.109375 L 6.078125 -48.71875 Z M 16.515625 -48.71875 "/></g></g></g></svg>