<svg xmlns="http://www.w3.org/2000/svg" xmlns:xlink="http://www.w3.org/1999/xlink" width="500" zoomAndPan="magnify" viewBox="0 0 375 374.999991" height="500" preserveAspectRatio="xMidYMid meet" version="1.0"><defs><g/><clipPath id="4ca95e853e"><path d="M 49.3125 0 L 325.3125 0 L 325.3125 276 L 49.3125 276 Z M 49.3125 0 " clip-rule="nonzero"/></clipPath></defs><rect x="-37.5" width="450" fill="#ffffff" y="-37.499999" height="449.999989" fill-opacity="1"/><rect x="-37.5" width="450" fill="#f3f6f4" y="-37.499999" height="449.999989" fill-opacity="1"/><g clip-path="url(#4ca95e853e)"><path fill="#007acc" d="M 49.3125 276 L 325.3125 276 L 325.3125 0 L 49.3125 0 Z M 49.3125 276 " fill-opacity="1" fill-rule="nonzero"/></g><path fill="#ffffff" d="M 110.335938 138.90625 L 110.25 150.214844 L 146.171875 150.214844 L 146.171875 252.292969 L 171.582031 252.292969 L 171.582031 150.214844 L 207.507812 150.214844 L 207.507812 139.132812 C 207.507812 132.996094 207.375 127.867188 207.199219 127.734375 C 207.070312 127.5625 185.207031 127.476562 158.699219 127.519531 L 110.464844 127.648438 Z M 110.335938 138.90625 " fill-opacity="1" fill-rule="nonzero"/><path fill="#ffffff" d="M 272.023438 127.335938 C 279.03125 129.082031 284.378906 132.199219 289.28125 137.277344 C 291.816406 139.996094 295.589844 144.941406 295.890625 146.128906 C 295.976562 146.484375 283.976562 154.539062 276.699219 159.054688 C 276.441406 159.226562 275.394531 158.085938 274.210938 156.339844 C 270.664062 151.164062 266.933594 148.933594 261.242188 148.542969 C 252.875 147.972656 247.484375 152.351562 247.527344 159.671875 C 247.527344 161.816406 247.839844 163.089844 248.710938 164.835938 C 250.554688 168.652344 253.972656 170.925781 264.703125 175.574219 C 284.464844 184.066406 292.914062 189.675781 298.175781 197.652344 C 304.042969 206.546875 305.359375 220.734375 301.367188 231.289062 C 296.992188 242.773438 286.125 250.566406 270.835938 253.15625 C 266.101562 253.984375 254.890625 253.855469 249.800781 252.9375 C 238.71875 250.964844 228.207031 245.488281 221.726562 238.308594 C 219.183594 235.503906 214.234375 228.183594 214.535156 227.65625 C 214.675781 227.484375 215.808594 226.785156 217.082031 226.039062 C 218.308594 225.339844 222.957031 222.664062 227.332031 220.121094 L 235.257812 215.527344 L 236.929688 217.976562 C 239.246094 221.523438 244.335938 226.382812 247.398438 228.011719 C 256.207031 232.648438 268.292969 231.992188 274.253906 226.652344 C 276.796875 224.324219 277.84375 221.921875 277.84375 218.375 C 277.84375 215.171875 277.457031 213.769531 275.785156 211.367188 C 273.640625 208.292969 269.261719 205.707031 256.820312 200.328125 C 242.578125 194.191406 236.445312 190.375 230.835938 184.328125 C 227.59375 180.824219 224.53125 175.21875 223.257812 170.527344 C 222.203125 166.636719 221.941406 156.867188 222.773438 152.921875 C 225.714844 139.164062 236.097656 129.570312 251.074219 126.722656 C 255.9375 125.804688 267.246094 126.152344 272.023438 127.335938 Z M 272.023438 127.335938 " fill-opacity="1" fill-rule="nonzero"/><g fill="#000000" fill-opacity="1"><g transform="translate(10.51645, 347.331949)"><g><path d="M 44.3125 -43.84375 L 28.1875 -43.84375 L 28.1875 0 L 17.34375 0 L 17.34375 -43.84375 L 1.453125 -43.84375 L 1.453125 -52.625 L 44.3125 -52.625 Z M 44.3125 -43.84375 "/></g></g></g><g fill="#000000" fill-opacity="1"><g transform="translate(56.306387, 347.331949)"><g><path d="M 18.609375 -14.78125 L 25.84375 -39.109375 L 37.046875 -39.109375 L 21.328125 6.078125 L 20.453125 8.125 C 18.117188 13.238281 14.265625 15.796875 8.890625 15.796875 C 7.367188 15.796875 5.828125 15.566406 4.265625 15.109375 L 4.265625 7.1875 L 5.859375 7.234375 C 7.828125 7.234375 9.300781 6.929688 10.28125 6.328125 C 11.257812 5.722656 12.023438 4.722656 12.578125 3.328125 L 13.8125 0.109375 L 0.109375 -39.109375 L 11.34375 -39.109375 Z M 18.609375 -14.78125 "/></g></g></g><g fill="#000000" fill-opacity="1"><g transform="translate(93.458759, 347.331949)"><g><path d="M 39.21875 -19.1875 C 39.21875 -13.164062 37.847656 -8.34375 35.109375 -4.71875 C 32.378906 -1.09375 28.6875 0.71875 24.03125 0.71875 C 20.082031 0.71875 16.890625 -0.648438 14.453125 -3.390625 L 14.453125 15.03125 L 4.015625 15.03125 L 4.015625 -39.109375 L 13.703125 -39.109375 L 14.0625 -35.265625 C 16.59375 -38.304688 19.894531 -39.828125 23.96875 -39.828125 C 28.78125 -39.828125 32.523438 -38.039062 35.203125 -34.46875 C 37.878906 -30.90625 39.21875 -25.992188 39.21875 -19.734375 Z M 28.765625 -19.953125 C 28.765625 -23.585938 28.117188 -26.390625 26.828125 -28.359375 C 25.546875 -30.335938 23.675781 -31.328125 21.21875 -31.328125 C 17.9375 -31.328125 15.679688 -30.078125 14.453125 -27.578125 L 14.453125 -11.5625 C 15.734375 -8.988281 18.007812 -7.703125 21.28125 -7.703125 C 26.269531 -7.703125 28.765625 -11.785156 28.765625 -19.953125 Z M 28.765625 -19.953125 "/></g></g></g><g fill="#000000" fill-opacity="1"><g transform="translate(135.128686, 347.331949)"><g><path d="M 22.015625 0.71875 C 16.273438 0.71875 11.601562 -1.035156 8 -4.546875 C 4.40625 -8.066406 2.609375 -12.753906 2.609375 -18.609375 L 2.609375 -19.625 C 2.609375 -23.550781 3.363281 -27.0625 4.875 -30.15625 C 6.394531 -33.25 8.546875 -35.632812 11.328125 -37.3125 C 14.109375 -38.988281 17.285156 -39.828125 20.859375 -39.828125 C 26.203125 -39.828125 30.410156 -38.140625 33.484375 -34.765625 C 36.554688 -31.390625 38.09375 -26.609375 38.09375 -20.421875 L 38.09375 -16.15625 L 13.1875 -16.15625 C 13.53125 -13.601562 14.550781 -11.554688 16.25 -10.015625 C 17.945312 -8.472656 20.097656 -7.703125 22.703125 -7.703125 C 26.722656 -7.703125 29.863281 -9.160156 32.125 -12.078125 L 37.265625 -6.328125 C 35.691406 -4.109375 33.566406 -2.378906 30.890625 -1.140625 C 28.222656 0.0976562 25.265625 0.71875 22.015625 0.71875 Z M 20.8125 -31.375 C 18.738281 -31.375 17.054688 -30.671875 15.765625 -29.265625 C 14.484375 -27.867188 13.660156 -25.875 13.296875 -23.28125 L 27.828125 -23.28125 L 27.828125 -24.109375 C 27.773438 -26.421875 27.144531 -28.207031 25.9375 -29.46875 C 24.738281 -30.738281 23.03125 -31.375 20.8125 -31.375 Z M 20.8125 -31.375 "/></g></g></g><g fill="#000000" fill-opacity="1"><g transform="translate(175.136152, 347.331949)"><g><path d="M 31.984375 -13.8125 C 31.984375 -15.851562 31.257812 -17.421875 29.8125 -18.515625 C 28.363281 -19.617188 25.757812 -20.773438 22 -21.984375 C 18.25 -23.203125 15.273438 -24.40625 13.078125 -25.59375 C 7.109375 -28.820312 4.125 -33.171875 4.125 -38.640625 C 4.125 -41.484375 4.921875 -44.015625 6.515625 -46.234375 C 8.117188 -48.460938 10.421875 -50.203125 13.421875 -51.453125 C 16.421875 -52.710938 19.789062 -53.34375 23.53125 -53.34375 C 27.289062 -53.34375 30.640625 -52.660156 33.578125 -51.296875 C 36.515625 -49.941406 38.796875 -48.019531 40.421875 -45.53125 C 42.046875 -43.050781 42.859375 -40.234375 42.859375 -37.078125 L 32.015625 -37.078125 C 32.015625 -39.484375 31.253906 -41.351562 29.734375 -42.6875 C 28.222656 -44.03125 26.09375 -44.703125 23.34375 -44.703125 C 20.695312 -44.703125 18.640625 -44.140625 17.171875 -43.015625 C 15.703125 -41.898438 14.96875 -40.425781 14.96875 -38.59375 C 14.96875 -36.882812 15.828125 -35.453125 17.546875 -34.296875 C 19.265625 -33.140625 21.800781 -32.054688 25.15625 -31.046875 C 31.320312 -29.191406 35.8125 -26.890625 38.625 -24.140625 C 41.445312 -21.390625 42.859375 -17.96875 42.859375 -13.875 C 42.859375 -9.320312 41.132812 -5.75 37.6875 -3.15625 C 34.25 -0.570312 29.613281 0.71875 23.78125 0.71875 C 19.726562 0.71875 16.039062 -0.0195312 12.71875 -1.5 C 9.394531 -2.976562 6.859375 -5.003906 5.109375 -7.578125 C 3.367188 -10.160156 2.5 -13.148438 2.5 -16.546875 L 13.375 -16.546875 C 13.375 -10.742188 16.84375 -7.84375 23.78125 -7.84375 C 26.351562 -7.84375 28.363281 -8.363281 29.8125 -9.40625 C 31.257812 -10.457031 31.984375 -11.925781 31.984375 -13.8125 Z M 31.984375 -13.8125 "/></g></g></g><g fill="#000000" fill-opacity="1"><g transform="translate(220.636965, 347.331949)"><g><path d="M 20.28125 -7.703125 C 22.207031 -7.703125 23.769531 -8.226562 24.96875 -9.28125 C 26.175781 -10.34375 26.804688 -11.753906 26.859375 -13.515625 L 36.640625 -13.515625 C 36.617188 -10.867188 35.894531 -8.441406 34.46875 -6.234375 C 33.050781 -4.023438 31.109375 -2.3125 28.640625 -1.09375 C 26.171875 0.113281 23.441406 0.71875 20.453125 0.71875 C 14.867188 0.71875 10.460938 -1.054688 7.234375 -4.609375 C 4.003906 -8.160156 2.390625 -13.066406 2.390625 -19.328125 L 2.390625 -20.015625 C 2.390625 -26.046875 3.988281 -30.851562 7.1875 -34.4375 C 10.394531 -38.03125 14.796875 -39.828125 20.390625 -39.828125 C 25.273438 -39.828125 29.191406 -38.4375 32.140625 -35.65625 C 35.097656 -32.875 36.597656 -29.171875 36.640625 -24.546875 L 26.859375 -24.546875 C 26.804688 -26.566406 26.175781 -28.207031 24.96875 -29.46875 C 23.769531 -30.738281 22.179688 -31.375 20.203125 -31.375 C 17.765625 -31.375 15.925781 -30.488281 14.6875 -28.71875 C 13.445312 -26.945312 12.828125 -24.070312 12.828125 -20.09375 L 12.828125 -19.015625 C 12.828125 -14.984375 13.441406 -12.085938 14.671875 -10.328125 C 15.898438 -8.578125 17.769531 -7.703125 20.28125 -7.703125 Z M 20.28125 -7.703125 "/></g></g></g><g fill="#000000" fill-opacity="1"><g transform="translate(259.234954, 347.331949)"><g><path d="M 25.984375 -29.3125 C 24.566406 -29.5 23.3125 -29.59375 22.21875 -29.59375 C 18.269531 -29.59375 15.679688 -28.257812 14.453125 -25.59375 L 14.453125 0 L 4.015625 0 L 4.015625 -39.109375 L 13.875 -39.109375 L 14.171875 -34.4375 C 16.265625 -38.03125 19.164062 -39.828125 22.875 -39.828125 C 24.03125 -39.828125 25.113281 -39.671875 26.125 -39.359375 Z M 25.984375 -29.3125 "/></g></g></g><g fill="#000000" fill-opacity="1"><g transform="translate(286.231863, 347.331949)"><g><path d="M 15.03125 0 L 4.546875 0 L 4.546875 -39.109375 L 15.03125 -39.109375 Z M 3.9375 -49.21875 C 3.9375 -50.789062 4.457031 -52.082031 5.5 -53.09375 C 6.550781 -54.101562 7.984375 -54.609375 9.796875 -54.609375 C 11.578125 -54.609375 13 -54.101562 14.0625 -53.09375 C 15.125 -52.082031 15.65625 -50.789062 15.65625 -49.21875 C 15.65625 -47.632812 15.117188 -46.332031 14.046875 -45.3125 C 12.972656 -44.300781 11.554688 -43.796875 9.796875 -43.796875 C 8.035156 -43.796875 6.617188 -44.300781 5.546875 -45.3125 C 4.472656 -46.332031 3.9375 -47.632812 3.9375 -49.21875 Z M 3.9375 -49.21875 "/></g></g></g><g fill="#000000" fill-opacity="1"><g transform="translate(305.856121, 347.331949)"><g><path d="M 39.21875 -19.1875 C 39.21875 -13.164062 37.847656 -8.34375 35.109375 -4.71875 C 32.378906 -1.09375 28.6875 0.71875 24.03125 0.71875 C 20.082031 0.71875 16.890625 -0.648438 14.453125 -3.390625 L 14.453125 15.03125 L 4.015625 15.03125 L 4.015625 -39.109375 L 13.703125 -39.109375 L 14.0625 -35.265625 C 16.59375 -38.304688 19.894531 -39.828125 23.96875 -39.828125 C 28.78125 -39.828125 32.523438 -38.039062 35.203125 -34.46875 C 37.878906 -30.90625 39.21875 -25.992188 39.21875 -19.734375 Z M 28.765625 -19.953125 C 28.765625 -23.585938 28.117188 -26.390625 26.828125 -28.359375 C 25.546875 -30.335938 23.675781 -31.328125 21.21875 -31.328125 C 17.9375 -31.328125 15.679688 -30.078125 14.453125 -27.578125 L 14.453125 -11.5625 C 15.734375 -8.988281 18.007812 -7.703125 21.28125 -7.703125 C 26.269531 -7.703125 28.765625 -11.785156 28.765625 -19.953125 Z M 28.765625 -19.953125 "/></g></g></g><g fill="#000000" fill-opacity="1"><g transform="translate(347.526048, 347.331949)"><g><path d="M 16.515625 -48.71875 L 16.515625 -39.109375 L 23.203125 -39.109375 L 23.203125 -31.4375 L 16.515625 -31.4375 L 16.515625 -11.921875 C 16.515625 -10.484375 16.789062 -9.445312 17.34375 -8.8125 C 17.894531 -8.1875 18.957031 -7.875 20.53125 -7.875 C 21.6875 -7.875 22.707031 -7.957031 23.59375 -8.125 L 23.59375 -0.21875 C 21.550781 0.40625 19.445312 0.71875 17.28125 0.71875 C 9.945312 0.71875 6.210938 -2.976562 6.078125 -10.375 L 6.078125 -31.4375 L 0.359375 -31.4375 L 0.359375 -39.109375 L 6.078125 -39.109375 L 6.078125 -48.71875 Z M 16.515625 -48.71875 "/></g></g></g></svg>