<svg xmlns="http://www.w3.org/2000/svg" xmlns:xlink="http://www.w3.org/1999/xlink" width="500" zoomAndPan="magnify" viewBox="0 0 375 374.999991" height="500" preserveAspectRatio="xMidYMid meet" version="1.0"><defs><g/><clipPath id="1bd25e4c14"><path d="M 49.3125 0 L 325.3125 0 L 325.3125 276 L 49.3125 276 Z M 49.3125 0 " clip-rule="nonzero"/></clipPath></defs><rect x="-37.5" width="450" fill="#ffffff" y="-37.499999" height="449.999989" fill-opacity="1"/><rect x="-37.5" width="450" fill="#f3f6f4" y="-37.499999" height="449.999989" fill-opacity="1"/><g clip-path="url(#1bd25e4c14)"><path fill="#673ab7" d="M 325.3125 237.667969 C 325.3125 258.84375 308.15625 276 286.980469 276 L 87.648438 276 C 66.480469 276 49.3125 258.84375 49.3125 237.667969 L 49.3125 38.332031 C 49.3125 17.15625 66.480469 0 87.648438 0 L 286.980469 0 C 308.15625 0 325.3125 17.15625 325.3125 38.332031 Z M 325.3125 237.667969 " fill-opacity="1" fill-rule="nonzero"/></g><path fill="#ffffff" d="M 256.542969 150.265625 C 251.558594 143.367188 244.355469 138.613281 235.078125 136.082031 C 235.078125 136.082031 242.898438 133.246094 249.949219 122.667969 C 254.167969 115.921875 256.3125 107.792969 256.3125 98.285156 C 256.3125 81.804688 250.332031 69.152344 238.375 60.488281 C 226.414062 51.828125 212.921875 46 189.996094 46 L 118.3125 46 L 118.3125 230 L 198.277344 230 C 219.972656 229.847656 236.304688 225.171875 247.421875 216.199219 C 258.460938 207.078125 263.980469 193.582031 263.980469 175.566406 C 263.980469 165.601562 261.527344 157.167969 256.542969 150.265625 Z M 164.3125 76.667969 C 164.3125 76.667969 196.285156 76.667969 196.898438 76.667969 C 208.550781 76.667969 217.980469 86.097656 217.980469 97.75 C 217.980469 109.402344 208.550781 118.832031 196.898438 118.832031 C 196.285156 118.832031 164.3125 118.832031 164.3125 118.832031 Z M 202.648438 199.332031 L 164.3125 199.332031 L 164.3125 153.332031 L 202.648438 153.332031 C 215.375 153.332031 225.648438 163.605469 225.648438 176.332031 C 225.648438 189.058594 215.375 199.332031 202.648438 199.332031 Z M 202.648438 199.332031 " fill-opacity="1" fill-rule="nonzero"/><g fill="#000000" fill-opacity="1"><g transform="translate(27.844221, 347.332009)"><g><path d="M 4.703125 0 L 4.703125 -52.625 L 23.125 -52.625 C 29.507812 -52.625 34.351562 -51.398438 37.65625 -48.953125 C 40.957031 -46.503906 42.609375 -42.921875 42.609375 -38.203125 C 42.609375 -35.617188 41.945312 -33.34375 40.625 -31.375 C 39.300781 -29.414062 37.457031 -27.976562 35.09375 -27.0625 C 37.789062 -26.394531 39.914062 -25.035156 41.46875 -22.984375 C 43.019531 -20.929688 43.796875 -18.425781 43.796875 -15.46875 C 43.796875 -10.40625 42.179688 -6.570312 38.953125 -3.96875 C 35.722656 -1.375 31.125 -0.0507812 25.15625 0 Z M 15.546875 -22.90625 L 15.546875 -8.703125 L 24.828125 -8.703125 C 27.378906 -8.703125 29.367188 -9.3125 30.796875 -10.53125 C 32.234375 -11.75 32.953125 -13.429688 32.953125 -15.578125 C 32.953125 -20.390625 30.460938 -22.832031 25.484375 -22.90625 Z M 15.546875 -30.578125 L 23.5625 -30.578125 C 29.03125 -30.671875 31.765625 -32.847656 31.765625 -37.109375 C 31.765625 -39.492188 31.070312 -41.210938 29.6875 -42.265625 C 28.300781 -43.316406 26.113281 -43.84375 23.125 -43.84375 L 15.546875 -43.84375 Z M 15.546875 -30.578125 "/></g></g></g><g fill="#000000" fill-opacity="1"><g transform="translate(75.079776, 347.332009)"><g><path d="M 2.390625 -19.90625 C 2.390625 -23.789062 3.132812 -27.25 4.625 -30.28125 C 6.113281 -33.320312 8.257812 -35.671875 11.0625 -37.328125 C 13.875 -38.992188 17.140625 -39.828125 20.859375 -39.828125 C 26.128906 -39.828125 30.429688 -38.210938 33.765625 -34.984375 C 37.109375 -31.753906 38.972656 -27.367188 39.359375 -21.828125 L 39.421875 -19.15625 C 39.421875 -13.15625 37.742188 -8.34375 34.390625 -4.71875 C 31.046875 -1.09375 26.554688 0.71875 20.921875 0.71875 C 15.285156 0.71875 10.785156 -1.085938 7.421875 -4.703125 C 4.066406 -8.316406 2.390625 -13.226562 2.390625 -19.4375 Z M 12.828125 -19.15625 C 12.828125 -15.445312 13.523438 -12.609375 14.921875 -10.640625 C 16.316406 -8.679688 18.316406 -7.703125 20.921875 -7.703125 C 23.453125 -7.703125 25.425781 -8.671875 26.84375 -10.609375 C 28.269531 -12.546875 28.984375 -15.644531 28.984375 -19.90625 C 28.984375 -23.550781 28.269531 -26.375 26.84375 -28.375 C 25.425781 -30.375 23.429688 -31.375 20.859375 -31.375 C 18.296875 -31.375 16.316406 -30.378906 14.921875 -28.390625 C 13.523438 -26.398438 12.828125 -23.320312 12.828125 -19.15625 Z M 12.828125 -19.15625 "/></g></g></g><g fill="#000000" fill-opacity="1"><g transform="translate(116.930404, 347.332009)"><g><path d="M 2.390625 -19.90625 C 2.390625 -23.789062 3.132812 -27.25 4.625 -30.28125 C 6.113281 -33.320312 8.257812 -35.671875 11.0625 -37.328125 C 13.875 -38.992188 17.140625 -39.828125 20.859375 -39.828125 C 26.128906 -39.828125 30.429688 -38.210938 33.765625 -34.984375 C 37.109375 -31.753906 38.972656 -27.367188 39.359375 -21.828125 L 39.421875 -19.15625 C 39.421875 -13.15625 37.742188 -8.34375 34.390625 -4.71875 C 31.046875 -1.09375 26.554688 0.71875 20.921875 0.71875 C 15.285156 0.71875 10.785156 -1.085938 7.421875 -4.703125 C 4.066406 -8.316406 2.390625 -13.226562 2.390625 -19.4375 Z M 12.828125 -19.15625 C 12.828125 -15.445312 13.523438 -12.609375 14.921875 -10.640625 C 16.316406 -8.679688 18.316406 -7.703125 20.921875 -7.703125 C 23.453125 -7.703125 25.425781 -8.671875 26.84375 -10.609375 C 28.269531 -12.546875 28.984375 -15.644531 28.984375 -19.90625 C 28.984375 -23.550781 28.269531 -26.375 26.84375 -28.375 C 25.425781 -30.375 23.429688 -31.375 20.859375 -31.375 C 18.296875 -31.375 16.316406 -30.378906 14.921875 -28.390625 C 13.523438 -26.398438 12.828125 -23.320312 12.828125 -19.15625 Z M 12.828125 -19.15625 "/></g></g></g><g fill="#000000" fill-opacity="1"><g transform="translate(158.781033, 347.332009)"><g><path d="M 16.515625 -48.71875 L 16.515625 -39.109375 L 23.203125 -39.109375 L 23.203125 -31.4375 L 16.515625 -31.4375 L 16.515625 -11.921875 C 16.515625 -10.484375 16.789062 -9.445312 17.34375 -8.8125 C 17.894531 -8.1875 18.957031 -7.875 20.53125 -7.875 C 21.6875 -7.875 22.707031 -7.957031 23.59375 -8.125 L 23.59375 -0.21875 C 21.550781 0.40625 19.445312 0.71875 17.28125 0.71875 C 9.945312 0.71875 6.210938 -2.976562 6.078125 -10.375 L 6.078125 -31.4375 L 0.359375 -31.4375 L 0.359375 -39.109375 L 6.078125 -39.109375 L 6.078125 -48.71875 Z M 16.515625 -48.71875 "/></g></g></g><g fill="#000000" fill-opacity="1"><g transform="translate(183.790217, 347.332009)"><g><path d="M 25.1875 -10.8125 C 25.1875 -12.082031 24.550781 -13.082031 23.28125 -13.8125 C 22.019531 -14.550781 19.992188 -15.210938 17.203125 -15.796875 C 7.898438 -17.742188 3.25 -21.691406 3.25 -27.640625 C 3.25 -31.117188 4.6875 -34.019531 7.5625 -36.34375 C 10.445312 -38.664062 14.210938 -39.828125 18.859375 -39.828125 C 23.828125 -39.828125 27.796875 -38.65625 30.765625 -36.3125 C 33.742188 -33.976562 35.234375 -30.945312 35.234375 -27.21875 L 24.796875 -27.21875 C 24.796875 -28.707031 24.3125 -29.9375 23.34375 -30.90625 C 22.382812 -31.882812 20.878906 -32.375 18.828125 -32.375 C 17.066406 -32.375 15.703125 -31.976562 14.734375 -31.1875 C 13.773438 -30.394531 13.296875 -29.382812 13.296875 -28.15625 C 13.296875 -27 13.84375 -26.0625 14.9375 -25.34375 C 16.039062 -24.632812 17.890625 -24.019531 20.484375 -23.5 C 23.085938 -22.988281 25.28125 -22.40625 27.0625 -21.75 C 32.582031 -19.726562 35.34375 -16.222656 35.34375 -11.234375 C 35.34375 -7.671875 33.8125 -4.785156 30.75 -2.578125 C 27.695312 -0.378906 23.75 0.71875 18.90625 0.71875 C 15.625 0.71875 12.710938 0.132812 10.171875 -1.03125 C 7.628906 -2.195312 5.632812 -3.796875 4.1875 -5.828125 C 2.75 -7.867188 2.03125 -10.070312 2.03125 -12.4375 L 11.921875 -12.4375 C 12.023438 -10.582031 12.710938 -9.160156 13.984375 -8.171875 C 15.265625 -7.179688 16.976562 -6.6875 19.125 -6.6875 C 21.125 -6.6875 22.632812 -7.066406 23.65625 -7.828125 C 24.675781 -8.585938 25.1875 -9.582031 25.1875 -10.8125 Z M 25.1875 -10.8125 "/></g></g></g><g fill="#000000" fill-opacity="1"><g transform="translate(221.8461, 347.332009)"><g><path d="M 16.515625 -48.71875 L 16.515625 -39.109375 L 23.203125 -39.109375 L 23.203125 -31.4375 L 16.515625 -31.4375 L 16.515625 -11.921875 C 16.515625 -10.484375 16.789062 -9.445312 17.34375 -8.8125 C 17.894531 -8.1875 18.957031 -7.875 20.53125 -7.875 C 21.6875 -7.875 22.707031 -7.957031 23.59375 -8.125 L 23.59375 -0.21875 C 21.550781 0.40625 19.445312 0.71875 17.28125 0.71875 C 9.945312 0.71875 6.210938 -2.976562 6.078125 -10.375 L 6.078125 -31.4375 L 0.359375 -31.4375 L 0.359375 -39.109375 L 6.078125 -39.109375 L 6.078125 -48.71875 Z M 16.515625 -48.71875 "/></g></g></g><g fill="#000000" fill-opacity="1"><g transform="translate(246.855284, 347.332009)"><g><path d="M 25.984375 -29.3125 C 24.566406 -29.5 23.3125 -29.59375 22.21875 -29.59375 C 18.269531 -29.59375 15.679688 -28.257812 14.453125 -25.59375 L 14.453125 0 L 4.015625 0 L 4.015625 -39.109375 L 13.875 -39.109375 L 14.171875 -34.4375 C 16.265625 -38.03125 19.164062 -39.828125 22.875 -39.828125 C 24.03125 -39.828125 25.113281 -39.671875 26.125 -39.359375 Z M 25.984375 -29.3125 "/></g></g></g><g fill="#000000" fill-opacity="1"><g transform="translate(273.852192, 347.332009)"><g><path d="M 26.671875 0 C 26.191406 -0.9375 25.84375 -2.101562 25.625 -3.5 C 23.09375 -0.6875 19.800781 0.71875 15.75 0.71875 C 11.925781 0.71875 8.753906 -0.382812 6.234375 -2.59375 C 3.710938 -4.8125 2.453125 -7.609375 2.453125 -10.984375 C 2.453125 -15.128906 3.988281 -18.3125 7.0625 -20.53125 C 10.132812 -22.75 14.578125 -23.867188 20.390625 -23.890625 L 25.1875 -23.890625 L 25.1875 -26.125 C 25.1875 -27.9375 24.722656 -29.382812 23.796875 -30.46875 C 22.867188 -31.550781 21.40625 -32.09375 19.40625 -32.09375 C 17.644531 -32.09375 16.265625 -31.671875 15.265625 -30.828125 C 14.265625 -29.984375 13.765625 -28.828125 13.765625 -27.359375 L 3.328125 -27.359375 C 3.328125 -29.617188 4.023438 -31.710938 5.421875 -33.640625 C 6.816406 -35.566406 8.789062 -37.078125 11.34375 -38.171875 C 13.894531 -39.273438 16.765625 -39.828125 19.953125 -39.828125 C 24.765625 -39.828125 28.585938 -38.613281 31.421875 -36.1875 C 34.253906 -33.769531 35.671875 -30.367188 35.671875 -25.984375 L 35.671875 -9.03125 C 35.691406 -5.320312 36.207031 -2.515625 37.21875 -0.609375 L 37.21875 0 Z M 18.03125 -7.265625 C 19.570312 -7.265625 20.992188 -7.609375 22.296875 -8.296875 C 23.597656 -8.984375 24.5625 -9.90625 25.1875 -11.0625 L 25.1875 -17.78125 L 21.28125 -17.78125 C 16.050781 -17.78125 13.269531 -15.972656 12.9375 -12.359375 L 12.90625 -11.75 C 12.90625 -10.445312 13.363281 -9.375 14.28125 -8.53125 C 15.195312 -7.6875 16.445312 -7.265625 18.03125 -7.265625 Z M 18.03125 -7.265625 "/></g></g></g><g fill="#000000" fill-opacity="1"><g transform="translate(313.534395, 347.332009)"><g><path d="M 39.21875 -19.1875 C 39.21875 -13.164062 37.847656 -8.34375 35.109375 -4.71875 C 32.378906 -1.09375 28.6875 0.71875 24.03125 0.71875 C 20.082031 0.71875 16.890625 -0.648438 14.453125 -3.390625 L 14.453125 15.03125 L 4.015625 15.03125 L 4.015625 -39.109375 L 13.703125 -39.109375 L 14.0625 -35.265625 C 16.59375 -38.304688 19.894531 -39.828125 23.96875 -39.828125 C 28.78125 -39.828125 32.523438 -38.039062 35.203125 -34.46875 C 37.878906 -30.90625 39.21875 -25.992188 39.21875 -19.734375 Z M 28.765625 -19.953125 C 28.765625 -23.585938 28.117188 -26.390625 26.828125 -28.359375 C 25.546875 -30.335938 23.675781 -31.328125 21.21875 -31.328125 C 17.9375 -31.328125 15.679688 -30.078125 14.453125 -27.578125 L 14.453125 -11.5625 C 15.734375 -8.988281 18.007812 -7.703125 21.28125 -7.703125 C 26.269531 -7.703125 28.765625 -11.785156 28.765625 -19.953125 Z M 28.765625 -19.953125 "/></g></g></g></svg>