<svg xmlns="http://www.w3.org/2000/svg" xmlns:xlink="http://www.w3.org/1999/xlink" width="500" zoomAndPan="magnify" viewBox="0 0 375 374.999991" height="500" preserveAspectRatio="xMidYMid meet" version="1.0"><defs><g/><clipPath id="dc937519da"><path d="M 83 0 L 292 0 L 292 278.25 L 83 278.25 Z M 83 0 " clip-rule="nonzero"/></clipPath></defs><rect x="-37.5" width="450" fill="#ffffff" y="-37.499999" height="449.999989" fill-opacity="1"/><rect x="-37.5" width="450" fill="#f3f6f4" y="-37.499999" height="449.999989" fill-opacity="1"/><g clip-path="url(#dc937519da)"><path fill="#3498db" d="M 83.164062 272.03125 C 83.164062 265.871094 83.164062 105.128906 83.164062 6.160156 C 83.164062 0 89.503906 0 89.503906 0 L 233.925781 0 L 291.914062 57.96875 C 291.914062 57.96875 291.914062 265.871094 291.914062 272.089844 C 291.914062 278.25 285.570312 278.25 285.570312 278.25 L 89.503906 278.25 C 89.503906 278.25 83.164062 278.25 83.164062 272.03125 Z M 83.164062 272.03125 " fill-opacity="1" fill-rule="evenodd"/></g><path fill="#ecf0f1" d="M 94.761719 11.59375 L 233.925781 11.59375 L 280.316406 57.96875 L 280.316406 266.65625 L 94.761719 266.65625 Z M 94.761719 11.59375 " fill-opacity="1" fill-rule="evenodd"/><path fill="#2980b9" d="M 233.925781 0 L 233.925781 52.171875 C 233.925781 57.96875 239.726562 57.96875 239.726562 57.96875 L 291.914062 57.96875 Z M 233.925781 0 " fill-opacity="1" fill-rule="evenodd"/><path fill="#2980b9" d="M 116.382812 116.542969 L 155.164062 116.542969 C 168.691406 116.542969 178.355469 118.777344 184.15625 123.183594 C 189.894531 127.589844 192.792969 135.019531 192.792969 145.40625 C 192.792969 157.179688 188.925781 166.296875 181.195312 172.820312 C 173.464844 179.402344 162.652344 182.660156 148.699219 182.660156 L 139.09375 182.660156 L 139.09375 225.234375 L 116.382812 225.234375 Z M 139.09375 167.746094 L 143.566406 167.746094 C 151.476562 167.746094 157.757812 165.933594 162.351562 162.3125 C 166.941406 158.75 169.234375 153.859375 169.234375 147.699219 C 169.234375 136.890625 162.167969 131.457031 148.09375 131.457031 L 139.09375 131.457031 Z M 197.867188 222.695312 L 197.867188 206.753906 C 208.859375 211.222656 218.28125 213.519531 226.132812 213.519531 C 235.253906 213.519531 239.785156 210.4375 239.785156 204.398438 C 239.785156 200.476562 236.039062 197.035156 228.488281 194.136719 L 221 191.175781 C 212.847656 187.914062 206.988281 184.472656 203.484375 180.730469 C 199.980469 177.046875 198.230469 172.398438 198.230469 166.902344 C 198.230469 159.292969 201.1875 153.375 207.167969 149.089844 C 213.148438 144.863281 221.484375 142.746094 232.175781 142.746094 C 238.878906 142.746094 246.914062 143.714844 256.152344 145.644531 L 256.152344 160.921875 C 247.273438 157.84375 239.847656 156.335938 233.988281 156.335938 C 224.804688 156.335938 220.15625 159.171875 220.15625 164.726562 C 220.15625 168.410156 223.597656 171.492188 230.363281 174.027344 L 236.824219 176.503906 C 246.550781 180.066406 253.253906 183.6875 257.058594 187.371094 C 260.804688 191.054688 262.675781 195.765625 262.675781 201.5 C 262.675781 209.109375 259.476562 215.269531 253.074219 219.980469 C 246.609375 224.75 238.214844 227.105469 227.886719 227.105469 C 217.980469 227.105469 207.953125 225.59375 197.867188 222.695312 C 197.867188 222.695312 207.953125 225.59375 197.867188 222.695312 Z M 197.867188 222.695312 " fill-opacity="1" fill-rule="evenodd"/><g fill="#000000" fill-opacity="1"><g transform="translate(2.214848, 349.381969)"><g><path d="M 15.953125 -19.046875 L 15.953125 0 L 4.828125 0 L 4.828125 -54.046875 L 25.90625 -54.046875 C 29.96875 -54.046875 33.535156 -53.300781 36.609375 -51.8125 C 39.691406 -50.332031 42.0625 -48.222656 43.71875 -45.484375 C 45.375 -42.753906 46.203125 -39.644531 46.203125 -36.15625 C 46.203125 -30.851562 44.390625 -26.675781 40.765625 -23.625 C 37.140625 -20.570312 32.125 -19.046875 25.71875 -19.046875 Z M 15.953125 -28.0625 L 25.90625 -28.0625 C 28.851562 -28.0625 31.097656 -28.753906 32.640625 -30.140625 C 34.191406 -31.523438 34.96875 -33.503906 34.96875 -36.078125 C 34.96875 -38.722656 34.1875 -40.863281 32.625 -42.5 C 31.0625 -44.132812 28.910156 -44.972656 26.171875 -45.015625 L 15.953125 -45.015625 Z M 15.953125 -28.0625 "/></g></g></g><g fill="#000000" fill-opacity="1"><g transform="translate(51.241368, 349.381969)"><g><path d="M 14.59375 -35.78125 C 17.4375 -39.195312 21.007812 -40.90625 25.3125 -40.90625 C 34.019531 -40.90625 38.4375 -35.84375 38.5625 -25.71875 L 38.5625 0 L 27.84375 0 L 27.84375 -25.421875 C 27.84375 -27.722656 27.347656 -29.425781 26.359375 -30.53125 C 25.367188 -31.632812 23.722656 -32.1875 21.421875 -32.1875 C 18.273438 -32.1875 16 -30.972656 14.59375 -28.546875 L 14.59375 0 L 3.859375 0 L 3.859375 -57.015625 L 14.59375 -57.015625 Z M 14.59375 -35.78125 "/></g></g></g><g fill="#000000" fill-opacity="1"><g transform="translate(93.773081, 349.381969)"><g><path d="M 2.453125 -20.453125 C 2.453125 -24.429688 3.21875 -27.976562 4.75 -31.09375 C 6.28125 -34.21875 8.488281 -36.632812 11.375 -38.34375 C 14.257812 -40.050781 17.609375 -40.90625 21.421875 -40.90625 C 26.835938 -40.90625 31.257812 -39.242188 34.6875 -35.921875 C 38.113281 -32.609375 40.023438 -28.109375 40.421875 -22.421875 L 40.5 -19.671875 C 40.5 -13.515625 38.773438 -8.570312 35.328125 -4.84375 C 31.890625 -1.113281 27.273438 0.75 21.484375 0.75 C 15.703125 0.75 11.082031 -1.101562 7.625 -4.8125 C 4.175781 -8.53125 2.453125 -13.582031 2.453125 -19.96875 Z M 13.171875 -19.671875 C 13.171875 -15.859375 13.890625 -12.941406 15.328125 -10.921875 C 16.765625 -8.910156 18.816406 -7.90625 21.484375 -7.90625 C 24.085938 -7.90625 26.117188 -8.898438 27.578125 -10.890625 C 29.035156 -12.878906 29.765625 -16.066406 29.765625 -20.453125 C 29.765625 -24.191406 29.035156 -27.085938 27.578125 -29.140625 C 26.117188 -31.191406 24.066406 -32.21875 21.421875 -32.21875 C 18.796875 -32.21875 16.765625 -31.195312 15.328125 -29.15625 C 13.890625 -27.113281 13.171875 -23.953125 13.171875 -19.671875 Z M 13.171875 -19.671875 "/></g></g></g><g fill="#000000" fill-opacity="1"><g transform="translate(136.750152, 349.381969)"><g><path d="M 16.96875 -50.03125 L 16.96875 -40.15625 L 23.828125 -40.15625 L 23.828125 -32.296875 L 16.96875 -32.296875 L 16.96875 -12.25 C 16.96875 -10.757812 17.25 -9.691406 17.8125 -9.046875 C 18.382812 -8.410156 19.472656 -8.09375 21.078125 -8.09375 C 22.265625 -8.09375 23.316406 -8.175781 24.234375 -8.34375 L 24.234375 -0.21875 C 22.128906 0.425781 19.960938 0.75 17.734375 0.75 C 10.210938 0.75 6.378906 -3.050781 6.234375 -10.65625 L 6.234375 -32.296875 L 0.375 -32.296875 L 0.375 -40.15625 L 6.234375 -40.15625 L 6.234375 -50.03125 Z M 16.96875 -50.03125 "/></g></g></g><g fill="#000000" fill-opacity="1"><g transform="translate(162.432478, 349.381969)"><g><path d="M 2.453125 -20.453125 C 2.453125 -24.429688 3.21875 -27.976562 4.75 -31.09375 C 6.28125 -34.21875 8.488281 -36.632812 11.375 -38.34375 C 14.257812 -40.050781 17.609375 -40.90625 21.421875 -40.90625 C 26.835938 -40.90625 31.257812 -39.242188 34.6875 -35.921875 C 38.113281 -32.609375 40.023438 -28.109375 40.421875 -22.421875 L 40.5 -19.671875 C 40.5 -13.515625 38.773438 -8.570312 35.328125 -4.84375 C 31.890625 -1.113281 27.273438 0.75 21.484375 0.75 C 15.703125 0.75 11.082031 -1.101562 7.625 -4.8125 C 4.175781 -8.53125 2.453125 -13.582031 2.453125 -19.96875 Z M 13.171875 -19.671875 C 13.171875 -15.859375 13.890625 -12.941406 15.328125 -10.921875 C 16.765625 -8.910156 18.816406 -7.90625 21.484375 -7.90625 C 24.085938 -7.90625 26.117188 -8.898438 27.578125 -10.890625 C 29.035156 -12.878906 29.765625 -16.066406 29.765625 -20.453125 C 29.765625 -24.191406 29.035156 -27.085938 27.578125 -29.140625 C 26.117188 -31.191406 24.066406 -32.21875 21.421875 -32.21875 C 18.796875 -32.21875 16.765625 -31.195312 15.328125 -29.15625 C 13.890625 -27.113281 13.171875 -23.953125 13.171875 -19.671875 Z M 13.171875 -19.671875 "/></g></g></g><g fill="#000000" fill-opacity="1"><g transform="translate(205.409537, 349.381969)"><g><path d="M 25.875 -11.09375 C 25.875 -12.40625 25.222656 -13.4375 23.921875 -14.1875 C 22.617188 -14.945312 20.535156 -15.625 17.671875 -16.21875 C 8.117188 -18.226562 3.34375 -22.285156 3.34375 -28.390625 C 3.34375 -31.953125 4.820312 -34.925781 7.78125 -37.3125 C 10.738281 -39.707031 14.601562 -40.90625 19.375 -40.90625 C 24.46875 -40.90625 28.539062 -39.703125 31.59375 -37.296875 C 34.65625 -34.898438 36.1875 -31.785156 36.1875 -27.953125 L 25.46875 -27.953125 C 25.46875 -29.484375 24.972656 -30.75 23.984375 -31.75 C 22.992188 -32.75 21.445312 -33.25 19.34375 -33.25 C 17.53125 -33.25 16.128906 -32.84375 15.140625 -32.03125 C 14.148438 -31.21875 13.65625 -30.179688 13.65625 -28.921875 C 13.65625 -27.722656 14.21875 -26.757812 15.34375 -26.03125 C 16.46875 -25.300781 18.363281 -24.671875 21.03125 -24.140625 C 23.707031 -23.609375 25.960938 -23.007812 27.796875 -22.34375 C 33.460938 -20.269531 36.296875 -16.671875 36.296875 -11.546875 C 36.296875 -7.878906 34.722656 -4.910156 31.578125 -2.640625 C 28.441406 -0.378906 24.382812 0.75 19.40625 0.75 C 16.039062 0.75 13.050781 0.148438 10.4375 -1.046875 C 7.832031 -2.253906 5.785156 -3.898438 4.296875 -5.984375 C 2.816406 -8.078125 2.078125 -10.335938 2.078125 -12.765625 L 12.25 -12.765625 C 12.34375 -10.859375 13.046875 -9.394531 14.359375 -8.375 C 15.671875 -7.363281 17.429688 -6.859375 19.640625 -6.859375 C 21.691406 -6.859375 23.242188 -7.25 24.296875 -8.03125 C 25.347656 -8.8125 25.875 -9.832031 25.875 -11.09375 Z M 25.875 -11.09375 "/></g></g></g><g fill="#000000" fill-opacity="1"><g transform="translate(244.489735, 349.381969)"><g><path d="M 14.59375 -35.78125 C 17.4375 -39.195312 21.007812 -40.90625 25.3125 -40.90625 C 34.019531 -40.90625 38.4375 -35.84375 38.5625 -25.71875 L 38.5625 0 L 27.84375 0 L 27.84375 -25.421875 C 27.84375 -27.722656 27.347656 -29.425781 26.359375 -30.53125 C 25.367188 -31.632812 23.722656 -32.1875 21.421875 -32.1875 C 18.273438 -32.1875 16 -30.972656 14.59375 -28.546875 L 14.59375 0 L 3.859375 0 L 3.859375 -57.015625 L 14.59375 -57.015625 Z M 14.59375 -35.78125 "/></g></g></g><g fill="#000000" fill-opacity="1"><g transform="translate(287.021448, 349.381969)"><g><path d="M 2.453125 -20.453125 C 2.453125 -24.429688 3.21875 -27.976562 4.75 -31.09375 C 6.28125 -34.21875 8.488281 -36.632812 11.375 -38.34375 C 14.257812 -40.050781 17.609375 -40.90625 21.421875 -40.90625 C 26.835938 -40.90625 31.257812 -39.242188 34.6875 -35.921875 C 38.113281 -32.609375 40.023438 -28.109375 40.421875 -22.421875 L 40.5 -19.671875 C 40.5 -13.515625 38.773438 -8.570312 35.328125 -4.84375 C 31.890625 -1.113281 27.273438 0.75 21.484375 0.75 C 15.703125 0.75 11.082031 -1.101562 7.625 -4.8125 C 4.175781 -8.53125 2.453125 -13.582031 2.453125 -19.96875 Z M 13.171875 -19.671875 C 13.171875 -15.859375 13.890625 -12.941406 15.328125 -10.921875 C 16.765625 -8.910156 18.816406 -7.90625 21.484375 -7.90625 C 24.085938 -7.90625 26.117188 -8.898438 27.578125 -10.890625 C 29.035156 -12.878906 29.765625 -16.066406 29.765625 -20.453125 C 29.765625 -24.191406 29.035156 -27.085938 27.578125 -29.140625 C 26.117188 -31.191406 24.066406 -32.21875 21.421875 -32.21875 C 18.796875 -32.21875 16.765625 -31.195312 15.328125 -29.15625 C 13.890625 -27.113281 13.171875 -23.953125 13.171875 -19.671875 Z M 13.171875 -19.671875 "/></g></g></g><g fill="#000000" fill-opacity="1"><g transform="translate(329.998519, 349.381969)"><g><path d="M 40.265625 -19.703125 C 40.265625 -13.523438 38.859375 -8.570312 36.046875 -4.84375 C 33.242188 -1.113281 29.457031 0.75 24.6875 0.75 C 20.625 0.75 17.34375 -0.660156 14.84375 -3.484375 L 14.84375 15.4375 L 4.125 15.4375 L 4.125 -40.15625 L 14.0625 -40.15625 L 14.4375 -36.21875 C 17.03125 -39.34375 20.421875 -40.90625 24.609375 -40.90625 C 29.554688 -40.90625 33.398438 -39.070312 36.140625 -35.40625 C 38.890625 -31.75 40.265625 -26.703125 40.265625 -20.265625 Z M 29.546875 -20.484375 C 29.546875 -24.222656 28.882812 -27.109375 27.5625 -29.140625 C 26.238281 -31.171875 24.3125 -32.1875 21.78125 -32.1875 C 18.414062 -32.1875 16.101562 -30.894531 14.84375 -28.3125 L 14.84375 -11.875 C 16.15625 -9.226562 18.492188 -7.90625 21.859375 -7.90625 C 26.984375 -7.90625 29.546875 -12.097656 29.546875 -20.484375 Z M 29.546875 -20.484375 "/></g></g></g></svg>