<svg xmlns="http://www.w3.org/2000/svg" xmlns:xlink="http://www.w3.org/1999/xlink" width="500" zoomAndPan="magnify" viewBox="0 0 375 374.999991" height="500" preserveAspectRatio="xMidYMid meet" version="1.0"><defs><g/><clipPath id="18e9b5a085"><path d="M 48.382812 0 L 326.632812 0 L 326.632812 278.25 L 48.382812 278.25 Z M 48.382812 0 " clip-rule="nonzero"/></clipPath></defs><rect x="-37.5" width="450" fill="#ffffff" y="-37.499999" height="449.999989" fill-opacity="1"/><rect x="-37.5" width="450" fill="#f3f6f4" y="-37.499999" height="449.999989" fill-opacity="1"/><g clip-path="url(#18e9b5a085)"><path fill="#f03c2e" d="M 321.382812 126.734375 L 199.898438 5.253906 C 199.484375 4.835938 199.050781 4.441406 198.597656 4.070312 C 198.144531 3.699219 197.671875 3.347656 197.183594 3.023438 C 196.695312 2.695312 196.195312 2.394531 195.675781 2.117188 C 195.160156 1.84375 194.628906 1.589844 194.085938 1.367188 C 193.542969 1.140625 192.992188 0.945312 192.429688 0.773438 C 191.871094 0.605469 191.300781 0.460938 190.726562 0.347656 C 190.148438 0.230469 189.570312 0.144531 188.984375 0.0898438 C 188.402344 0.03125 187.816406 0.00390625 187.230469 0.00390625 C 186.644531 0.00390625 186.058594 0.03125 185.472656 0.0898438 C 184.890625 0.144531 184.308594 0.230469 183.734375 0.347656 C 183.160156 0.460938 182.589844 0.605469 182.027344 0.773438 C 181.46875 0.945312 180.914062 1.140625 180.375 1.367188 C 179.832031 1.589844 179.300781 1.84375 178.785156 2.117188 C 178.265625 2.394531 177.761719 2.695312 177.277344 3.023438 C 176.789062 3.347656 176.316406 3.699219 175.863281 4.070312 C 175.410156 4.441406 174.976562 4.835938 174.5625 5.253906 L 149.34375 30.46875 L 181.34375 62.46875 C 188.785156 59.859375 197.308594 61.640625 203.238281 67.570312 C 203.941406 68.273438 204.589844 69.023438 205.1875 69.816406 C 205.785156 70.613281 206.324219 71.445312 206.804688 72.316406 C 207.285156 73.183594 207.703125 74.085938 208.058594 75.011719 C 208.414062 75.941406 208.703125 76.890625 208.925781 77.859375 C 209.148438 78.828125 209.300781 79.808594 209.386719 80.796875 C 209.472656 81.789062 209.488281 82.78125 209.433594 83.773438 C 209.378906 84.765625 209.257812 85.75 209.066406 86.722656 C 208.875 87.699219 208.617188 88.65625 208.289062 89.597656 L 239.132812 120.4375 C 246.59375 117.863281 255.199219 119.527344 261.15625 125.5 C 261.652344 125.992188 262.121094 126.511719 262.5625 127.050781 C 263.007812 127.589844 263.421875 128.152344 263.8125 128.730469 C 264.199219 129.3125 264.558594 129.910156 264.886719 130.527344 C 265.21875 131.144531 265.515625 131.773438 265.785156 132.417969 C 266.050781 133.0625 266.285156 133.722656 266.488281 134.390625 C 266.691406 135.058594 266.863281 135.734375 267 136.421875 C 267.136719 137.105469 267.238281 137.796875 267.304688 138.492188 C 267.375 139.1875 267.410156 139.882812 267.410156 140.582031 C 267.410156 141.28125 267.375 141.976562 267.304688 142.671875 C 267.238281 143.367188 267.136719 144.058594 267 144.746094 C 266.863281 145.429688 266.695312 146.105469 266.492188 146.773438 C 266.289062 147.445312 266.054688 148.101562 265.785156 148.746094 C 265.519531 149.390625 265.21875 150.023438 264.890625 150.636719 C 264.5625 151.253906 264.203125 151.851562 263.8125 152.433594 C 263.425781 153.015625 263.011719 153.574219 262.566406 154.117188 C 262.125 154.65625 261.65625 155.171875 261.160156 155.667969 C 260.667969 156.160156 260.148438 156.628906 259.609375 157.070312 C 259.070312 157.515625 258.507812 157.929688 257.925781 158.320312 C 257.347656 158.707031 256.746094 159.066406 256.132812 159.394531 C 255.515625 159.722656 254.882812 160.023438 254.238281 160.289062 C 253.59375 160.554688 252.9375 160.792969 252.265625 160.996094 C 251.597656 161.195312 250.921875 161.367188 250.238281 161.503906 C 249.550781 161.636719 248.859375 161.742188 248.164062 161.808594 C 247.46875 161.875 246.773438 161.910156 246.074219 161.910156 C 245.375 161.910156 244.679688 161.875 243.984375 161.808594 C 243.289062 161.738281 242.597656 161.636719 241.914062 161.5 C 241.226562 161.363281 240.550781 161.191406 239.882812 160.988281 C 239.214844 160.785156 238.558594 160.550781 237.910156 160.28125 C 237.265625 160.015625 236.636719 159.714844 236.019531 159.386719 C 235.402344 159.058594 234.804688 158.699219 234.222656 158.308594 C 233.644531 157.921875 233.082031 157.503906 232.542969 157.0625 C 232.003906 156.617188 231.488281 156.148438 230.992188 155.65625 C 224.734375 149.394531 223.183594 140.175781 226.351562 132.464844 L 197.585938 103.699219 L 197.585938 179.394531 C 199.6875 180.433594 201.570312 181.777344 203.238281 183.425781 C 203.730469 183.921875 204.199219 184.4375 204.644531 184.976562 C 205.085938 185.519531 205.5 186.078125 205.890625 186.660156 C 206.277344 187.238281 206.636719 187.835938 206.964844 188.453125 C 207.292969 189.070312 207.59375 189.699219 207.859375 190.34375 C 208.128906 190.992188 208.363281 191.648438 208.566406 192.316406 C 208.769531 192.984375 208.9375 193.660156 209.074219 194.34375 C 209.210938 195.03125 209.3125 195.71875 209.378906 196.414062 C 209.449219 197.109375 209.484375 197.808594 209.484375 198.503906 C 209.484375 199.203125 209.449219 199.898438 209.378906 200.59375 C 209.3125 201.289062 209.210938 201.980469 209.074219 202.664062 C 208.9375 203.351562 208.769531 204.027344 208.566406 204.695312 C 208.363281 205.363281 208.128906 206.019531 207.859375 206.664062 C 207.59375 207.308594 207.292969 207.941406 206.964844 208.558594 C 206.636719 209.171875 206.277344 209.769531 205.890625 210.351562 C 205.5 210.933594 205.085938 211.492188 204.644531 212.03125 C 204.199219 212.574219 203.730469 213.089844 203.238281 213.582031 C 202.742188 214.078125 202.226562 214.546875 201.6875 214.988281 C 201.148438 215.429688 200.585938 215.847656 200.007812 216.234375 C 199.425781 216.621094 198.828125 216.980469 198.210938 217.308594 C 197.597656 217.640625 196.964844 217.9375 196.320312 218.207031 C 195.675781 218.472656 195.019531 218.707031 194.351562 218.910156 C 193.683594 219.113281 193.003906 219.28125 192.320312 219.417969 C 191.636719 219.554688 190.945312 219.65625 190.25 219.726562 C 189.554688 219.792969 188.859375 219.828125 188.160156 219.828125 C 187.460938 219.828125 186.765625 219.792969 186.070312 219.726562 C 185.375 219.65625 184.683594 219.554688 184 219.417969 C 183.316406 219.28125 182.640625 219.113281 181.96875 218.910156 C 181.300781 218.707031 180.644531 218.472656 180 218.207031 C 179.355469 217.9375 178.722656 217.640625 178.109375 217.308594 C 177.492188 216.980469 176.894531 216.621094 176.3125 216.234375 C 175.734375 215.847656 175.171875 215.429688 174.632812 214.988281 C 174.09375 214.546875 173.578125 214.078125 173.082031 213.582031 C 172.589844 213.089844 172.121094 212.574219 171.675781 212.035156 C 171.230469 211.492188 170.816406 210.933594 170.425781 210.351562 C 170.039062 209.773438 169.679688 209.175781 169.351562 208.558594 C 169.019531 207.941406 168.722656 207.3125 168.453125 206.667969 C 168.1875 206.023438 167.953125 205.363281 167.75 204.695312 C 167.546875 204.027344 167.375 203.351562 167.238281 202.667969 C 167.101562 201.980469 167 201.289062 166.933594 200.597656 C 166.863281 199.902344 166.828125 199.203125 166.828125 198.503906 C 166.828125 197.808594 166.863281 197.109375 166.933594 196.414062 C 167 195.71875 167.101562 195.03125 167.238281 194.34375 C 167.375 193.660156 167.546875 192.984375 167.75 192.3125 C 167.953125 191.644531 168.1875 190.988281 168.453125 190.34375 C 168.722656 189.699219 169.019531 189.066406 169.351562 188.453125 C 169.679688 187.835938 170.039062 187.238281 170.425781 186.65625 C 170.816406 186.078125 171.230469 185.515625 171.675781 184.976562 C 172.121094 184.4375 172.589844 183.921875 173.082031 183.425781 C 175.144531 181.375 177.429688 179.820312 180.066406 178.777344 L 180.066406 102.378906 C 177.527344 101.335938 175.144531 99.796875 173.082031 97.726562 C 172.339844 96.984375 171.652344 96.1875 171.027344 95.34375 C 170.398438 94.5 169.839844 93.613281 169.34375 92.683594 C 168.847656 91.753906 168.421875 90.796875 168.070312 89.804688 C 167.714844 88.8125 167.4375 87.800781 167.234375 86.769531 C 167.03125 85.738281 166.90625 84.695312 166.855469 83.644531 C 166.808594 82.59375 166.835938 81.546875 166.941406 80.5 C 167.050781 79.453125 167.230469 78.417969 167.492188 77.398438 C 167.75 76.378906 168.085938 75.382812 168.492188 74.414062 L 136.925781 42.867188 L 53.625 126.082031 C 53.210938 126.496094 52.816406 126.929688 52.445312 127.386719 C 52.070312 127.839844 51.722656 128.308594 51.394531 128.796875 C 51.070312 129.285156 50.769531 129.789062 50.492188 130.304688 C 50.214844 130.824219 49.960938 131.351562 49.738281 131.894531 C 49.511719 132.4375 49.316406 132.988281 49.144531 133.550781 C 48.972656 134.113281 48.832031 134.683594 48.71875 135.257812 C 48.601562 135.835938 48.515625 136.414062 48.457031 137 C 48.402344 137.582031 48.371094 138.167969 48.371094 138.753906 C 48.371094 139.34375 48.402344 139.929688 48.457031 140.511719 C 48.515625 141.097656 48.601562 141.675781 48.71875 142.253906 C 48.832031 142.828125 48.972656 143.398438 49.144531 143.957031 C 49.316406 144.519531 49.511719 145.074219 49.738281 145.613281 C 49.960938 146.15625 50.214844 146.6875 50.492188 147.207031 C 50.769531 147.722656 51.070312 148.226562 51.394531 148.714844 C 51.722656 149.203125 52.070312 149.671875 52.445312 150.125 C 52.816406 150.578125 53.210938 151.015625 53.625 151.429688 L 175.117188 272.902344 C 175.53125 273.316406 175.964844 273.710938 176.417969 274.082031 C 176.875 274.457031 177.34375 274.804688 177.832031 275.132812 C 178.320312 275.457031 178.824219 275.757812 179.339844 276.035156 C 179.859375 276.3125 180.386719 276.5625 180.929688 276.789062 C 181.472656 277.011719 182.023438 277.210938 182.585938 277.378906 C 183.148438 277.550781 183.714844 277.691406 184.289062 277.808594 C 184.867188 277.921875 185.445312 278.007812 186.03125 278.066406 C 186.613281 278.125 187.199219 278.152344 187.785156 278.152344 C 188.375 278.152344 188.957031 278.125 189.542969 278.066406 C 190.125 278.007812 190.707031 277.921875 191.28125 277.808594 C 191.859375 277.691406 192.425781 277.550781 192.988281 277.378906 C 193.550781 277.210938 194.101562 277.011719 194.644531 276.789062 C 195.183594 276.5625 195.714844 276.3125 196.234375 276.035156 C 196.75 275.757812 197.253906 275.457031 197.742188 275.132812 C 198.230469 274.804688 198.699219 274.457031 199.152344 274.082031 C 199.605469 273.710938 200.039062 273.316406 200.457031 272.902344 L 321.382812 152.167969 C 321.796875 151.753906 322.191406 151.320312 322.5625 150.863281 C 322.9375 150.410156 323.285156 149.941406 323.613281 149.453125 C 323.9375 148.964844 324.238281 148.460938 324.515625 147.945312 C 324.792969 147.425781 325.042969 146.898438 325.269531 146.355469 C 325.496094 145.8125 325.691406 145.257812 325.863281 144.699219 C 326.03125 144.136719 326.175781 143.566406 326.289062 142.992188 C 326.40625 142.414062 326.492188 141.835938 326.546875 141.25 C 326.605469 140.667969 326.636719 140.082031 326.636719 139.496094 C 326.636719 138.90625 326.605469 138.320312 326.546875 137.738281 C 326.492188 137.152344 326.40625 136.574219 326.289062 135.996094 C 326.175781 135.421875 326.03125 134.851562 325.863281 134.292969 C 325.691406 133.730469 325.496094 133.175781 325.269531 132.636719 C 325.042969 132.09375 324.792969 131.5625 324.515625 131.042969 C 324.238281 130.527344 323.9375 130.023438 323.613281 129.535156 C 323.285156 129.046875 322.9375 128.578125 322.5625 128.125 C 322.191406 127.671875 321.796875 127.234375 321.382812 126.820312 " fill-opacity="1" fill-rule="nonzero"/></g><g fill="#000000" fill-opacity="1"><g transform="translate(134.847183, 351.228907)"><g><path d="M 51.34375 -7.375 C 49.175781 -4.78125 46.117188 -2.769531 42.171875 -1.34375 C 38.222656 0.0820312 33.84375 0.796875 29.03125 0.796875 C 23.988281 0.796875 19.5625 -0.300781 15.75 -2.5 C 11.945312 -4.707031 9.007812 -7.90625 6.9375 -12.09375 C 4.875 -16.28125 3.816406 -21.207031 3.765625 -26.875 L 3.765625 -30.84375 C 3.765625 -36.65625 4.742188 -41.691406 6.703125 -45.953125 C 8.671875 -50.210938 11.503906 -53.46875 15.203125 -55.71875 C 18.898438 -57.976562 23.226562 -59.109375 28.1875 -59.109375 C 35.101562 -59.109375 40.507812 -57.457031 44.40625 -54.15625 C 48.3125 -50.863281 50.625 -46.066406 51.34375 -39.765625 L 39.640625 -39.765625 C 39.109375 -43.097656 37.925781 -45.539062 36.09375 -47.09375 C 34.269531 -48.644531 31.753906 -49.421875 28.546875 -49.421875 C 24.460938 -49.421875 21.351562 -47.882812 19.21875 -44.8125 C 17.082031 -41.738281 16.003906 -37.171875 15.984375 -31.109375 L 15.984375 -27.390625 C 15.984375 -21.273438 17.144531 -16.65625 19.46875 -13.53125 C 21.789062 -10.40625 25.191406 -8.84375 29.671875 -8.84375 C 34.179688 -8.84375 37.398438 -9.804688 39.328125 -11.734375 L 39.328125 -21.78125 L 28.390625 -21.78125 L 28.390625 -30.640625 L 51.34375 -30.640625 Z M 51.34375 -7.375 "/></g></g></g><g fill="#000000" fill-opacity="1"><g transform="translate(190.704534, 351.228907)"><g><path d="M 16.65625 0 L 5.046875 0 L 5.046875 -43.328125 L 16.65625 -43.328125 Z M 4.359375 -54.546875 C 4.359375 -56.273438 4.9375 -57.703125 6.09375 -58.828125 C 7.257812 -59.953125 8.847656 -60.515625 10.859375 -60.515625 C 12.828125 -60.515625 14.398438 -59.953125 15.578125 -58.828125 C 16.753906 -57.703125 17.34375 -56.273438 17.34375 -54.546875 C 17.34375 -52.785156 16.75 -51.34375 15.5625 -50.21875 C 14.375 -49.09375 12.800781 -48.53125 10.84375 -48.53125 C 8.894531 -48.53125 7.328125 -49.09375 6.140625 -50.21875 C 4.953125 -51.34375 4.359375 -52.785156 4.359375 -54.546875 Z M 4.359375 -54.546875 "/></g></g></g><g fill="#000000" fill-opacity="1"><g transform="translate(212.446869, 351.228907)"><g><path d="M 18.296875 -53.984375 L 18.296875 -43.328125 L 25.703125 -43.328125 L 25.703125 -34.84375 L 18.296875 -34.84375 L 18.296875 -13.21875 C 18.296875 -11.613281 18.601562 -10.460938 19.21875 -9.765625 C 19.832031 -9.078125 21.007812 -8.734375 22.75 -8.734375 C 24.03125 -8.734375 25.164062 -8.828125 26.15625 -9.015625 L 26.15625 -0.234375 C 23.882812 0.453125 21.546875 0.796875 19.140625 0.796875 C 11.023438 0.796875 6.890625 -3.300781 6.734375 -11.5 L 6.734375 -34.84375 L 0.40625 -34.84375 L 0.40625 -43.328125 L 6.734375 -43.328125 L 6.734375 -53.984375 Z M 18.296875 -53.984375 "/></g></g></g></svg>