<svg xmlns="http://www.w3.org/2000/svg" xmlns:xlink="http://www.w3.org/1999/xlink" width="500" zoomAndPan="magnify" viewBox="0 0 375 374.999991" height="500" preserveAspectRatio="xMidYMid meet" version="1.0"><defs><g/><clipPath id="50aefe4550"><path d="M 63.570312 1.296875 L 311.070312 1.296875 L 311.070312 278.046875 L 63.570312 278.046875 Z M 63.570312 1.296875 " clip-rule="nonzero"/></clipPath></defs><rect x="-37.5" width="450" fill="#ffffff" y="-37.499999" height="449.999989" fill-opacity="1"/><rect x="-37.5" width="450" fill="#f3f6f4" y="-37.499999" height="449.999989" fill-opacity="1"/><g clip-path="url(#50aefe4550)"><path fill="#0277bd" d="M 311.035156 1.296875 L 63.609375 1.296875 L 85.441406 248.917969 L 187.320312 278.046875 L 289.203125 248.917969 Z M 311.035156 1.296875 " fill-opacity="1" fill-rule="nonzero"/></g><path fill="#039be5" d="M 187.320312 23.148438 L 187.320312 255.472656 L 268.824219 232.167969 L 287.019531 23.148438 Z M 187.320312 23.148438 " fill-opacity="1" fill-rule="nonzero"/><path fill="#ffffff" d="M 253.542969 59.5625 L 187.320312 59.5625 L 187.320312 88.695312 L 222.980469 88.695312 L 220.796875 117.824219 L 187.320312 117.824219 L 187.320312 146.957031 L 219.339844 146.957031 L 217.15625 179.730469 L 187.320312 189.925781 L 187.320312 220.515625 L 244.8125 201.578125 L 249.90625 117.824219 Z M 253.542969 59.5625 " fill-opacity="1" fill-rule="nonzero"/><path fill="#eeeeee" d="M 187.320312 59.5625 L 187.320312 88.695312 L 122.554688 88.695312 L 120.371094 59.5625 Z M 153.847656 117.824219 L 155.300781 146.957031 L 187.320312 146.957031 L 187.320312 117.824219 Z M 156.757812 161.523438 L 127.648438 161.523438 L 129.832031 201.578125 L 187.320312 220.515625 L 187.320312 189.925781 L 157.484375 179.730469 Z M 156.757812 161.523438 " fill-opacity="1" fill-rule="nonzero"/><g fill="#000000" fill-opacity="1"><g transform="translate(86.737938, 351.228965)"><g><path d="M 50.984375 -19.421875 C 50.523438 -13.148438 48.207031 -8.210938 44.03125 -4.609375 C 39.851562 -1.003906 34.347656 0.796875 27.515625 0.796875 C 20.035156 0.796875 14.148438 -1.71875 9.859375 -6.75 C 5.578125 -11.78125 3.4375 -18.6875 3.4375 -27.46875 L 3.4375 -31.03125 C 3.4375 -36.644531 4.425781 -41.585938 6.40625 -45.859375 C 8.382812 -50.128906 11.207031 -53.40625 14.875 -55.6875 C 18.550781 -57.96875 22.816406 -59.109375 27.671875 -59.109375 C 34.398438 -59.109375 39.816406 -57.304688 43.921875 -53.703125 C 48.035156 -50.097656 50.414062 -45.039062 51.0625 -38.53125 L 39.046875 -38.53125 C 38.753906 -42.289062 37.707031 -45.015625 35.90625 -46.703125 C 34.101562 -48.398438 31.359375 -49.25 27.671875 -49.25 C 23.671875 -49.25 20.675781 -47.8125 18.6875 -44.9375 C 16.695312 -42.070312 15.675781 -37.625 15.625 -31.59375 L 15.625 -27.1875 C 15.625 -20.882812 16.578125 -16.28125 18.484375 -13.375 C 20.390625 -10.46875 23.398438 -9.015625 27.515625 -9.015625 C 31.222656 -9.015625 33.988281 -9.859375 35.8125 -11.546875 C 37.644531 -13.242188 38.695312 -15.867188 38.96875 -19.421875 Z M 50.984375 -19.421875 "/></g></g></g><g fill="#000000" fill-opacity="1"><g transform="translate(140.39301, 351.228965)"><g><path d="M 35.4375 -15.296875 C 35.4375 -17.566406 34.632812 -19.304688 33.03125 -20.515625 C 31.4375 -21.734375 28.554688 -23.015625 24.390625 -24.359375 C 20.222656 -25.710938 16.925781 -27.046875 14.5 -28.359375 C 7.875 -31.929688 4.5625 -36.75 4.5625 -42.8125 C 4.5625 -45.957031 5.445312 -48.765625 7.21875 -51.234375 C 9 -53.703125 11.550781 -55.628906 14.875 -57.015625 C 18.195312 -58.410156 21.929688 -59.109375 26.078125 -59.109375 C 30.234375 -59.109375 33.941406 -58.351562 37.203125 -56.84375 C 40.460938 -55.332031 42.992188 -53.203125 44.796875 -50.453125 C 46.597656 -47.703125 47.5 -44.582031 47.5 -41.09375 L 35.484375 -41.09375 C 35.484375 -43.757812 34.640625 -45.832031 32.953125 -47.3125 C 31.273438 -48.789062 28.914062 -49.53125 25.875 -49.53125 C 22.9375 -49.53125 20.648438 -48.910156 19.015625 -47.671875 C 17.390625 -46.429688 16.578125 -44.796875 16.578125 -42.765625 C 16.578125 -40.867188 17.53125 -39.28125 19.4375 -38 C 21.351562 -36.71875 24.164062 -35.519531 27.875 -34.40625 C 34.707031 -32.34375 39.6875 -29.789062 42.8125 -26.75 C 45.9375 -23.707031 47.5 -19.914062 47.5 -15.375 C 47.5 -10.332031 45.585938 -6.375 41.765625 -3.5 C 37.953125 -0.632812 32.8125 0.796875 26.34375 0.796875 C 21.863281 0.796875 17.78125 -0.0195312 14.09375 -1.65625 C 10.40625 -3.300781 7.59375 -5.550781 5.65625 -8.40625 C 3.726562 -11.257812 2.765625 -14.570312 2.765625 -18.34375 L 14.8125 -18.34375 C 14.8125 -11.90625 18.65625 -8.6875 26.34375 -8.6875 C 29.207031 -8.6875 31.4375 -9.265625 33.03125 -10.421875 C 34.632812 -11.585938 35.4375 -13.210938 35.4375 -15.296875 Z M 35.4375 -15.296875 "/></g></g></g><g fill="#000000" fill-opacity="1"><g transform="translate(190.804771, 351.228965)"><g><path d="M 35.4375 -15.296875 C 35.4375 -17.566406 34.632812 -19.304688 33.03125 -20.515625 C 31.4375 -21.734375 28.554688 -23.015625 24.390625 -24.359375 C 20.222656 -25.710938 16.925781 -27.046875 14.5 -28.359375 C 7.875 -31.929688 4.5625 -36.75 4.5625 -42.8125 C 4.5625 -45.957031 5.445312 -48.765625 7.21875 -51.234375 C 9 -53.703125 11.550781 -55.628906 14.875 -57.015625 C 18.195312 -58.410156 21.929688 -59.109375 26.078125 -59.109375 C 30.234375 -59.109375 33.941406 -58.351562 37.203125 -56.84375 C 40.460938 -55.332031 42.992188 -53.203125 44.796875 -50.453125 C 46.597656 -47.703125 47.5 -44.582031 47.5 -41.09375 L 35.484375 -41.09375 C 35.484375 -43.757812 34.640625 -45.832031 32.953125 -47.3125 C 31.273438 -48.789062 28.914062 -49.53125 25.875 -49.53125 C 22.9375 -49.53125 20.648438 -48.910156 19.015625 -47.671875 C 17.390625 -46.429688 16.578125 -44.796875 16.578125 -42.765625 C 16.578125 -40.867188 17.53125 -39.28125 19.4375 -38 C 21.351562 -36.71875 24.164062 -35.519531 27.875 -34.40625 C 34.707031 -32.34375 39.6875 -29.789062 42.8125 -26.75 C 45.9375 -23.707031 47.5 -19.914062 47.5 -15.375 C 47.5 -10.332031 45.585938 -6.375 41.765625 -3.5 C 37.953125 -0.632812 32.8125 0.796875 26.34375 0.796875 C 21.863281 0.796875 17.78125 -0.0195312 14.09375 -1.65625 C 10.40625 -3.300781 7.59375 -5.550781 5.65625 -8.40625 C 3.726562 -11.257812 2.765625 -14.570312 2.765625 -18.34375 L 14.8125 -18.34375 C 14.8125 -11.90625 18.65625 -8.6875 26.34375 -8.6875 C 29.207031 -8.6875 31.4375 -9.265625 33.03125 -10.421875 C 34.632812 -11.585938 35.4375 -13.210938 35.4375 -15.296875 Z M 35.4375 -15.296875 "/></g></g></g><g fill="#000000" fill-opacity="1"><g transform="translate(241.216532, 351.228965)"><g><path d="M 15.734375 -34.28125 L 21.90625 -34.28125 C 24.84375 -34.28125 27.019531 -35.015625 28.4375 -36.484375 C 29.851562 -37.953125 30.5625 -39.898438 30.5625 -42.328125 C 30.5625 -44.679688 29.859375 -46.507812 28.453125 -47.8125 C 27.046875 -49.125 25.117188 -49.78125 22.671875 -49.78125 C 20.453125 -49.78125 18.59375 -49.171875 17.09375 -47.953125 C 15.601562 -46.742188 14.859375 -45.160156 14.859375 -43.203125 L 3.28125 -43.203125 C 3.28125 -46.253906 4.097656 -48.988281 5.734375 -51.40625 C 7.378906 -53.820312 9.675781 -55.707031 12.625 -57.0625 C 15.582031 -58.425781 18.835938 -59.109375 22.390625 -59.109375 C 28.554688 -59.109375 33.382812 -57.632812 36.875 -54.6875 C 40.375 -51.738281 42.125 -47.671875 42.125 -42.484375 C 42.125 -39.816406 41.3125 -37.359375 39.6875 -35.109375 C 38.0625 -32.867188 35.925781 -31.148438 33.28125 -29.953125 C 36.5625 -28.773438 39.007812 -27.007812 40.625 -24.65625 C 42.238281 -22.3125 43.046875 -19.539062 43.046875 -16.34375 C 43.046875 -11.15625 41.15625 -7 37.375 -3.875 C 33.601562 -0.757812 28.609375 0.796875 22.390625 0.796875 C 16.566406 0.796875 11.804688 -0.734375 8.109375 -3.796875 C 4.410156 -6.867188 2.5625 -10.929688 2.5625 -15.984375 L 14.140625 -15.984375 C 14.140625 -13.785156 14.957031 -11.992188 16.59375 -10.609375 C 18.238281 -9.222656 20.265625 -8.53125 22.671875 -8.53125 C 25.421875 -8.53125 27.578125 -9.253906 29.140625 -10.703125 C 30.703125 -12.160156 31.484375 -14.09375 31.484375 -16.5 C 31.484375 -22.320312 28.273438 -25.234375 21.859375 -25.234375 L 15.734375 -25.234375 Z M 15.734375 -34.28125 "/></g></g></g></svg>