<svg xmlns="http://www.w3.org/2000/svg" xmlns:xlink="http://www.w3.org/1999/xlink" width="500" zoomAndPan="magnify" viewBox="0 0 375 374.999991" height="500" preserveAspectRatio="xMidYMid meet" version="1.0"><defs><g/><clipPath id="caf20c32ea"><path d="M 65.582031 0 L 309.332031 0 L 309.332031 278 L 65.582031 278 Z M 65.582031 0 " clip-rule="nonzero"/></clipPath></defs><rect x="-37.5" width="450" fill="#ffffff" y="-37.499999" height="449.999989" fill-opacity="1"/><rect x="-37.5" width="450" fill="#ffffff" y="-37.499999" height="449.999989" fill-opacity="1"/><rect x="-37.5" width="450" fill="#f3f6f4" y="-37.499999" height="449.999989" fill-opacity="1"/><g clip-path="url(#caf20c32ea)"><path fill="#e44d26" d="M 87.710938 249.828125 L 65.515625 0.777344 L 309.402344 0.777344 L 287.1875 249.792969 L 187.300781 277.480469 Z M 87.710938 249.828125 " fill-opacity="1" fill-rule="nonzero"/></g><path fill="#f16529" d="M 268.164062 233.933594 L 287.152344 21.140625 L 187.457031 21.140625 L 187.457031 256.320312 Z M 268.164062 233.933594 " fill-opacity="1" fill-rule="nonzero"/><path fill="#ebebeb" d="M 187.355469 51.683594 L 110.894531 51.683594 L 119.128906 144.054688 L 187.457031 144.054688 L 187.457031 113.511719 L 147.058594 113.511719 L 144.265625 82.234375 L 187.457031 82.234375 L 187.457031 51.683594 Z M 187.457031 192.738281 L 187.328125 192.773438 L 153.324219 183.589844 L 151.164062 159.230469 L 120.496094 159.230469 L 124.773438 207.1875 L 187.320312 224.480469 L 187.457031 224.4375 Z M 187.457031 192.738281 " fill-opacity="1" fill-rule="nonzero"/><path fill="#ffffff" d="M 187.355469 144.054688 L 224.953125 144.054688 L 221.496094 183.660156 L 187.441406 192.851562 L 187.441406 224.628906 L 250.039062 207.273438 L 258.421875 113.496094 L 187.457031 113.496094 Z M 263.105469 59.882812 L 263.832031 51.683594 L 187.335938 51.683594 L 187.335938 82.226562 L 261.085938 82.226562 L 261.6875 75.359375 Z M 263.105469 59.882812 " fill-opacity="1" fill-rule="nonzero"/><g fill="#000000" fill-opacity="1"><g transform="translate(51.507906, 351.228965)"><g><path d="M 52.65625 0 L 40.640625 0 L 40.640625 -24.984375 L 17.21875 -24.984375 L 17.21875 0 L 5.203125 0 L 5.203125 -58.3125 L 17.21875 -58.3125 L 17.21875 -34.6875 L 40.640625 -34.6875 L 40.640625 -58.3125 L 52.65625 -58.3125 Z M 52.65625 0 "/></g></g></g><g fill="#000000" fill-opacity="1"><g transform="translate(109.447394, 351.228965)"><g><path d="M 49.09375 -48.578125 L 31.234375 -48.578125 L 31.234375 0 L 19.21875 0 L 19.21875 -48.578125 L 1.609375 -48.578125 L 1.609375 -58.3125 L 49.09375 -58.3125 Z M 49.09375 -48.578125 "/></g></g></g><g fill="#000000" fill-opacity="1"><g transform="translate(160.179484, 351.228965)"><g><path d="M 20.90625 -58.3125 L 35.875 -16.015625 L 50.78125 -58.3125 L 66.5625 -58.3125 L 66.5625 0 L 54.5 0 L 54.5 -15.9375 L 55.703125 -43.453125 L 39.96875 0 L 31.71875 0 L 16.015625 -43.40625 L 17.21875 -15.9375 L 17.21875 0 L 5.203125 0 L 5.203125 -58.3125 Z M 20.90625 -58.3125 "/></g></g></g><g fill="#000000" fill-opacity="1"><g transform="translate(232.013214, 351.228965)"><g><path d="M 17.21875 -9.65625 L 42.734375 -9.65625 L 42.734375 0 L 5.203125 0 L 5.203125 -58.3125 L 17.21875 -58.3125 Z M 17.21875 -9.65625 "/></g></g></g><g fill="#000000" fill-opacity="1"><g transform="translate(276.418812, 351.228965)"><g><path d="M 5.6875 -28.671875 L 9.046875 -58.3125 L 41.734375 -58.3125 L 41.734375 -48.65625 L 18.546875 -48.65625 L 17.09375 -36.125 C 19.84375 -37.59375 22.769531 -38.328125 25.875 -38.328125 C 31.425781 -38.328125 35.773438 -36.601562 38.921875 -33.15625 C 42.078125 -29.71875 43.65625 -24.898438 43.65625 -18.703125 C 43.65625 -14.941406 42.859375 -11.570312 41.265625 -8.59375 C 39.679688 -5.613281 37.40625 -3.300781 34.4375 -1.65625 C 31.476562 -0.0195312 27.984375 0.796875 23.953125 0.796875 C 20.421875 0.796875 17.144531 0.0820312 14.125 -1.34375 C 11.113281 -2.769531 8.734375 -4.773438 6.984375 -7.359375 C 5.234375 -9.953125 4.304688 -12.90625 4.203125 -16.21875 L 15.65625 -16.21875 C 15.894531 -13.789062 16.742188 -11.898438 18.203125 -10.546875 C 19.660156 -9.203125 21.5625 -8.53125 23.90625 -8.53125 C 26.519531 -8.53125 28.535156 -9.46875 29.953125 -11.34375 C 31.367188 -13.226562 32.078125 -15.894531 32.078125 -19.34375 C 32.078125 -22.65625 31.257812 -25.191406 29.625 -26.953125 C 28 -28.710938 25.691406 -29.59375 22.703125 -29.59375 C 19.953125 -29.59375 17.722656 -28.875 16.015625 -27.4375 L 14.890625 -26.390625 Z M 5.6875 -28.671875 "/></g></g></g></svg>