<svg xmlns="http://www.w3.org/2000/svg" xmlns:xlink="http://www.w3.org/1999/xlink" width="500" zoomAndPan="magnify" viewBox="0 0 375 374.999991" height="500" preserveAspectRatio="xMidYMid meet" version="1.0"><defs><g/><clipPath id="882c7c7182"><path d="M 36.105469 0 L 339.105469 0 L 339.105469 345 L 36.105469 345 Z M 36.105469 0 " clip-rule="nonzero"/></clipPath></defs><rect x="-37.5" width="450" fill="#ffffff" y="-37.499999" height="449.999989" fill-opacity="1"/><rect x="-37.5" width="450" fill="#ffffff" y="-37.499999" height="449.999989" fill-opacity="1"/><rect x="-37.5" width="450" fill="#f3f6f4" y="-37.499999" height="449.999989" fill-opacity="1"/><g clip-path="url(#882c7c7182)"><path fill="#e44d26" d="M 63.613281 310.425781 L 36.019531 0.976562 L 339.191406 0.976562 L 311.578125 310.382812 L 187.414062 344.785156 Z M 63.613281 310.425781 " fill-opacity="1" fill-rule="nonzero"/></g><path fill="#f16529" d="M 287.929688 290.675781 L 311.535156 26.277344 L 187.605469 26.277344 L 187.605469 318.496094 Z M 287.929688 290.675781 " fill-opacity="1" fill-rule="nonzero"/><path fill="#ebebeb" d="M 187.476562 64.226562 L 92.429688 64.226562 L 102.667969 179 L 187.605469 179 L 187.605469 141.050781 L 137.386719 141.050781 L 133.914062 102.1875 L 187.605469 102.1875 L 187.605469 64.226562 Z M 187.605469 239.492188 L 187.445312 239.535156 L 145.175781 228.121094 L 142.488281 197.855469 L 104.367188 197.855469 L 109.6875 257.445312 L 187.433594 278.933594 L 187.605469 278.878906 Z M 187.605469 239.492188 " fill-opacity="1" fill-rule="nonzero"/><path fill="#ffffff" d="M 187.476562 179 L 234.214844 179 L 229.917969 228.207031 L 187.585938 239.628906 L 187.585938 279.117188 L 265.398438 257.550781 L 275.820312 141.027344 L 187.605469 141.027344 Z M 281.644531 74.414062 L 282.546875 64.226562 L 187.457031 64.226562 L 187.457031 102.175781 L 279.128906 102.175781 L 279.882812 93.644531 Z M 281.644531 74.414062 " fill-opacity="1" fill-rule="nonzero"/><g fill="#000000" fill-opacity="1"><g transform="translate(146.047584, 367.754184)"><g><path d="M 16.046875 0 L 12.390625 0 L 12.390625 -7.625 L 5.25 -7.625 L 5.25 0 L 1.59375 0 L 1.59375 -17.78125 L 5.25 -17.78125 L 5.25 -10.578125 L 12.390625 -10.578125 L 12.390625 -17.78125 L 16.046875 -17.78125 Z M 16.046875 0 "/></g></g></g><g fill="#000000" fill-opacity="1"><g transform="translate(163.708403, 367.754184)"><g><path d="M 14.96875 -14.8125 L 9.515625 -14.8125 L 9.515625 0 L 5.859375 0 L 5.859375 -14.8125 L 0.484375 -14.8125 L 0.484375 -17.78125 L 14.96875 -17.78125 Z M 14.96875 -14.8125 "/></g></g></g><g fill="#000000" fill-opacity="1"><g transform="translate(179.172299, 367.754184)"><g><path d="M 6.375 -17.78125 L 10.9375 -4.890625 L 15.484375 -17.78125 L 20.28125 -17.78125 L 20.28125 0 L 16.609375 0 L 16.609375 -4.859375 L 16.984375 -13.25 L 12.1875 0 L 9.671875 0 L 4.890625 -13.234375 L 5.25 -4.859375 L 5.25 0 L 1.59375 0 L 1.59375 -17.78125 Z M 6.375 -17.78125 "/></g></g></g><g fill="#000000" fill-opacity="1"><g transform="translate(201.06829, 367.754184)"><g><path d="M 5.25 -2.9375 L 13.03125 -2.9375 L 13.03125 0 L 1.59375 0 L 1.59375 -17.78125 L 5.25 -17.78125 Z M 5.25 -2.9375 "/></g></g></g><g fill="#000000" fill-opacity="1"><g transform="translate(214.603777, 367.754184)"><g><path d="M 1.734375 -8.734375 L 2.765625 -17.78125 L 12.71875 -17.78125 L 12.71875 -14.828125 L 5.65625 -14.828125 L 5.21875 -11.015625 C 6.050781 -11.460938 6.941406 -11.6875 7.890625 -11.6875 C 9.578125 -11.6875 10.898438 -11.160156 11.859375 -10.109375 C 12.828125 -9.054688 13.3125 -7.585938 13.3125 -5.703125 C 13.3125 -4.554688 13.066406 -3.523438 12.578125 -2.609375 C 12.097656 -1.703125 11.40625 -1 10.5 -0.5 C 9.59375 0 8.523438 0.25 7.296875 0.25 C 6.222656 0.25 5.226562 0.03125 4.3125 -0.40625 C 3.394531 -0.84375 2.664062 -1.457031 2.125 -2.25 C 1.59375 -3.039062 1.3125 -3.9375 1.28125 -4.9375 L 4.765625 -4.9375 C 4.847656 -4.195312 5.109375 -3.617188 5.546875 -3.203125 C 5.992188 -2.796875 6.570312 -2.59375 7.28125 -2.59375 C 8.082031 -2.59375 8.695312 -2.878906 9.125 -3.453125 C 9.5625 -4.035156 9.78125 -4.847656 9.78125 -5.890625 C 9.78125 -6.898438 9.53125 -7.671875 9.03125 -8.203125 C 8.53125 -8.742188 7.828125 -9.015625 6.921875 -9.015625 C 6.085938 -9.015625 5.410156 -8.796875 4.890625 -8.359375 L 4.546875 -8.046875 Z M 1.734375 -8.734375 "/></g></g></g></svg>