<svg xmlns="http://www.w3.org/2000/svg" xmlns:xlink="http://www.w3.org/1999/xlink" width="500" zoomAndPan="magnify" viewBox="0 0 375 374.999991" height="500" preserveAspectRatio="xMidYMid meet" version="1.0"><defs><g/><clipPath id="94e8c4addb"><path d="M 33.46875 1.296875 L 341.71875 1.296875 L 341.71875 345.546875 L 33.46875 345.546875 Z M 33.46875 1.296875 " clip-rule="nonzero"/></clipPath></defs><rect x="-37.5" width="450" fill="#ffffff" y="-37.499999" height="449.999989" fill-opacity="1"/><rect x="-37.5" width="450" fill="#f3f6f4" y="-37.499999" height="449.999989" fill-opacity="1"/><g clip-path="url(#94e8c4addb)"><path fill="#0277bd" d="M 341.671875 1.296875 L 33.515625 1.296875 L 60.703125 309.3125 L 187.59375 345.546875 L 314.480469 309.3125 Z M 341.671875 1.296875 " fill-opacity="1" fill-rule="nonzero"/></g><path fill="#039be5" d="M 187.59375 28.476562 L 187.59375 317.464844 L 289.105469 288.476562 L 311.761719 28.476562 Z M 187.59375 28.476562 " fill-opacity="1" fill-rule="nonzero"/><path fill="#ffffff" d="M 270.070312 73.773438 L 187.59375 73.773438 L 187.59375 110.007812 L 232.003906 110.007812 L 229.285156 146.246094 L 187.59375 146.246094 L 187.59375 182.484375 L 227.472656 182.484375 L 224.753906 223.25 L 187.59375 235.933594 L 187.59375 273.980469 L 259.195312 250.425781 L 265.539062 146.246094 Z M 270.070312 73.773438 " fill-opacity="1" fill-rule="nonzero"/><path fill="#eeeeee" d="M 187.59375 73.773438 L 187.59375 110.007812 L 106.929688 110.007812 L 104.207031 73.773438 Z M 145.902344 146.246094 L 147.714844 182.484375 L 187.59375 182.484375 L 187.59375 146.246094 Z M 149.527344 200.601562 L 113.273438 200.601562 L 115.992188 250.425781 L 187.59375 273.980469 L 187.59375 235.933594 L 150.433594 223.25 Z M 149.527344 200.601562 " fill-opacity="1" fill-rule="nonzero"/><g fill="#000000" fill-opacity="1"><g transform="translate(156.78622, 367.754155)"><g><path d="M 15.546875 -5.921875 C 15.398438 -4.003906 14.691406 -2.492188 13.421875 -1.390625 C 12.148438 -0.296875 10.472656 0.25 8.390625 0.25 C 6.109375 0.25 4.3125 -0.515625 3 -2.046875 C 1.695312 -3.585938 1.046875 -5.695312 1.046875 -8.375 L 1.046875 -9.453125 C 1.046875 -11.171875 1.347656 -12.679688 1.953125 -13.984375 C 2.554688 -15.285156 3.414062 -16.28125 4.53125 -16.96875 C 5.65625 -17.664062 6.957031 -18.015625 8.4375 -18.015625 C 10.488281 -18.015625 12.140625 -17.460938 13.390625 -16.359375 C 14.640625 -15.265625 15.363281 -13.726562 15.5625 -11.75 L 11.90625 -11.75 C 11.8125 -12.894531 11.488281 -13.722656 10.9375 -14.234375 C 10.394531 -14.753906 9.5625 -15.015625 8.4375 -15.015625 C 7.21875 -15.015625 6.300781 -14.578125 5.6875 -13.703125 C 5.082031 -12.828125 4.773438 -11.46875 4.765625 -9.625 L 4.765625 -8.28125 C 4.765625 -6.363281 5.050781 -4.960938 5.625 -4.078125 C 6.207031 -3.191406 7.128906 -2.75 8.390625 -2.75 C 9.515625 -2.75 10.351562 -3.003906 10.90625 -3.515625 C 11.46875 -4.035156 11.789062 -4.835938 11.875 -5.921875 Z M 15.546875 -5.921875 "/></g></g></g><g fill="#000000" fill-opacity="1"><g transform="translate(173.141085, 367.754155)"><g><path d="M 10.796875 -4.65625 C 10.796875 -5.351562 10.550781 -5.882812 10.0625 -6.25 C 9.582031 -6.625 8.707031 -7.015625 7.4375 -7.421875 C 6.164062 -7.835938 5.160156 -8.242188 4.421875 -8.640625 C 2.398438 -9.734375 1.390625 -11.203125 1.390625 -13.046875 C 1.390625 -14.003906 1.660156 -14.859375 2.203125 -15.609375 C 2.742188 -16.367188 3.519531 -16.957031 4.53125 -17.375 C 5.550781 -17.800781 6.691406 -18.015625 7.953125 -18.015625 C 9.210938 -18.015625 10.335938 -17.785156 11.328125 -17.328125 C 12.328125 -16.867188 13.101562 -16.21875 13.65625 -15.375 C 14.207031 -14.539062 14.484375 -13.59375 14.484375 -12.53125 L 10.8125 -12.53125 C 10.8125 -13.34375 10.554688 -13.972656 10.046875 -14.421875 C 9.535156 -14.867188 8.816406 -15.09375 7.890625 -15.09375 C 6.992188 -15.09375 6.296875 -14.90625 5.796875 -14.53125 C 5.296875 -14.15625 5.046875 -13.65625 5.046875 -13.03125 C 5.046875 -12.457031 5.335938 -11.972656 5.921875 -11.578125 C 6.503906 -11.191406 7.363281 -10.828125 8.5 -10.484375 C 10.582031 -9.859375 12.097656 -9.082031 13.046875 -8.15625 C 14.003906 -7.226562 14.484375 -6.070312 14.484375 -4.6875 C 14.484375 -3.144531 13.898438 -1.9375 12.734375 -1.0625 C 11.566406 -0.1875 10 0.25 8.03125 0.25 C 6.664062 0.25 5.421875 0 4.296875 -0.5 C 3.171875 -1 2.3125 -1.6875 1.71875 -2.5625 C 1.132812 -3.4375 0.84375 -4.445312 0.84375 -5.59375 L 4.515625 -5.59375 C 4.515625 -3.632812 5.6875 -2.65625 8.03125 -2.65625 C 8.90625 -2.65625 9.582031 -2.832031 10.0625 -3.1875 C 10.550781 -3.539062 10.796875 -4.03125 10.796875 -4.65625 Z M 10.796875 -4.65625 "/></g></g></g><g fill="#000000" fill-opacity="1"><g transform="translate(188.50734, 367.754155)"><g><path d="M 10.796875 -4.65625 C 10.796875 -5.351562 10.550781 -5.882812 10.0625 -6.25 C 9.582031 -6.625 8.707031 -7.015625 7.4375 -7.421875 C 6.164062 -7.835938 5.160156 -8.242188 4.421875 -8.640625 C 2.398438 -9.734375 1.390625 -11.203125 1.390625 -13.046875 C 1.390625 -14.003906 1.660156 -14.859375 2.203125 -15.609375 C 2.742188 -16.367188 3.519531 -16.957031 4.53125 -17.375 C 5.550781 -17.800781 6.691406 -18.015625 7.953125 -18.015625 C 9.210938 -18.015625 10.335938 -17.785156 11.328125 -17.328125 C 12.328125 -16.867188 13.101562 -16.21875 13.65625 -15.375 C 14.207031 -14.539062 14.484375 -13.59375 14.484375 -12.53125 L 10.8125 -12.53125 C 10.8125 -13.34375 10.554688 -13.972656 10.046875 -14.421875 C 9.535156 -14.867188 8.816406 -15.09375 7.890625 -15.09375 C 6.992188 -15.09375 6.296875 -14.90625 5.796875 -14.53125 C 5.296875 -14.15625 5.046875 -13.65625 5.046875 -13.03125 C 5.046875 -12.457031 5.335938 -11.972656 5.921875 -11.578125 C 6.503906 -11.191406 7.363281 -10.828125 8.5 -10.484375 C 10.582031 -9.859375 12.097656 -9.082031 13.046875 -8.15625 C 14.003906 -7.226562 14.484375 -6.070312 14.484375 -4.6875 C 14.484375 -3.144531 13.898438 -1.9375 12.734375 -1.0625 C 11.566406 -0.1875 10 0.25 8.03125 0.25 C 6.664062 0.25 5.421875 0 4.296875 -0.5 C 3.171875 -1 2.3125 -1.6875 1.71875 -2.5625 C 1.132812 -3.4375 0.84375 -4.445312 0.84375 -5.59375 L 4.515625 -5.59375 C 4.515625 -3.632812 5.6875 -2.65625 8.03125 -2.65625 C 8.90625 -2.65625 9.582031 -2.832031 10.0625 -3.1875 C 10.550781 -3.539062 10.796875 -4.03125 10.796875 -4.65625 Z M 10.796875 -4.65625 "/></g></g></g><g fill="#000000" fill-opacity="1"><g transform="translate(203.873596, 367.754155)"><g><path d="M 4.796875 -10.453125 L 6.671875 -10.453125 C 7.566406 -10.453125 8.226562 -10.675781 8.65625 -11.125 C 9.09375 -11.570312 9.3125 -12.164062 9.3125 -12.90625 C 9.3125 -13.625 9.097656 -14.179688 8.671875 -14.578125 C 8.242188 -14.972656 7.65625 -15.171875 6.90625 -15.171875 C 6.226562 -15.171875 5.660156 -14.984375 5.203125 -14.609375 C 4.753906 -14.242188 4.53125 -13.765625 4.53125 -13.171875 L 1 -13.171875 C 1 -14.097656 1.25 -14.925781 1.75 -15.65625 C 2.25 -16.394531 2.945312 -16.972656 3.84375 -17.390625 C 4.75 -17.804688 5.742188 -18.015625 6.828125 -18.015625 C 8.703125 -18.015625 10.171875 -17.5625 11.234375 -16.65625 C 12.304688 -15.757812 12.84375 -14.523438 12.84375 -12.953125 C 12.84375 -12.140625 12.59375 -11.390625 12.09375 -10.703125 C 11.601562 -10.023438 10.953125 -9.5 10.140625 -9.125 C 11.140625 -8.769531 11.882812 -8.234375 12.375 -7.515625 C 12.875 -6.804688 13.125 -5.960938 13.125 -4.984375 C 13.125 -3.398438 12.546875 -2.128906 11.390625 -1.171875 C 10.242188 -0.222656 8.722656 0.25 6.828125 0.25 C 5.046875 0.25 3.59375 -0.21875 2.46875 -1.15625 C 1.34375 -2.09375 0.78125 -3.332031 0.78125 -4.875 L 4.3125 -4.875 C 4.3125 -4.207031 4.5625 -3.660156 5.0625 -3.234375 C 5.5625 -2.804688 6.175781 -2.59375 6.90625 -2.59375 C 7.75 -2.59375 8.40625 -2.816406 8.875 -3.265625 C 9.351562 -3.710938 9.59375 -4.300781 9.59375 -5.03125 C 9.59375 -6.800781 8.617188 -7.6875 6.671875 -7.6875 L 4.796875 -7.6875 Z M 4.796875 -10.453125 "/></g></g></g></svg>