<svg xmlns="http://www.w3.org/2000/svg" xmlns:xlink="http://www.w3.org/1999/xlink" width="500" zoomAndPan="magnify" viewBox="0 0 375 374.999991" height="500" preserveAspectRatio="xMidYMid meet" version="1.0"><defs><g/><clipPath id="2ec3e93f69"><path d="M 58 2.492188 L 317 2.492188 L 317 345.242188 L 58 345.242188 Z M 58 2.492188 " clip-rule="nonzero"/></clipPath><clipPath id="829bee871f"><path d="M 244 2.492188 L 317 2.492188 L 317 74 L 244 74 Z M 244 2.492188 " clip-rule="nonzero"/></clipPath></defs><rect x="-37.5" width="450" fill="#ffffff" y="-37.499999" height="449.999989" fill-opacity="1"/><rect x="-37.5" width="450" fill="#f3f6f4" y="-37.499999" height="449.999989" fill-opacity="1"/><g clip-path="url(#2ec3e93f69)"><path fill="#3498db" d="M 58.867188 337.578125 C 58.867188 329.992188 58.867188 131.988281 58.867188 10.078125 C 58.867188 2.492188 66.679688 2.492188 66.679688 2.492188 L 244.582031 2.492188 L 316.011719 73.898438 C 316.011719 73.898438 316.011719 329.992188 316.011719 337.652344 C 316.011719 345.242188 308.199219 345.242188 308.199219 345.242188 L 66.679688 345.242188 C 66.679688 345.242188 58.867188 345.242188 58.867188 337.578125 Z M 58.867188 337.578125 " fill-opacity="1" fill-rule="evenodd"/></g><path fill="#ecf0f1" d="M 73.152344 16.773438 L 244.582031 16.773438 L 301.726562 73.898438 L 301.726562 330.960938 L 73.152344 330.960938 Z M 73.152344 16.773438 " fill-opacity="1" fill-rule="evenodd"/><g clip-path="url(#829bee871f)"><path fill="#2980b9" d="M 244.582031 2.492188 L 244.582031 66.757812 C 244.582031 73.898438 251.726562 73.898438 251.726562 73.898438 L 316.011719 73.898438 Z M 244.582031 2.492188 " fill-opacity="1" fill-rule="evenodd"/></g><path fill="#2980b9" d="M 99.789062 146.046875 L 147.558594 146.046875 C 164.226562 146.046875 176.128906 148.800781 183.273438 154.230469 C 190.339844 159.660156 193.914062 168.808594 193.914062 181.601562 C 193.914062 196.105469 189.152344 207.335938 179.625 215.371094 C 170.101562 223.476562 156.785156 227.496094 139.597656 227.496094 L 127.765625 227.496094 L 127.765625 279.933594 L 99.789062 279.933594 Z M 127.765625 209.121094 L 133.273438 209.121094 C 143.019531 209.121094 150.757812 206.890625 156.414062 202.429688 C 162.066406 198.039062 164.894531 192.015625 164.894531 184.429688 C 164.894531 171.113281 156.1875 164.417969 138.851562 164.417969 L 127.765625 164.417969 Z M 200.164062 276.808594 L 200.164062 257.171875 C 213.703125 262.675781 225.3125 265.503906 234.984375 265.503906 C 246.21875 265.503906 251.800781 261.710938 251.800781 254.273438 C 251.800781 249.4375 247.1875 245.199219 237.886719 241.628906 L 228.660156 237.984375 C 218.613281 233.964844 211.398438 229.726562 207.082031 225.113281 C 202.765625 220.578125 200.609375 214.851562 200.609375 208.082031 C 200.609375 198.710938 204.253906 191.421875 211.621094 186.140625 C 218.988281 180.933594 229.253906 178.328125 242.425781 178.328125 C 250.683594 178.328125 260.578125 179.519531 271.964844 181.898438 L 271.964844 200.71875 C 261.027344 196.925781 251.875 195.066406 244.65625 195.066406 C 233.347656 195.066406 227.617188 198.5625 227.617188 205.402344 C 227.617188 209.941406 231.859375 213.734375 240.191406 216.859375 L 248.152344 219.90625 C 260.132812 224.296875 268.390625 228.757812 273.078125 233.296875 C 277.691406 237.835938 280 243.636719 280 250.703125 C 280 260.074219 276.054688 267.660156 268.167969 273.460938 C 260.207031 279.339844 249.863281 282.238281 237.140625 282.238281 C 224.9375 282.238281 212.589844 280.378906 200.164062 276.808594 C 200.164062 276.808594 212.589844 280.378906 200.164062 276.808594 Z M 200.164062 276.808594 " fill-opacity="1" fill-rule="evenodd"/><g fill="#000000" fill-opacity="1"><g transform="translate(87.144894, 367.754273)"><g><path d="M 11.625 -3.65625 L 5.203125 -3.65625 L 3.984375 0 L 0.078125 0 L 6.703125 -17.78125 L 10.09375 -17.78125 L 16.75 0 L 12.859375 0 Z M 6.1875 -6.625 L 10.625 -6.625 L 8.40625 -13.28125 Z M 6.1875 -6.625 "/></g></g></g><g fill="#000000" fill-opacity="1"><g transform="translate(103.963554, 367.754273)"><g><path d="M 0.8125 -6.703125 C 0.8125 -8.765625 1.269531 -10.40625 2.1875 -11.625 C 3.113281 -12.84375 4.378906 -13.453125 5.984375 -13.453125 C 7.265625 -13.453125 8.328125 -12.972656 9.171875 -12.015625 L 9.171875 -18.75 L 12.703125 -18.75 L 12.703125 0 L 9.515625 0 L 9.34375 -1.40625 C 8.46875 -0.300781 7.335938 0.25 5.953125 0.25 C 4.398438 0.25 3.15625 -0.363281 2.21875 -1.59375 C 1.28125 -2.820312 0.8125 -4.523438 0.8125 -6.703125 Z M 4.328125 -6.453125 C 4.328125 -5.210938 4.539062 -4.257812 4.96875 -3.59375 C 5.40625 -2.9375 6.035156 -2.609375 6.859375 -2.609375 C 7.953125 -2.609375 8.722656 -3.066406 9.171875 -3.984375 L 9.171875 -9.203125 C 8.734375 -10.117188 7.972656 -10.578125 6.890625 -10.578125 C 5.179688 -10.578125 4.328125 -9.203125 4.328125 -6.453125 Z M 4.328125 -6.453125 "/></g></g></g><g fill="#000000" fill-opacity="1"><g transform="translate(118.048265, 367.754273)"><g><path d="M 0.8125 -6.71875 C 0.8125 -8.03125 1.0625 -9.195312 1.5625 -10.21875 C 2.0625 -11.25 2.785156 -12.046875 3.734375 -12.609375 C 4.679688 -13.171875 5.785156 -13.453125 7.046875 -13.453125 C 8.828125 -13.453125 10.28125 -12.90625 11.40625 -11.8125 C 12.53125 -10.726562 13.160156 -9.25 13.296875 -7.375 L 13.3125 -6.46875 C 13.3125 -4.445312 12.742188 -2.820312 11.609375 -1.59375 C 10.484375 -0.363281 8.96875 0.25 7.0625 0.25 C 5.164062 0.25 3.648438 -0.359375 2.515625 -1.578125 C 1.378906 -2.804688 0.8125 -4.46875 0.8125 -6.5625 Z M 4.328125 -6.46875 C 4.328125 -5.21875 4.5625 -4.257812 5.03125 -3.59375 C 5.507812 -2.925781 6.1875 -2.59375 7.0625 -2.59375 C 7.914062 -2.59375 8.582031 -2.921875 9.0625 -3.578125 C 9.550781 -4.234375 9.796875 -5.28125 9.796875 -6.71875 C 9.796875 -7.945312 9.550781 -8.898438 9.0625 -9.578125 C 8.582031 -10.253906 7.910156 -10.59375 7.046875 -10.59375 C 6.179688 -10.59375 5.507812 -10.253906 5.03125 -9.578125 C 4.5625 -8.910156 4.328125 -7.875 4.328125 -6.46875 Z M 4.328125 -6.46875 "/></g></g></g><g fill="#000000" fill-opacity="1"><g transform="translate(132.181798, 367.754273)"><g><path d="M 13.25 -6.484375 C 13.25 -4.367188 12.796875 -2.71875 11.890625 -1.53125 C 10.992188 -0.34375 9.738281 0.25 8.125 0.25 C 6.6875 0.25 5.539062 -0.300781 4.6875 -1.40625 L 4.53125 0 L 1.359375 0 L 1.359375 -18.75 L 4.890625 -18.75 L 4.890625 -12.03125 C 5.703125 -12.976562 6.769531 -13.453125 8.09375 -13.453125 C 9.707031 -13.453125 10.96875 -12.859375 11.875 -11.671875 C 12.789062 -10.492188 13.25 -8.828125 13.25 -6.671875 Z M 9.734375 -6.734375 C 9.734375 -8.066406 9.519531 -9.039062 9.09375 -9.65625 C 8.664062 -10.269531 8.035156 -10.578125 7.203125 -10.578125 C 6.078125 -10.578125 5.304688 -10.117188 4.890625 -9.203125 L 4.890625 -3.984375 C 5.316406 -3.054688 6.097656 -2.59375 7.234375 -2.59375 C 8.367188 -2.59375 9.113281 -3.15625 9.46875 -4.28125 C 9.644531 -4.820312 9.734375 -5.640625 9.734375 -6.734375 Z M 9.734375 -6.734375 "/></g></g></g><g fill="#000000" fill-opacity="1"><g transform="translate(146.25431, 367.754273)"><g><path d="M 7.4375 0.25 C 5.5 0.25 3.921875 -0.34375 2.703125 -1.53125 C 1.484375 -2.726562 0.875 -4.3125 0.875 -6.28125 L 0.875 -6.625 C 0.875 -7.957031 1.128906 -9.144531 1.640625 -10.1875 C 2.160156 -11.226562 2.890625 -12.03125 3.828125 -12.59375 C 4.765625 -13.164062 5.835938 -13.453125 7.046875 -13.453125 C 8.847656 -13.453125 10.265625 -12.878906 11.296875 -11.734375 C 12.335938 -10.597656 12.859375 -8.984375 12.859375 -6.890625 L 12.859375 -5.453125 L 4.453125 -5.453125 C 4.566406 -4.585938 4.910156 -3.894531 5.484375 -3.375 C 6.054688 -2.851562 6.785156 -2.59375 7.671875 -2.59375 C 9.023438 -2.59375 10.085938 -3.085938 10.859375 -4.078125 L 12.578125 -2.140625 C 12.054688 -1.390625 11.34375 -0.800781 10.4375 -0.375 C 9.53125 0.0390625 8.53125 0.25 7.4375 0.25 Z M 7.03125 -10.59375 C 6.332031 -10.59375 5.765625 -10.359375 5.328125 -9.890625 C 4.890625 -9.421875 4.613281 -8.742188 4.5 -7.859375 L 9.40625 -7.859375 L 9.40625 -8.140625 C 9.382812 -8.921875 9.171875 -9.523438 8.765625 -9.953125 C 8.359375 -10.378906 7.78125 -10.59375 7.03125 -10.59375 Z M 7.03125 -10.59375 "/></g></g></g><g fill="#000000" fill-opacity="1"><g transform="translate(159.765387, 367.754273)"><g/></g></g><g fill="#000000" fill-opacity="1"><g transform="translate(165.99, 367.754273)"><g><path d="M 5.25 -6.265625 L 5.25 0 L 1.59375 0 L 1.59375 -17.78125 L 8.515625 -17.78125 C 9.847656 -17.78125 11.019531 -17.535156 12.03125 -17.046875 C 13.050781 -16.554688 13.832031 -15.859375 14.375 -14.953125 C 14.925781 -14.054688 15.203125 -13.035156 15.203125 -11.890625 C 15.203125 -10.148438 14.601562 -8.773438 13.40625 -7.765625 C 12.21875 -6.765625 10.566406 -6.265625 8.453125 -6.265625 Z M 5.25 -9.234375 L 8.515625 -9.234375 C 9.484375 -9.234375 10.222656 -9.457031 10.734375 -9.90625 C 11.242188 -10.363281 11.5 -11.015625 11.5 -11.859375 C 11.5 -12.734375 11.242188 -13.4375 10.734375 -13.96875 C 10.222656 -14.507812 9.515625 -14.789062 8.609375 -14.8125 L 5.25 -14.8125 Z M 5.25 -9.234375 "/></g></g></g><g fill="#000000" fill-opacity="1"><g transform="translate(182.112973, 367.754273)"><g><path d="M 4.796875 -11.765625 C 5.734375 -12.890625 6.910156 -13.453125 8.328125 -13.453125 C 11.191406 -13.453125 12.644531 -11.785156 12.6875 -8.453125 L 12.6875 0 L 9.15625 0 L 9.15625 -8.359375 C 9.15625 -9.117188 8.988281 -9.675781 8.65625 -10.03125 C 8.332031 -10.394531 7.796875 -10.578125 7.046875 -10.578125 C 6.015625 -10.578125 5.265625 -10.179688 4.796875 -9.390625 L 4.796875 0 L 1.265625 0 L 1.265625 -18.75 L 4.796875 -18.75 Z M 4.796875 -11.765625 "/></g></g></g><g fill="#000000" fill-opacity="1"><g transform="translate(196.100044, 367.754273)"><g><path d="M 0.8125 -6.71875 C 0.8125 -8.03125 1.0625 -9.195312 1.5625 -10.21875 C 2.0625 -11.25 2.785156 -12.046875 3.734375 -12.609375 C 4.679688 -13.171875 5.785156 -13.453125 7.046875 -13.453125 C 8.828125 -13.453125 10.28125 -12.90625 11.40625 -11.8125 C 12.53125 -10.726562 13.160156 -9.25 13.296875 -7.375 L 13.3125 -6.46875 C 13.3125 -4.445312 12.742188 -2.820312 11.609375 -1.59375 C 10.484375 -0.363281 8.96875 0.25 7.0625 0.25 C 5.164062 0.25 3.648438 -0.359375 2.515625 -1.578125 C 1.378906 -2.804688 0.8125 -4.46875 0.8125 -6.5625 Z M 4.328125 -6.46875 C 4.328125 -5.21875 4.5625 -4.257812 5.03125 -3.59375 C 5.507812 -2.925781 6.1875 -2.59375 7.0625 -2.59375 C 7.914062 -2.59375 8.582031 -2.921875 9.0625 -3.578125 C 9.550781 -4.234375 9.796875 -5.28125 9.796875 -6.71875 C 9.796875 -7.945312 9.550781 -8.898438 9.0625 -9.578125 C 8.582031 -10.253906 7.910156 -10.59375 7.046875 -10.59375 C 6.179688 -10.59375 5.507812 -10.253906 5.03125 -9.578125 C 4.5625 -8.910156 4.328125 -7.875 4.328125 -6.46875 Z M 4.328125 -6.46875 "/></g></g></g><g fill="#000000" fill-opacity="1"><g transform="translate(210.233577, 367.754273)"><g><path d="M 5.578125 -16.453125 L 5.578125 -13.203125 L 7.84375 -13.203125 L 7.84375 -10.625 L 5.578125 -10.625 L 5.578125 -4.03125 C 5.578125 -3.539062 5.671875 -3.1875 5.859375 -2.96875 C 6.046875 -2.757812 6.40625 -2.65625 6.9375 -2.65625 C 7.320312 -2.65625 7.664062 -2.6875 7.96875 -2.75 L 7.96875 -0.078125 C 7.28125 0.140625 6.566406 0.25 5.828125 0.25 C 3.359375 0.25 2.097656 -1 2.046875 -3.5 L 2.046875 -10.625 L 0.125 -10.625 L 0.125 -13.203125 L 2.046875 -13.203125 L 2.046875 -16.453125 Z M 5.578125 -16.453125 "/></g></g></g><g fill="#000000" fill-opacity="1"><g transform="translate(218.679522, 367.754273)"><g><path d="M 0.8125 -6.71875 C 0.8125 -8.03125 1.0625 -9.195312 1.5625 -10.21875 C 2.0625 -11.25 2.785156 -12.046875 3.734375 -12.609375 C 4.679688 -13.171875 5.785156 -13.453125 7.046875 -13.453125 C 8.828125 -13.453125 10.28125 -12.90625 11.40625 -11.8125 C 12.53125 -10.726562 13.160156 -9.25 13.296875 -7.375 L 13.3125 -6.46875 C 13.3125 -4.445312 12.742188 -2.820312 11.609375 -1.59375 C 10.484375 -0.363281 8.96875 0.25 7.0625 0.25 C 5.164062 0.25 3.648438 -0.359375 2.515625 -1.578125 C 1.378906 -2.804688 0.8125 -4.46875 0.8125 -6.5625 Z M 4.328125 -6.46875 C 4.328125 -5.21875 4.5625 -4.257812 5.03125 -3.59375 C 5.507812 -2.925781 6.1875 -2.59375 7.0625 -2.59375 C 7.914062 -2.59375 8.582031 -2.921875 9.0625 -3.578125 C 9.550781 -4.234375 9.796875 -5.28125 9.796875 -6.71875 C 9.796875 -7.945312 9.550781 -8.898438 9.0625 -9.578125 C 8.582031 -10.253906 7.910156 -10.59375 7.046875 -10.59375 C 6.179688 -10.59375 5.507812 -10.253906 5.03125 -9.578125 C 4.5625 -8.910156 4.328125 -7.875 4.328125 -6.46875 Z M 4.328125 -6.46875 "/></g></g></g><g fill="#000000" fill-opacity="1"><g transform="translate(232.813054, 367.754273)"><g><path d="M 8.515625 -3.65625 C 8.515625 -4.082031 8.300781 -4.421875 7.875 -4.671875 C 7.445312 -4.921875 6.757812 -5.140625 5.8125 -5.328125 C 2.664062 -5.992188 1.09375 -7.332031 1.09375 -9.34375 C 1.09375 -10.507812 1.578125 -11.484375 2.546875 -12.265625 C 3.523438 -13.054688 4.800781 -13.453125 6.375 -13.453125 C 8.050781 -13.453125 9.390625 -13.054688 10.390625 -12.265625 C 11.398438 -11.472656 11.90625 -10.445312 11.90625 -9.1875 L 8.375 -9.1875 C 8.375 -9.695312 8.207031 -10.113281 7.875 -10.4375 C 7.550781 -10.769531 7.046875 -10.9375 6.359375 -10.9375 C 5.765625 -10.9375 5.304688 -10.800781 4.984375 -10.53125 C 4.660156 -10.257812 4.5 -9.921875 4.5 -9.515625 C 4.5 -9.117188 4.679688 -8.800781 5.046875 -8.5625 C 5.421875 -8.320312 6.046875 -8.113281 6.921875 -7.9375 C 7.796875 -7.757812 8.535156 -7.5625 9.140625 -7.34375 C 11.003906 -6.664062 11.9375 -5.484375 11.9375 -3.796875 C 11.9375 -2.585938 11.421875 -1.609375 10.390625 -0.859375 C 9.359375 -0.117188 8.023438 0.25 6.390625 0.25 C 5.273438 0.25 4.289062 0.0507812 3.4375 -0.34375 C 2.582031 -0.738281 1.910156 -1.28125 1.421875 -1.96875 C 0.929688 -2.65625 0.6875 -3.398438 0.6875 -4.203125 L 4.03125 -4.203125 C 4.0625 -3.578125 4.289062 -3.097656 4.71875 -2.765625 C 5.15625 -2.429688 5.734375 -2.265625 6.453125 -2.265625 C 7.128906 -2.265625 7.640625 -2.390625 7.984375 -2.640625 C 8.335938 -2.898438 8.515625 -3.238281 8.515625 -3.65625 Z M 8.515625 -3.65625 "/></g></g></g><g fill="#000000" fill-opacity="1"><g transform="translate(245.665055, 367.754273)"><g><path d="M 4.796875 -11.765625 C 5.734375 -12.890625 6.910156 -13.453125 8.328125 -13.453125 C 11.191406 -13.453125 12.644531 -11.785156 12.6875 -8.453125 L 12.6875 0 L 9.15625 0 L 9.15625 -8.359375 C 9.15625 -9.117188 8.988281 -9.675781 8.65625 -10.03125 C 8.332031 -10.394531 7.796875 -10.578125 7.046875 -10.578125 C 6.015625 -10.578125 5.265625 -10.179688 4.796875 -9.390625 L 4.796875 0 L 1.265625 0 L 1.265625 -18.75 L 4.796875 -18.75 Z M 4.796875 -11.765625 "/></g></g></g><g fill="#000000" fill-opacity="1"><g transform="translate(259.652126, 367.754273)"><g><path d="M 0.8125 -6.71875 C 0.8125 -8.03125 1.0625 -9.195312 1.5625 -10.21875 C 2.0625 -11.25 2.785156 -12.046875 3.734375 -12.609375 C 4.679688 -13.171875 5.785156 -13.453125 7.046875 -13.453125 C 8.828125 -13.453125 10.28125 -12.90625 11.40625 -11.8125 C 12.53125 -10.726562 13.160156 -9.25 13.296875 -7.375 L 13.3125 -6.46875 C 13.3125 -4.445312 12.742188 -2.820312 11.609375 -1.59375 C 10.484375 -0.363281 8.96875 0.25 7.0625 0.25 C 5.164062 0.25 3.648438 -0.359375 2.515625 -1.578125 C 1.378906 -2.804688 0.8125 -4.46875 0.8125 -6.5625 Z M 4.328125 -6.46875 C 4.328125 -5.21875 4.5625 -4.257812 5.03125 -3.59375 C 5.507812 -2.925781 6.1875 -2.59375 7.0625 -2.59375 C 7.914062 -2.59375 8.582031 -2.921875 9.0625 -3.578125 C 9.550781 -4.234375 9.796875 -5.28125 9.796875 -6.71875 C 9.796875 -7.945312 9.550781 -8.898438 9.0625 -9.578125 C 8.582031 -10.253906 7.910156 -10.59375 7.046875 -10.59375 C 6.179688 -10.59375 5.507812 -10.253906 5.03125 -9.578125 C 4.5625 -8.910156 4.328125 -7.875 4.328125 -6.46875 Z M 4.328125 -6.46875 "/></g></g></g><g fill="#000000" fill-opacity="1"><g transform="translate(273.785658, 367.754273)"><g><path d="M 13.25 -6.484375 C 13.25 -4.453125 12.785156 -2.820312 11.859375 -1.59375 C 10.929688 -0.363281 9.6875 0.25 8.125 0.25 C 6.78125 0.25 5.703125 -0.210938 4.890625 -1.140625 L 4.890625 5.078125 L 1.359375 5.078125 L 1.359375 -13.203125 L 4.625 -13.203125 L 4.75 -11.921875 C 5.601562 -12.941406 6.71875 -13.453125 8.09375 -13.453125 C 9.71875 -13.453125 10.984375 -12.847656 11.890625 -11.640625 C 12.796875 -10.441406 13.25 -8.785156 13.25 -6.671875 Z M 9.71875 -6.734375 C 9.71875 -7.960938 9.5 -8.910156 9.0625 -9.578125 C 8.625 -10.242188 7.992188 -10.578125 7.171875 -10.578125 C 6.054688 -10.578125 5.296875 -10.15625 4.890625 -9.3125 L 4.890625 -3.90625 C 5.316406 -3.03125 6.082031 -2.59375 7.1875 -2.59375 C 8.875 -2.59375 9.71875 -3.972656 9.71875 -6.734375 Z M 9.71875 -6.734375 "/></g></g></g></svg>