<svg xmlns="http://www.w3.org/2000/svg" xmlns:xlink="http://www.w3.org/1999/xlink" width="500" zoomAndPan="magnify" viewBox="0 0 375 374.999991" height="500" preserveAspectRatio="xMidYMid meet" version="1.0"><defs><g/><clipPath id="c7e7831def"><path d="M 15.234375 0.976562 L 359.484375 0.976562 L 359.484375 345.226562 L 15.234375 345.226562 Z M 15.234375 0.976562 " clip-rule="nonzero"/></clipPath></defs><rect x="-37.5" width="450" fill="#ffffff" y="-37.499999" height="449.999989" fill-opacity="1"/><rect x="-37.5" width="450" fill="#f3f6f4" y="-37.499999" height="449.999989" fill-opacity="1"/><g clip-path="url(#c7e7831def)"><path fill="#f03c2e" d="M 352.988281 157.769531 L 202.691406 7.472656 C 202.175781 6.960938 201.640625 6.472656 201.078125 6.011719 C 200.519531 5.550781 199.933594 5.117188 199.332031 4.714844 C 198.726562 4.3125 198.105469 3.9375 197.464844 3.597656 C 196.824219 3.253906 196.171875 2.945312 195.5 2.667969 C 194.828125 2.386719 194.144531 2.144531 193.453125 1.933594 C 192.757812 1.722656 192.054688 1.546875 191.339844 1.40625 C 190.628906 1.261719 189.910156 1.15625 189.1875 1.085938 C 188.464844 1.015625 187.742188 0.976562 187.015625 0.976562 C 186.289062 0.976562 185.566406 1.015625 184.84375 1.085938 C 184.121094 1.15625 183.402344 1.261719 182.691406 1.40625 C 181.980469 1.546875 181.277344 1.722656 180.582031 1.933594 C 179.886719 2.144531 179.203125 2.386719 178.53125 2.667969 C 177.863281 2.945312 177.207031 3.253906 176.566406 3.597656 C 175.925781 3.9375 175.304688 4.3125 174.699219 4.714844 C 174.097656 5.117188 173.515625 5.550781 172.953125 6.011719 C 172.394531 6.472656 171.855469 6.960938 171.34375 7.472656 L 140.144531 38.671875 L 179.734375 78.257812 C 188.941406 75.03125 199.484375 77.238281 206.820312 84.574219 C 207.691406 85.445312 208.496094 86.371094 209.234375 87.355469 C 209.972656 88.335938 210.640625 89.367188 211.234375 90.441406 C 211.828125 91.519531 212.347656 92.632812 212.785156 93.78125 C 213.226562 94.929688 213.582031 96.101562 213.855469 97.300781 C 214.132812 98.5 214.324219 99.710938 214.425781 100.9375 C 214.53125 102.164062 214.550781 103.390625 214.484375 104.617188 C 214.417969 105.847656 214.269531 107.0625 214.03125 108.269531 C 213.792969 109.476562 213.472656 110.660156 213.070312 111.824219 L 251.230469 149.980469 C 260.460938 146.796875 271.109375 148.851562 278.480469 156.242188 C 279.089844 156.855469 279.671875 157.492188 280.21875 158.160156 C 280.769531 158.828125 281.28125 159.523438 281.761719 160.242188 C 282.242188 160.960938 282.6875 161.699219 283.09375 162.460938 C 283.503906 163.226562 283.871094 164.003906 284.203125 164.804688 C 284.535156 165.601562 284.824219 166.414062 285.074219 167.242188 C 285.328125 168.070312 285.535156 168.90625 285.707031 169.753906 C 285.875 170.601562 286 171.457031 286.085938 172.316406 C 286.171875 173.175781 286.214844 174.039062 286.214844 174.902344 C 286.214844 175.769531 286.171875 176.628906 286.085938 177.492188 C 286.003906 178.351562 285.875 179.203125 285.707031 180.050781 C 285.539062 180.898438 285.328125 181.738281 285.078125 182.566406 C 284.828125 183.390625 284.535156 184.203125 284.203125 185.003906 C 283.875 185.800781 283.503906 186.582031 283.097656 187.34375 C 282.691406 188.105469 282.246094 188.847656 281.765625 189.566406 C 281.285156 190.285156 280.769531 190.976562 280.222656 191.648438 C 279.675781 192.316406 279.09375 192.953125 278.484375 193.566406 C 277.871094 194.175781 277.230469 194.757812 276.5625 195.304688 C 275.894531 195.851562 275.203125 196.367188 274.484375 196.847656 C 273.765625 197.328125 273.023438 197.769531 272.261719 198.179688 C 271.5 198.585938 270.71875 198.953125 269.917969 199.285156 C 269.121094 199.617188 268.308594 199.90625 267.480469 200.15625 C 266.652344 200.40625 265.816406 200.617188 264.96875 200.785156 C 264.121094 200.953125 263.265625 201.082031 262.40625 201.164062 C 261.546875 201.25 260.683594 201.289062 259.820312 201.289062 C 258.953125 201.289062 258.09375 201.246094 257.230469 201.164062 C 256.371094 201.078125 255.519531 200.949219 254.671875 200.78125 C 253.820312 200.613281 252.984375 200.402344 252.15625 200.152344 C 251.332031 199.898438 250.519531 199.609375 249.71875 199.277344 C 248.921875 198.945312 248.140625 198.578125 247.378906 198.167969 C 246.617188 197.761719 245.875 197.316406 245.15625 196.835938 C 244.441406 196.355469 243.746094 195.839844 243.078125 195.292969 C 242.410156 194.742188 241.769531 194.164062 241.160156 193.550781 C 233.414062 185.804688 231.5 174.402344 235.414062 164.859375 L 199.828125 129.273438 L 199.828125 222.917969 C 202.429688 224.207031 204.761719 225.871094 206.820312 227.910156 C 207.433594 228.523438 208.011719 229.160156 208.558594 229.828125 C 209.109375 230.496094 209.621094 231.191406 210.101562 231.910156 C 210.582031 232.628906 211.027344 233.367188 211.433594 234.128906 C 211.839844 234.890625 212.210938 235.671875 212.539062 236.46875 C 212.871094 237.269531 213.160156 238.082031 213.414062 238.90625 C 213.664062 239.734375 213.871094 240.570312 214.042969 241.417969 C 214.210938 242.265625 214.335938 243.121094 214.421875 243.980469 C 214.507812 244.839844 214.546875 245.703125 214.546875 246.566406 C 214.546875 247.429688 214.507812 248.292969 214.421875 249.152344 C 214.335938 250.011719 214.210938 250.863281 214.042969 251.710938 C 213.871094 252.558594 213.664062 253.398438 213.414062 254.222656 C 213.160156 255.050781 212.871094 255.863281 212.539062 256.660156 C 212.210938 257.460938 211.839844 258.238281 211.433594 259 C 211.027344 259.761719 210.582031 260.503906 210.101562 261.222656 C 209.621094 261.941406 209.109375 262.632812 208.558594 263.300781 C 208.011719 263.96875 207.433594 264.609375 206.820312 265.21875 C 206.210938 265.832031 205.570312 266.410156 204.902344 266.957031 C 204.234375 267.507812 203.542969 268.019531 202.824219 268.5 C 202.105469 268.980469 201.367188 269.425781 200.601562 269.832031 C 199.839844 270.238281 199.0625 270.609375 198.261719 270.9375 C 197.464844 271.269531 196.652344 271.558594 195.824219 271.808594 C 195 272.0625 194.160156 272.269531 193.3125 272.4375 C 192.464844 272.609375 191.613281 272.734375 190.753906 272.820312 C 189.894531 272.902344 189.03125 272.945312 188.167969 272.945312 C 187.304688 272.945312 186.441406 272.902344 185.582031 272.820312 C 184.722656 272.734375 183.867188 272.609375 183.019531 272.4375 C 182.171875 272.269531 181.335938 272.0625 180.507812 271.808594 C 179.683594 271.558594 178.871094 271.269531 178.070312 270.9375 C 177.273438 270.609375 176.492188 270.238281 175.730469 269.832031 C 174.96875 269.425781 174.230469 268.980469 173.511719 268.5 C 172.792969 268.019531 172.097656 267.507812 171.429688 266.957031 C 170.765625 266.410156 170.125 265.832031 169.511719 265.21875 C 168.902344 264.609375 168.320312 263.96875 167.773438 263.300781 C 167.222656 262.632812 166.710938 261.941406 166.230469 261.222656 C 165.746094 260.503906 165.304688 259.765625 164.894531 259.003906 C 164.488281 258.242188 164.117188 257.460938 163.789062 256.664062 C 163.457031 255.863281 163.164062 255.050781 162.914062 254.226562 C 162.664062 253.398438 162.453125 252.5625 162.285156 251.714844 C 162.117188 250.867188 161.988281 250.011719 161.902344 249.152344 C 161.820312 248.292969 161.777344 247.429688 161.777344 246.566406 C 161.777344 245.703125 161.820312 244.839844 161.902344 243.980469 C 161.988281 243.117188 162.117188 242.265625 162.285156 241.417969 C 162.453125 240.570312 162.664062 239.734375 162.914062 238.90625 C 163.164062 238.078125 163.457031 237.265625 163.789062 236.46875 C 164.117188 235.667969 164.488281 234.890625 164.894531 234.128906 C 165.304688 233.367188 165.746094 232.625 166.230469 231.90625 C 166.710938 231.1875 167.222656 230.496094 167.773438 229.828125 C 168.320312 229.160156 168.902344 228.523438 169.511719 227.910156 C 172.0625 225.371094 174.890625 223.445312 178.152344 222.15625 L 178.152344 127.636719 C 175.011719 126.347656 172.0625 124.441406 169.511719 121.882812 C 168.59375 120.960938 167.746094 119.980469 166.96875 118.933594 C 166.195312 117.890625 165.5 116.792969 164.886719 115.644531 C 164.273438 114.496094 163.75 113.308594 163.3125 112.082031 C 162.875 110.855469 162.53125 109.605469 162.277344 108.328125 C 162.027344 107.050781 161.871094 105.761719 161.8125 104.460938 C 161.75 103.160156 161.785156 101.863281 161.917969 100.566406 C 162.050781 99.273438 162.277344 97.996094 162.597656 96.734375 C 162.917969 95.472656 163.328125 94.242188 163.832031 93.039062 L 124.78125 54.011719 L 21.722656 156.964844 C 21.207031 157.476562 20.722656 158.015625 20.261719 158.574219 C 19.800781 159.136719 19.367188 159.71875 18.960938 160.324219 C 18.558594 160.925781 18.1875 161.546875 17.84375 162.1875 C 17.5 162.828125 17.191406 163.484375 16.910156 164.15625 C 16.632812 164.828125 16.390625 165.511719 16.179688 166.207031 C 15.96875 166.902344 15.789062 167.605469 15.648438 168.316406 C 15.507812 169.027344 15.402344 169.746094 15.328125 170.46875 C 15.257812 171.191406 15.222656 171.917969 15.222656 172.644531 C 15.222656 173.371094 15.257812 174.09375 15.328125 174.816406 C 15.402344 175.539062 15.507812 176.257812 15.648438 176.96875 C 15.789062 177.683594 15.96875 178.386719 16.179688 179.082031 C 16.390625 179.777344 16.632812 180.457031 16.910156 181.128906 C 17.191406 181.800781 17.5 182.457031 17.84375 183.097656 C 18.1875 183.738281 18.558594 184.359375 18.960938 184.964844 C 19.367188 185.566406 19.800781 186.148438 20.261719 186.710938 C 20.722656 187.273438 21.207031 187.808594 21.722656 188.324219 L 172.03125 338.609375 C 172.542969 339.121094 173.082031 339.609375 173.640625 340.070312 C 174.203125 340.53125 174.785156 340.964844 175.390625 341.367188 C 175.992188 341.769531 176.613281 342.144531 177.253906 342.484375 C 177.894531 342.828125 178.550781 343.136719 179.222656 343.414062 C 179.890625 343.695312 180.574219 343.9375 181.269531 344.148438 C 181.964844 344.359375 182.667969 344.535156 183.378906 344.679688 C 184.09375 344.820312 184.808594 344.925781 185.53125 344.996094 C 186.253906 345.066406 186.980469 345.105469 187.703125 345.105469 C 188.429688 345.105469 189.15625 345.066406 189.878906 344.996094 C 190.601562 344.925781 191.316406 344.820312 192.03125 344.679688 C 192.742188 344.535156 193.445312 344.359375 194.140625 344.148438 C 194.835938 343.9375 195.515625 343.695312 196.1875 343.414062 C 196.859375 343.136719 197.515625 342.828125 198.15625 342.484375 C 198.792969 342.144531 199.417969 341.769531 200.019531 341.367188 C 200.625 340.964844 201.207031 340.53125 201.765625 340.070312 C 202.328125 339.609375 202.867188 339.121094 203.378906 338.609375 L 352.988281 189.238281 C 353.5 188.722656 353.988281 188.1875 354.449219 187.625 C 354.910156 187.0625 355.34375 186.480469 355.746094 185.878906 C 356.152344 185.273438 356.523438 184.652344 356.867188 184.011719 C 357.210938 183.371094 357.519531 182.714844 357.796875 182.042969 C 358.078125 181.375 358.320312 180.691406 358.53125 179.996094 C 358.742188 179.300781 358.917969 178.597656 359.0625 177.882812 C 359.203125 177.171875 359.308594 176.453125 359.382812 175.730469 C 359.453125 175.007812 359.488281 174.285156 359.488281 173.558594 C 359.488281 172.832031 359.453125 172.105469 359.382812 171.382812 C 359.308594 170.660156 359.203125 169.941406 359.0625 169.230469 C 358.917969 168.519531 358.742188 167.816406 358.53125 167.121094 C 358.320312 166.425781 358.078125 165.742188 357.796875 165.070312 C 357.519531 164.398438 357.210938 163.742188 356.867188 163.105469 C 356.523438 162.464844 356.152344 161.839844 355.746094 161.238281 C 355.34375 160.632812 354.910156 160.050781 354.449219 159.488281 C 353.988281 158.929688 353.5 158.390625 352.988281 157.878906 " fill-opacity="1" fill-rule="nonzero"/></g><g fill="#000000" fill-opacity="1"><g transform="translate(171.450639, 367.754273)"><g><path d="M 15.65625 -2.25 C 14.988281 -1.457031 14.050781 -0.84375 12.84375 -0.40625 C 11.644531 0.03125 10.3125 0.25 8.84375 0.25 C 7.3125 0.25 5.960938 -0.0820312 4.796875 -0.75 C 3.640625 -1.425781 2.742188 -2.40625 2.109375 -3.6875 C 1.484375 -4.96875 1.160156 -6.46875 1.140625 -8.1875 L 1.140625 -9.40625 C 1.140625 -11.175781 1.4375 -12.707031 2.03125 -14 C 2.632812 -15.300781 3.5 -16.296875 4.625 -16.984375 C 5.757812 -17.671875 7.082031 -18.015625 8.59375 -18.015625 C 10.695312 -18.015625 12.34375 -17.507812 13.53125 -16.5 C 14.71875 -15.5 15.425781 -14.039062 15.65625 -12.125 L 12.078125 -12.125 C 11.921875 -13.132812 11.5625 -13.875 11 -14.34375 C 10.445312 -14.820312 9.679688 -15.0625 8.703125 -15.0625 C 7.460938 -15.0625 6.515625 -14.59375 5.859375 -13.65625 C 5.210938 -12.71875 4.882812 -11.328125 4.875 -9.484375 L 4.875 -8.34375 C 4.875 -6.476562 5.226562 -5.070312 5.9375 -4.125 C 6.644531 -3.175781 7.679688 -2.703125 9.046875 -2.703125 C 10.421875 -2.703125 11.398438 -2.992188 11.984375 -3.578125 L 11.984375 -6.640625 L 8.65625 -6.640625 L 8.65625 -9.34375 L 15.65625 -9.34375 Z M 15.65625 -2.25 "/></g></g></g><g fill="#000000" fill-opacity="1"><g transform="translate(188.476791, 367.754273)"><g><path d="M 5.078125 0 L 1.53125 0 L 1.53125 -13.203125 L 5.078125 -13.203125 Z M 1.328125 -16.625 C 1.328125 -17.15625 1.503906 -17.585938 1.859375 -17.921875 C 2.210938 -18.265625 2.695312 -18.4375 3.3125 -18.4375 C 3.914062 -18.4375 4.394531 -18.265625 4.75 -17.921875 C 5.101562 -17.585938 5.28125 -17.15625 5.28125 -16.625 C 5.28125 -16.09375 5.097656 -15.65625 4.734375 -15.3125 C 4.378906 -14.96875 3.90625 -14.796875 3.3125 -14.796875 C 2.71875 -14.796875 2.238281 -14.96875 1.875 -15.3125 C 1.507812 -15.65625 1.328125 -16.09375 1.328125 -16.625 Z M 1.328125 -16.625 "/></g></g></g><g fill="#000000" fill-opacity="1"><g transform="translate(195.104179, 367.754273)"><g><path d="M 5.578125 -16.453125 L 5.578125 -13.203125 L 7.84375 -13.203125 L 7.84375 -10.625 L 5.578125 -10.625 L 5.578125 -4.03125 C 5.578125 -3.539062 5.671875 -3.1875 5.859375 -2.96875 C 6.046875 -2.757812 6.40625 -2.65625 6.9375 -2.65625 C 7.320312 -2.65625 7.664062 -2.6875 7.96875 -2.75 L 7.96875 -0.078125 C 7.28125 0.140625 6.566406 0.25 5.828125 0.25 C 3.359375 0.25 2.097656 -1 2.046875 -3.5 L 2.046875 -10.625 L 0.125 -10.625 L 0.125 -13.203125 L 2.046875 -13.203125 L 2.046875 -16.453125 Z M 5.578125 -16.453125 "/></g></g></g></svg>