<svg xmlns="http://www.w3.org/2000/svg" xmlns:xlink="http://www.w3.org/1999/xlink" width="500" zoomAndPan="magnify" viewBox="0 0 375 374.999991" height="500" preserveAspectRatio="xMidYMid meet" version="1.0"><defs><g/><clipPath id="812ea02824"><path d="M 62.902344 37.5 L 312.097656 37.5 L 312.097656 327.476562 L 62.902344 327.476562 Z M 62.902344 37.5 " clip-rule="nonzero"/></clipPath><clipPath id="605e8f04e4"><path d="M 187.5 37.5 L 312.097656 109.992188 L 312.097656 254.980469 L 187.5 327.476562 L 62.902344 254.980469 L 62.902344 109.992188 L 187.5 37.5 " clip-rule="nonzero"/></clipPath><clipPath id="f5f4857405"><path d="M 2.601562 151.035156 L 48.351562 151.035156 L 48.351562 214.035156 L 2.601562 214.035156 Z M 2.601562 151.035156 " clip-rule="nonzero"/></clipPath><clipPath id="dc18d84d63"><path d="M 326.347656 151.035156 L 372.097656 151.035156 L 372.097656 214.035156 L 326.347656 214.035156 Z M 326.347656 151.035156 " clip-rule="nonzero"/></clipPath></defs><rect x="-37.5" width="450" fill="#ffffff" y="-37.499999" height="449.999989" fill-opacity="1"/><rect x="-37.5" width="450" fill="#ffffff" y="-37.499999" height="449.999989" fill-opacity="1"/><rect x="-37.5" width="450" fill="#3c3d3c" y="-37.499999" height="449.999989" fill-opacity="1"/><g clip-path="url(#812ea02824)"><g clip-path="url(#605e8f04e4)"><path fill="#ffffff" d="M 62.902344 37.5 L 312.097656 37.5 L 312.097656 327.476562 L 62.902344 327.476562 Z M 62.902344 37.5 " fill-opacity="1" fill-rule="nonzero"/></g></g><g fill="#3c3d3c" fill-opacity="1"><g transform="translate(100.103967, 227.115652)"><g><path d="M 17.195312 28.855469 C 17.941406 29.15625 18.09375 29.007812 18.539062 28.410156 C 18.988281 27.363281 19.289062 26.316406 19.585938 25.269531 C 20.335938 22.128906 20.933594 18.988281 21.679688 16 C 22.277344 13.457031 23.027344 11.066406 24.222656 8.820312 C 26.765625 4.1875 29.457031 -0.148438 32.445312 -4.484375 L 39.324219 -14.355469 C 39.921875 -14.953125 40.070312 -15.101562 40.667969 -14.503906 C 43.210938 -12.109375 46.351562 -10.464844 49.492188 -8.972656 C 54.125 -6.726562 59.058594 -6.429688 64.144531 -7.476562 C 67.734375 -8.074219 70.871094 -9.570312 74.011719 -11.363281 C 77.898438 -13.753906 81.488281 -16.746094 84.777344 -20.035156 C 91.65625 -26.765625 98.085938 -34.089844 103.917969 -41.867188 C 105.261719 -43.660156 106.457031 -45.605469 107.65625 -47.546875 C 108.101562 -48.144531 107.953125 -48.296875 107.503906 -48.742188 L 106.757812 -49.191406 C 106.457031 -49.492188 106.007812 -49.492188 105.710938 -49.042969 C 104.8125 -47.847656 103.765625 -46.648438 102.871094 -45.304688 C 97.1875 -37.828125 91.058594 -30.652344 84.480469 -23.921875 C 81.1875 -20.632812 77.898438 -17.644531 74.160156 -15.25 C 69.226562 -11.960938 63.996094 -9.71875 58.164062 -9.269531 C 54.277344 -8.972656 50.539062 -9.570312 46.949219 -11.214844 C 44.707031 -12.261719 43.0625 -14.054688 41.566406 -16 C 41.265625 -16.445312 41.117188 -16.746094 41.417969 -17.195312 L 41.867188 -17.792969 C 48.742188 -26.914062 55.921875 -35.734375 63.097656 -44.558594 C 67.285156 -49.640625 71.769531 -54.875 75.957031 -60.105469 C 81.039062 -66.6875 86.273438 -73.414062 91.507812 -79.992188 C 92.851562 -81.789062 94.347656 -83.433594 95.691406 -85.226562 C 96.589844 -86.421875 96.441406 -86.871094 95.09375 -87.617188 C 95.09375 -87.769531 95.09375 -87.769531 94.945312 -87.769531 C 94.796875 -87.769531 94.496094 -87.769531 94.347656 -87.617188 C 94.199219 -87.46875 93.898438 -87.171875 93.75 -86.871094 L 82.835938 -73.414062 C 76.253906 -65.042969 69.675781 -56.667969 62.648438 -48.59375 C 54.875 -39.472656 47.398438 -30.054688 40.222656 -20.484375 C 39.921875 -20.183594 39.773438 -19.585938 39.023438 -19.4375 C 38.875 -19.738281 38.574219 -20.035156 38.425781 -20.183594 C 36.929688 -22.429688 35.585938 -24.820312 34.238281 -27.0625 C 33.640625 -28.109375 33.640625 -29.007812 33.941406 -30.203125 C 36.183594 -38.128906 38.574219 -46.203125 40.667969 -54.277344 C 43.511719 -64.890625 46.203125 -75.359375 47.996094 -86.273438 C 48.445312 -89.261719 48.894531 -92.253906 49.042969 -95.394531 C 49.042969 -97.636719 48.296875 -99.429688 46.203125 -100.628906 C 45.003906 -101.375 43.808594 -101.523438 42.464844 -100.925781 C 40.96875 -100.328125 39.621094 -99.582031 38.277344 -98.683594 C 35.285156 -96.589844 32.445312 -94.199219 29.753906 -91.65625 C 24.371094 -86.421875 19.585938 -80.589844 15.25 -74.3125 C 10.464844 -67.582031 6.578125 -60.40625 3.738281 -52.632812 C 1.792969 -47.695312 0.300781 -42.613281 0 -37.230469 C -0.148438 -33.792969 0.148438 -30.503906 1.496094 -27.210938 C 2.390625 -24.820312 4.035156 -22.726562 6.128906 -21.230469 C 7.925781 -20.183594 9.71875 -19.4375 11.960938 -19.886719 C 11.511719 -20.183594 11.214844 -20.183594 10.914062 -20.183594 C 9.570312 -20.035156 8.375 -20.632812 7.328125 -21.53125 C 5.082031 -23.476562 3.738281 -25.867188 2.992188 -28.558594 C 2.09375 -32.148438 2.09375 -35.734375 2.691406 -39.324219 C 3.589844 -44.558594 5.382812 -49.492188 7.773438 -54.277344 C 12.558594 -64.742188 18.839844 -74.3125 26.164062 -82.984375 C 29.605469 -87.019531 33.195312 -90.757812 37.378906 -94.046875 C 39.175781 -95.542969 40.96875 -96.890625 43.0625 -97.9375 C 43.660156 -98.382812 44.40625 -98.683594 45.15625 -98.980469 C 45.605469 -99.132812 45.902344 -98.832031 46.050781 -98.382812 C 46.203125 -97.636719 46.050781 -96.738281 46.050781 -95.992188 C 45.605469 -91.507812 44.855469 -87.171875 43.957031 -82.835938 C 42.3125 -73.863281 40.070312 -64.890625 37.53125 -56.070312 C 35.734375 -49.339844 33.792969 -42.464844 31.847656 -35.734375 C 31.847656 -35.285156 31.699219 -34.988281 31.546875 -34.539062 C 31.546875 -34.390625 31.398438 -34.390625 31.25 -34.390625 C 31.101562 -34.390625 30.949219 -34.390625 30.949219 -34.539062 C 30.652344 -35.285156 30.203125 -36.035156 30.054688 -36.78125 C 29.457031 -38.425781 29.007812 -40.070312 28.558594 -41.714844 C 28.558594 -42.015625 28.410156 -42.464844 27.960938 -42.613281 C 27.8125 -42.761719 27.363281 -42.613281 27.363281 -42.464844 C 27.363281 -42.015625 27.210938 -41.566406 27.363281 -41.265625 C 27.8125 -38.128906 28.707031 -35.136719 29.902344 -32.296875 C 30.351562 -31.25 30.351562 -30.351562 30.054688 -29.304688 L 26.464844 -15.847656 C 24.222656 -7.625 21.980469 0.597656 20.035156 8.972656 C 19.289062 11.960938 18.539062 14.800781 17.34375 17.792969 C 16.445312 20.335938 15.699219 23.027344 15.25 25.71875 C 14.800781 28.257812 14.953125 28.109375 17.195312 28.855469 Z M 26.164062 -0.597656 C 26.316406 -2.691406 29.007812 -13.15625 32.296875 -24.074219 C 32.445312 -24.519531 32.445312 -24.96875 32.894531 -25.269531 C 33.195312 -25.269531 33.34375 -24.96875 33.492188 -24.820312 C 34.6875 -22.578125 36.035156 -20.484375 37.53125 -18.390625 C 37.828125 -17.792969 37.828125 -17.34375 37.378906 -16.746094 C 35.285156 -13.90625 33.195312 -10.914062 31.25 -7.925781 C 29.902344 -5.980469 28.707031 -4.035156 27.363281 -2.242188 C 27.0625 -1.644531 26.765625 -0.898438 26.164062 -0.597656 Z M 26.164062 -0.597656 "/></g></g></g><g fill="#3c3d3c" fill-opacity="1"><g transform="translate(203.571494, 227.115652)"><g><path d="M 7.773438 27.363281 C 8.671875 27.363281 9.121094 26.316406 9.71875 25.867188 L 9.867188 25.71875 C 12.558594 22.578125 15.101562 19.4375 17.492188 16.148438 C 22.128906 9.867188 26.464844 3.4375 30.203125 -3.289062 C 33.195312 -8.375 36.035156 -13.605469 38.425781 -18.988281 C 40.519531 -23.773438 42.464844 -28.558594 44.109375 -33.492188 C 44.40625 -34.390625 45.003906 -34.988281 45.902344 -35.585938 C 47.996094 -36.929688 50.238281 -38.277344 52.632812 -39.472656 C 56.070312 -41.265625 59.660156 -42.761719 63.394531 -44.257812 C 67.734375 -46.050781 69.824219 -46.949219 73.5625 -47.996094 C 74.3125 -48.296875 75.207031 -48.445312 75.804688 -48.894531 C 74.910156 -50.089844 73.714844 -50.539062 72.21875 -50.089844 C 67.734375 -48.894531 67.132812 -48.894531 62.648438 -47.097656 C 58.015625 -45.304688 53.527344 -43.0625 49.042969 -40.667969 L 46.800781 -39.472656 C 46.5 -39.921875 46.648438 -40.371094 46.800781 -40.667969 L 49.042969 -47.546875 C 51.285156 -55.171875 52.929688 -62.949219 54.125 -71.023438 C 54.875 -76.105469 55.324219 -81.339844 54.722656 -86.570312 C 54.574219 -87.917969 54.425781 -89.113281 54.125 -90.460938 C 53.527344 -93.75 51.585938 -96.289062 49.042969 -98.535156 C 47.25 -100.027344 45.15625 -100.628906 42.761719 -100.328125 C 40.070312 -99.878906 37.378906 -98.980469 34.839844 -97.785156 C 29.902344 -95.394531 25.417969 -92.253906 21.230469 -88.664062 C 14.355469 -82.683594 8.820312 -75.65625 4.933594 -67.433594 C 1.945312 -61.152344 0.148438 -54.722656 0 -47.847656 C -0.148438 -45.605469 0 -43.511719 0.597656 -41.417969 C 1.496094 -38.277344 2.992188 -35.585938 5.53125 -33.640625 C 6.128906 -33.195312 6.726562 -32.746094 7.476562 -32.894531 C 7.476562 -32.894531 7.328125 -32.894531 7.328125 -32.894531 L 6.878906 -33.34375 C 4.933594 -34.839844 3.738281 -36.78125 2.839844 -39.023438 C 1.945312 -41.417969 1.644531 -43.957031 1.792969 -46.648438 C 2.09375 -50.835938 2.992188 -55.023438 4.335938 -59.210938 C 6.28125 -64.890625 9.269531 -70.125 12.859375 -75.058594 C 17.941406 -81.636719 23.625 -87.320312 30.503906 -91.804688 C 33.640625 -93.75 36.78125 -95.542969 40.070312 -96.738281 C 42.3125 -97.488281 44.40625 -97.9375 46.800781 -97.785156 C 48.445312 -97.785156 49.640625 -96.890625 50.238281 -95.246094 C 50.984375 -93.597656 51.285156 -91.804688 51.585938 -90.011719 C 52.183594 -85.226562 51.882812 -80.441406 51.433594 -75.65625 C 50.6875 -69.976562 49.492188 -64.144531 47.996094 -58.613281 C 46.050781 -50.835938 43.359375 -43.511719 40.667969 -36.035156 C 40.371094 -35.285156 39.773438 -34.539062 39.175781 -34.089844 C 37.976562 -33.195312 36.929688 -32.445312 35.886719 -31.546875 C 27.363281 -24.671875 19.738281 -16.894531 13.753906 -7.773438 C 9.269531 -0.898438 5.832031 6.28125 4.035156 14.355469 C 3.589844 16.746094 3.289062 19.289062 3.289062 21.828125 C 3.4375 22.875 3.589844 23.773438 3.886719 24.820312 C 4.035156 25.269531 4.1875 25.867188 4.785156 26.164062 C 5.683594 26.765625 6.578125 27.363281 7.773438 27.363281 Z M 6.429688 23.921875 C 5.832031 23.324219 5.832031 22.578125 5.832031 21.828125 C 5.683594 19.585938 5.980469 17.644531 6.429688 15.550781 C 7.625 9.269531 10.019531 3.4375 13.15625 -2.09375 C 17.046875 -8.972656 21.828125 -14.953125 27.363281 -20.484375 C 30.203125 -23.175781 33.195312 -25.867188 36.183594 -28.410156 C 36.632812 -28.855469 37.082031 -29.15625 37.53125 -29.457031 C 37.679688 -29.457031 37.828125 -29.304688 37.828125 -29.304688 C 37.976562 -29.304688 37.976562 -29.15625 37.976562 -29.15625 C 37.828125 -28.707031 37.679688 -28.109375 37.378906 -27.660156 C 33.792969 -18.390625 29.304688 -9.570312 24.074219 -1.046875 C 19.4375 6.726562 14.203125 14.203125 8.671875 21.382812 C 8.074219 22.277344 7.328125 23.324219 6.429688 23.921875 Z M 6.429688 23.921875 "/></g></g></g><g clip-path="url(#f5f4857405)"><path fill="#ffffff" d="M 2.632812 185.109375 L 48.320312 214.035156 L 48.320312 198.574219 L 23.136719 182.535156 L 48.320312 166.496094 L 48.320312 151.035156 L 2.632812 179.960938 Z M 2.632812 185.109375 " fill-opacity="1" fill-rule="nonzero"/></g><g clip-path="url(#dc18d84d63)"><path fill="#ffffff" d="M 326.378906 166.5 L 351.566406 182.527344 L 326.378906 198.570312 L 326.378906 214.035156 L 372.066406 185.097656 L 372.066406 179.957031 L 326.378906 151.035156 Z M 326.378906 166.5 " fill-opacity="1" fill-rule="nonzero"/></g></svg>